{
.appVersion = "1147";
classes = (
{
automatic = 1;
code = "questiondown endash emdash periodcentered exclamdown parenleft parenright bracketleft bracketright braceleft braceright";
name = cap_0;
},
{
automatic = 1;
code = "zero one two three four five six seven eight nine zero.pnum one.pnum two.pnum three.pnum four.pnum five.pnum six.pnum seven.pnum eight.pnum nine.pnum zero.dnom one.dnom two.dnom three.dnom four.dnom five.dnom six.dnom seven.dnom eight.dnom nine.dnom zero.numr one.numr two.numr three.numr four.numr five.numr six.numr seven.numr eight.numr nine.numr zeroinferior oneinferior twoinferior threeinferior fourinferior fiveinferior sixinferior seveninferior eightinferior nineinferior";
name = frac3;
},
{
automatic = 1;
code = "questiondown.cap endash.cap emdash.cap periodcentered.cap exclamdown.cap parenleft.cap parenright.cap bracketleft.cap bracketright.cap braceleft.cap braceright.cap";
name = cap;
},
{
automatic = 1;
code = "zerosuperior onesuperior twosuperior threesuperior foursuperior fivesuperior sixsuperior sevensuperior eightsuperior ninesuperior zerosuperior onesuperior twosuperior threesuperior foursuperior fivesuperior sixsuperior sevensuperior eightsuperior ninesuperior zerosuperior onesuperior twosuperior threesuperior foursuperior fivesuperior sixsuperior sevensuperior eightsuperior ninesuperior zerosuperior onesuperior twosuperior threesuperior foursuperior fivesuperior sixsuperior sevensuperior eightsuperior ninesuperior zerosuperior onesuperior twosuperior threesuperior foursuperior fivesuperior sixsuperior sevensuperior eightsuperior ninesuperior";
name = frac4;
},
{
automatic = 1;
code = "zerosuperior onesuperior twosuperior threesuperior foursuperior fivesuperior sixsuperior sevensuperior eightsuperior ninesuperior";
name = frac1;
},
{
automatic = 1;

glyphs = (
{
glyphname = A;
layers = (
{
layerId = "B420756C-160B-4E3B-8A8F-018354DD19AA";
paths = (
{
closed = 1;
nodes = (
"69 0 LINE",
"183 216 LINE",
"482 216 LINE",
"494 0 LINE",
"530 0 LINE",
"492 700 LINE",
"403 700 LINE",
"32 0 LINE {name = hr00;}"
);
},
{
closed = 1;
nodes = (
"423 667 LINE",
"459 667 LINE",
"480 248 LINE",
"201 248 LINE"
);
}
);
width = 556;
},
{
layerId = "7271F2A9-EB19-499E-973E-7497F9144823";
paths = (
{
closed = 1;
nodes = (
"151 0 LINE",
"204 118 LINE",
"402 118 LINE",
"398 0 LINE",
"536 0 LINE",
"557 680 LINE",
"319 680 LINE",
"13 0 LINE {name = hr00;}"
);
},
{
closed = 1;
nodes = (
"400 560 LINE",
"421 560 LINE",
"407 238 LINE",
"256 238 LINE"
);
}
);
width = 551;
}
);
leftKerningGroup = A;
rightKerningGroup = A;
unicode = 0041;
},
{
glyphname = AE;
layers = (
{
layerId = "B420756C-160B-4E3B-8A8F-018354DD19AA";
paths = (
{
closed = 1;
nodes = (
"67 0 LINE",
"181 215 LINE",
"421 215 LINE",
"372 0 LINE {name = hr00;}",
"749 0 LINE",
"755 33 LINE",
"414 33 LINE",
"487 343 LINE",
"774 343 LINE",
"780 376 LINE",
"493 376 LINE",
"564 669 LINE",
"907 667 LINE",
"913 700 LINE",
"402 700 LINE",
"32 0 LINE"
);
},
{
closed = 1;
nodes = (
"418 667 LINE",
"530 667 LINE",
"428 247 LINE",
"197 247 LINE"
);
}
);
width = 797;
},
{
layerId = "7271F2A9-EB19-499E-973E-7497F9144823";
paths = (
{
closed = 1;
nodes = (
"145 0 LINE",
"198 119 LINE",
"341 119 LINE",
"313 0 LINE {name = hr00;}",
"719 0 LINE",
"748 130 LINE",
"472 130 LINE",
"507 277 LINE",
"728 277 LINE",
"757 402 LINE",
"537 402 LINE",
"575 561 LINE",
"851 559 LINE",
"881 690 LINE",
"322 690 LINE",
"14 0 LINE"
);
},
{
closed = 1;
nodes = (
"393 560 LINE",
"445 560 LINE",
"372 247 LINE",
"256 247 LINE"
);
}
);
width = 754;
}
);
leftKerningGroup = A;
rightKerningGroup = E;
unicode = 00C6;
},
{
glyphname = B;
layers = (
{
layerId = "B420756C-160B-4E3B-8A8F-018354DD19AA";
paths = (
{
closed = 1;
nodes = (
"313 0 LINE",
"481 0 OFFCURVE",
"575 91 OFFCURVE",
"575 243 CURVE SMOOTH",
"575 314 OFFCURVE",
"536 348 OFFCURVE",
"479 363 CURVE",
"552 387 OFFCURVE",
"620 461 OFFCURVE",
"620 572 CURVE SMOOTH",
"620 668 OFFCURVE",
"567 700 OFFCURVE",
"462 700 CURVE SMOOTH",
"247 700 LINE {name = hr00;}",
"86 0 LINE"
);
},
{
closed = 1;
nodes = (
"201 343 LINE",
"388 343 LINE SMOOTH",
"469 343 OFFCURVE",
"537 325 OFFCURVE",
"537 242 CURVE SMOOTH",
"537 114 OFFCURVE",
"460 33 OFFCURVE",
"321 33 CURVE SMOOTH",
"130 33 LINE"
);
},
{
closed = 1;
nodes = (
"275 667 LINE",
"455 667 LINE SMOOTH",
"543 667 OFFCURVE",
"583 647 OFFCURVE",
"583 571 CURVE SMOOTH",
"583 465 OFFCURVE",
"510 376 OFFCURVE",
"396 376 CURVE SMOOTH",
"208 376 LINE"
);
}
);
width = 580;
},
{
layerId = "7271F2A9-EB19-499E-973E-7497F9144823";
paths = (
{
closed = 1;
nodes = (
"321 0 LINE",
"502 0 OFFCURVE",
"589 107 OFFCURVE",
"589 232 CURVE SMOOTH",
"589 282 OFFCURVE",
"579 317 OFFCURVE",
"524 350 CURVE",
"593 392 OFFCURVE",
"636 441 OFFCURVE",
"636 533 CURVE SMOOTH",
"636 634 OFFCURVE",
"569 680 OFFCURVE",
"458 680 CURVE SMOOTH",
"222 680 LINE {name = hr00;}",
"65 0 LINE"
);
},
{
closed = 1;
nodes = (
"269 285 LINE",
"382 285 LINE SMOOTH",
"427 285 OFFCURVE",
"447 268 OFFCURVE",
"447 229 CURVE SMOOTH",
"447 164 OFFCURVE",
"408 118 OFFCURVE",
"348 118 CURVE SMOOTH",
"230 118 LINE"
);
},
{
closed = 1;
nodes = (
"333 562 LINE",
"436 562 LINE SMOOTH",
"477 562 OFFCURVE",
"495 542 OFFCURVE",
"495 505 CURVE SMOOTH",
"495 442 OFFCURVE",
"452 400 OFFCURVE",
"398 400 CURVE SMOOTH",
"295 400 LINE"
);
}
);
width = 573;
}
);
leftKerningGroup = I;
unicode = 0042;
userData = {
"[MP] 22 06 2011\012Wt0 Sl1\012rettifica curva inferiore\012Wt1 Sl1\012spostamento punto\012di congiunzione curve\012\012[NM] 030211\012Wt0 SI0\012- regolazione manipolatori, altezza\012- curva vert. +1 pt, asta vert. +2 pt, asta orizz. + 2 pt.\012Wt1 SI0\012- regolazione manipolatori, altez  com.typemytype.robofont.guides" = (
{
angle = 0;
isGlobal = 0;
magnetic = 5;
x = 0;
y = 761;
},
{
angle = 0;
isGlobal = 0;
magnetic = 5;
x = 0;
y = 690;
},
{
angle = 90;
isGlobal = 0;
magnetic = 5;
x = -224;
y = 0;
},
{
angle = 90;
isGlobal = 0;
magnetic = 5;
x = -215;
y = 0;
},
{
angle = 90;
isGlobal = 0;
magnetic = 5;
x = 133;
y = 0;
}
);
};
},
{
glyphname = C;
layers = (
{
layerId = "B420756C-160B-4E3B-8A8F-018354DD19AA";
paths = (
{
closed = 1;
nodes = (
"364 -9 OFFCURVE",
"436 2 OFFCURVE",
"473 11 CURVE",
"474 44 LINE {name = hr00;}",
"438 36 OFFCURVE",
"369 25 OFFCURVE",
"311 25 CURVE SMOOTH",
"205 25 OFFCURVE",
"159 78 OFFCURVE",
"159 190 CURVE SMOOTH",
"159 388 OFFCURVE",
"261 675 OFFCURVE",
"465 675 CURVE SMOOTH",
"518 675 OFFCURVE",
"587 665 OFFCURVE",
"624 658 CURVE",
"632 690 LINE",
"595 698 OFFCURVE",
"525 709 OFFCURVE",
"469 709 CURVE SMOOTH",
"232 709 OFFCURVE",
"121 403 OFFCURVE",
"121 190 CURVE SMOOTH",
"121 59 OFFCURVE",
"182 -9 OFFCURVE",
"306 -9 CURVE SMOOTH"
);
}
);
width = 510;
},
{
layerId = "7271F2A9-EB19-499E-973E-7497F9144823";
paths = (
{
closed = 1;
nodes = (
"359 -12 OFFCURVE",
"433 3 OFFCURVE",
"473 14 CURVE",
"484 121 LINE {name = hr00;}",
"448 115 OFFCURVE",
"379 108 OFFCURVE",
"322 108 CURVE SMOOTH",
"265 108 OFFCURVE",
"241 140 OFFCURVE",
"241 195 CURVE SMOOTH",
"241 385 OFFCURVE",
"315 572 OFFCURVE",
"444 572 CURVE SMOOTH",
"504 572 OFFCURVE",
"561 565 OFFCURVE",
"588 560 CURVE",
"620 662 LINE",
"582 675 OFFCURVE",
"509 692 OFFCURVE",
"449 692 CURVE SMOOTH",
"190 692 OFFCURVE",
"99 396 OFFCURVE",
"99 185 CURVE SMOOTH",
"99 59 OFFCURVE",
"165 -12 OFFCURVE",
"304 -12 CURVE SMOOTH"
);
}
);
width = 494;
}
);
leftKerningGroup = O;
rightKerningGroup = C;
unicode = 0043;
userData = {
"[MP] 22 06 2011\012Wt0 Sl1\012- rettifica taglio termin. inferiore\012- rettifica curva in basso a sn\012\012[MN]280111\012Wt0 SI0:\012controllo e sistemazione stems, regolazione over shooting, regolazione manipolatori.\012Wt1 SI0:\012regolazione stems, aumento over shooting, sistemazione manipolatori.\012Wt0 SI1:\012regolazione over shooting, sistemazione stems.\012Wt1 SI1:\012control  com.typemytype.robofont.guides" = (
{
angle = 0;
isGlobal = 0;
magnetic = 5;
x = 0;
y = 641;
},
{
angle = 0;
isGlobal = 0;
magnetic = 5;
x = 0;
y = 744;
},
{
angle = 90;
isGlobal = 0;
magnetic = 5;
x = 628;
y = 0;
}
);
};
},
{
glyphname = D;
layers = (
{
layerId = "B420756C-160B-4E3B-8A8F-018354DD19AA";
paths = (
{
closed = 1;
nodes = (
"323 0 LINE SMOOTH",
"545 0 OFFCURVE",
"646 293 OFFCURVE",
"646 495 CURVE SMOOTH",
"646 632 OFFCURVE",
"600 700 OFFCURVE",
"476 700 CURVE",
"248 700 LINE",
"86 0 LINE {name = hr00;}"
);
},
{
closed = 1;
nodes = (
"276 667 LINE",
"469 667 LINE SMOOTH",
"572 667 OFFCURVE",
"608 612 OFFCURVE",
"608 495 CURVE SMOOTH",
"608 308 OFFCURVE",
"511 33 OFFCURVE",
"332 33 CURVE",
"131 33 LINE"
);
}
);
width = 608;
},
{
layerId = "7271F2A9-EB19-499E-973E-7497F9144823";
paths = (
{
closed = 1;
nodes = (
"309 0 LINE SMOOTH",
"553 0 OFFCURVE",
"660 247 OFFCURVE",
"660 473 CURVE SMOOTH",
"660 636 OFFCURVE",
"554 680 OFFCURVE",
"436 680 CURVE",
"222 680 LINE",
"65 0 LINE {name = hr00;}"
);
},
{
closed = 1;
nodes = (
"332 560 LINE",
"408 560 LINE SMOOTH",
"476 560 OFFCURVE",
"518 541 OFFCURVE",
"518 473 CURVE SMOOTH",
"518 349 OFFCURVE",
"465 120 OFFCURVE",
"321 120 CURVE",
"231 120 LINE"
);
}
);
width = 605;
}
);
leftKerningGroup = I;
rightKerningGroup = D;
unicode = 0044;
userData = {
"[MP] 22 06 2011\012Wt0/Wt1 Sl1\012- rettifica curva\012\012[NM] 24/01/11\012Wt0 SI0:\012modifica V stems e H stems\012regolazione manipolatori.\012Wt1 SI0:\012modifica v stems e h stems. \012Wt0 SI1:\012modifica spessori stems.regolazione inclinazione e altezza\012Wt1 SI1:\012modifica spessori  com.typemytype.robofont.guides" = (
{
angle = 0;
isGlobal = 0;
magnetic = 5;
x = 0;
y = 799;
},
{
angle = 90;
isGlobal = 0;
magnetic = 5;
x = 221;
y = 0;
},
{
angle = 90;
isGlobal = 0;
magnetic = 5;
x = 255;
y = 0;
}
);
};
},
{
glyphname = Eth;
layers = (
{
components = (
{
name = D;
transform = "{1, 0, 0, 1, 2, 0}";
}
);
layerId = "B420756C-160B-4E3B-8A8F-018354DD19AA";
paths = (
{
closed = 1;
nodes = (
"363 332 LINE",
"372 370 LINE",
"96 370 LINE",
"89 332 LINE"
);
}
);
width = 610;
},
{
components = (
{
name = D;
transform = "{1, 0, 0, 1, 8, 0}";
}
);
layerId = "7271F2A9-EB19-499E-973E-7497F9144823";
paths = (
{
closed = 1;
nodes = (
"385 275 LINE",
"415 411 LINE",
"112 411 LINE",
"83 275 LINE"
);
}
);
width = 613;
}
);
leftKerningGroup = I;
rightKerningGroup = D;
unicode = 00D0;
},
{
glyphname = Dcroat;
layers = (
{
components = (
{
name = D;
transform = "{1, 0, 0, 1, 2, 0}";
}
);
layerId = "B420756C-160B-4E3B-8A8F-018354DD19AA";
paths = (
{
closed = 1;
nodes = (
"363 332 LINE",
"372 370 LINE",
"96 370 LINE",
"89 332 LINE {name = hr00;}"
);
}
);
width = 610;
},
{
components = (
{
name = D;
transform = "{1, 0, 0, 1, 8, 0}";
}
);
layerId = "7271F2A9-EB19-499E-973E-7497F9144823";
paths = (
{
closed = 1;
nodes = (
"384 275 LINE",
"414 411 LINE",
"111 411 LINE",
"82 275 LINE {name = hr00;}"
);
}
);
width = 613;
}
);
leftKerningGroup = I;
rightKerningGroup = D;
unicode = 0110;
},
{
glyphname = E;
layers = (
{
layerId = "B420756C-160B-4E3B-8A8F-018354DD19AA";
paths = (
{
closed = 1;
nodes = (
"463 0 LINE",
"471 33 LINE",
"130 33 LINE",
"201 343 LINE",
"486 343 LINE",
"494 376 LINE",
"209 376 LINE",
"276 667 LINE",
"617 667 LINE",
"625 700 LINE",
"248 700 LINE",
"86 0 LINE {name = hr00;}"
);
}
);
width = 510;
},
{
layerId = "7271F2A9-EB19-499E-973E-7497F9144823";
paths = (
{
closed = 1;
nodes = (
"465 0 LINE",
"492 120 LINE",
"231 120 LINE",
"268 280 LINE",
"473 280 LINE",
"501 400 LINE",
"295 400 LINE",
"332 560 LINE",
"592 560 LINE",
"620 680 LINE",
"221 680 LINE",
"65 0 LINE {name = hr00;}"
);
}
);
width = 497;
}
);
leftKerningGroup = I;
rightKerningGroup = E;
unicode = 0045;
},
{
glyphname = F;
layers = (
{
layerId = "B420756C-160B-4E3B-8A8F-018354DD19AA";
paths = (
{
closed = 1;
nodes = (
"122 0 LINE",
"195 316 LINE",
"482 316 LINE",
"490 349 LINE",
"203 349 LINE",
"276 667 LINE",
"607 667 LINE",
"615 700 LINE",
"248 700 LINE",
"86 0 LINE {name = hr00;}"
);
}
);
width = 485;
},
{
layerId = "7271F2A9-EB19-499E-973E-7497F9144823";
paths = (
{
closed = 1;
nodes = (
"203 0 LINE",
"257 235 LINE",
"466 235 LINE",
"495 355 LINE",
"285 355 LINE",
"332 560 LINE",
"586 560 LINE",
"614 680 LINE",
"222 680 LINE",
"65 0 LINE {name = hr00;}"
);
}
);
width = 477;
}
);
leftKerningGroup = I;
unicode = 0046;
},
{
glyphname = G;
layers = (
{
layerId = "B420756C-160B-4E3B-8A8F-018354DD19AA";
paths = (
{
closed = 1;
nodes = (
"384 -9 OFFCURVE",
"467 7 OFFCURVE",
"511 19 CURVE",
"587 346 LINE",
"419 346 LINE",
"411 313 LINE {name = hr00;}",
"543 313 LINE",
"481 46 LINE",
"443 37 OFFCURVE",
"373 24 OFFCURVE",
"320 24 CURVE SMOOTH",
"215 24 OFFCURVE",
"159 70 OFFCURVE",
"159 175 CURVE SMOOTH",
"159 385 OFFCURVE",
"253 676 OFFCURVE",
"463 676 CURVE SMOOTH",
"529 676 OFFCURVE",
"611 663 OFFCURVE",
"655 654 CURVE",
"665 684 LINE",
"622 695 OFFCURVE",
"540 709 OFFCURVE",
"471 709 CURVE SMOOTH",
"228 709 OFFCURVE",
"121 414 OFFCURVE",
"121 175 CURVE SMOOTH",
"121 49 OFFCURVE",
"192 -9 OFFCURVE",
"318 -9 CURVE SMOOTH"
);
}
);
width = 575;
},
{
layerId = "7271F2A9-EB19-499E-973E-7497F9144823";
paths = (
{
closed = 1;
nodes = (
"419 -12 OFFCURVE",
"492 3 OFFCURVE",
"521 14 CURVE",
"606 378 LINE",
"405 378 LINE",
"378 264 LINE {name = hr00;}",
"442 264 LINE",
"407 113 LINE",
"395 111 OFFCURVE",
"369 108 OFFCURVE",
"344 108 CURVE SMOOTH",
"284 108 OFFCURVE",
"244 134 OFFCURVE",
"244 201 CURVE SMOOTH",
"244 355 OFFCURVE",
"302 572 OFFCURVE",
"454 572 CURVE SMOOTH",
"518 572 OFFCURVE",
"598 561 OFFCURVE",
"641 552 CURVE",
"673 652 LINE",
"631 669 OFFCURVE",
"545 692 OFFCURVE",
"465 692 CURVE SMOOTH",
"215 692 OFFCURVE",
"102 456 OFFCURVE",
"102 202 CURVE SMOOTH",
"102 59 OFFCURVE",
"180 -12 OFFCURVE",
"327 -12 CURVE SMOOTH"
);
}
);
width = 568;
}
);
leftKerningGroup = O;
rightKerningGroup = G;
unicode = 0047;
userData = {
"[MP] 15 07 2011\012Wt1 Sl1\012manip. sn nodo curva superiore\012a sn. di 5 pt\012\012\012[MN] 040211\012Wt0 SI0:\012regolazione v stems e h stems, regolazione over shooting\012Wt1 SI0:\012regolazione stems, aumento over shooting sup.\012Wt0 SI1:\012regolazione stems, aumento over shooting sup.\012Wt1 SI1:\012regolazione stems, dim. over shootig sup.  com.typemytype.robofont.guides" = (
{
angle = 0;
isGlobal = 0;
magnetic = 5;
x = 0;
y = 178;
},
{
angle = 0;
isGlobal = 0;
magnetic = 5;
x = 0;
y = -12;
},
{
angle = 90;
isGlobal = 0;
magnetic = 5;
x = 126;
y = 0;
}
);
};
},
{
glyphname = Gbreve;
layers = (
{
components = (
{
name = G;
}
);
layerId = "B420756C-160B-4E3B-8A8F-018354DD19AA";
paths = (
{
closed = 1;
nodes = (
"578 790 OFFCURVE",
"641 846 OFFCURVE",
"660 921 CURVE",
"628 921 LINE",
"614 867 OFFCURVE",
"570 826 OFFCURVE",
"507 826 CURVE SMOOTH",
"454 826 OFFCURVE",
"430 857 OFFCURVE",
"430 896 CURVE SMOOTH",
"430 904 OFFCURVE",
"431 913 OFFCURVE",
"433 921 CURVE",
"400 921 LINE {name = hr00;}",
"397 910 OFFCURVE",
"396 899 OFFCURVE",
"396 888 CURVE SMOOTH",
"396 835 OFFCURVE",
"431 790 OFFCURVE",
"495 790 CURVE SMOOTH"
);
}
);
width = 575;
},
{
components = (
{
name = G;
}
);
layerId = "7271F2A9-EB19-499E-973E-7497F9144823";
paths = (
{
closed = 1;
nodes = (
"599 760 OFFCURVE",
"673 830 OFFCURVE",
"705 926 CURVE",
"574 926 LINE",
"563 896 OFFCURVE",
"543 882 OFFCURVE",
"511 882 CURVE SMOOTH",
"485 882 OFFCURVE",
"471 893 OFFCURVE",
"469 913 CURVE",
"469 917 OFFCURVE",
"468 921 OFFCURVE",
"469 926 CURVE",
"338 926 LINE {name = hr00;}",
"336 911 OFFCURVE",
"335 896 OFFCURVE",
"336 882 CURVE SMOOTH",
"340 813 OFFCURVE",
"382 760 OFFCURVE",
"477 760 CURVE SMOOTH"
);
}
);
width = 568;
}
);
leftKerningGroup = O;
rightKerningGroup = G;
unicode = 011E;
},
{
glyphname = Gcircumflex;
layers = (
{
components = (
{
name = G;
}
);
layerId = "B420756C-160B-4E3B-8A8F-018354DD19AA";
paths = (
{
closed = 1;
nodes = (
"408 795 LINE",
"518 896 LINE",
"582 795 LINE",
"620 795 LINE",
"533 930 LINE",
"511 930 LINE",
"365 795 LINE"
);
}
);
width = 575;
},
{
components = (
{
name = G;
}
);
layerId = "7271F2A9-EB19-499E-973E-7497F9144823";
paths = (
{
closed = 1;
nodes = (
"440 755 LINE",
"498 819 LINE",
"522 755 LINE",
"654 755 LINE",
"568 930 LINE",
"468 930 LINE",
"300 755 LINE"
);
}
);
width = 568;
}
);
leftKerningGroup = O;
rightKerningGroup = G;
unicode = 011C;
},
{
glyphname = Gdotaccent;
layers = (
{
components = (
{
name = G;
}
);
layerId = "B420756C-160B-4E3B-8A8F-018354DD19AA";
paths = (
{
closed = 1;
nodes = (
"529 840 LINE",
"542 898 LINE",
"509 898 LINE",
"495 840 LINE"
);
}
);
width = 575;
},
{
components = (
{
name = G;
}
);
layerId = "7271F2A9-EB19-499E-973E-7497F9144823";
paths = (
{
closed = 1;
nodes = (
"545 732 LINE",
"577 869 LINE",
"451 869 LINE",
"419 732 LINE"
);
}
);
width = 568;
}
);
leftKerningGroup = O;
rightKerningGroup = G;
unicode = 0120;
},
{
glyphname = H;
layers = (
{
layerId = "B420756C-160B-4E3B-8A8F-018354DD19AA";
paths = (
{
closed = 1;
nodes = (
"122 0 LINE",
"199 334 LINE",
"581 334 LINE",
"504 0 LINE {name = hr00;}",
"540 0 LINE",
"702 700 LINE",
"666 700 LINE",
"589 367 LINE",
"207 367 LINE",
"284 700 LINE",
"248 700 LINE",
"86 0 LINE"
);
}
);
width = 626;
},
{
layerId = "7271F2A9-EB19-499E-973E-7497F9144823";
paths = (
{
closed = 1;
nodes = (
"203 0 LINE",
"269 288 LINE",
"483 288 LINE",
"417 0 LINE {name = hr00;}",
"555 0 LINE",
"712 680 LINE",
"574 680 LINE",
"511 408 LINE",
"297 408 LINE",
"360 680 LINE",
"222 680 LINE",
"65 0 LINE"
);
}
);
width = 620;
}
);
leftKerningGroup = I;
rightKerningGroup = I;
unicode = 0048;
},
{
glyphname = Hbar;
layers = (
{
layerId = "B420756C-160B-4E3B-8A8F-018354DD19AA";
paths = (
{
closed = 1;
nodes = (
"130 0 LINE",
"207 334 LINE",
"593 334 LINE",
"516 0 LINE {name = hr00;}",
"550 0 LINE",
"711 700 LINE",
"677 700 LINE",
"601 370 LINE",
"215 370 LINE",
"291 700 LINE",
"257 700 LINE",
"96 0 LINE"
);
},
{
closed = 1;
nodes = (
"756 517 LINE",
"766 553 LINE",
"133 553 LINE",
"126 517 LINE {name = hr01;}"
);
}
);
width = 645;
},
{
layerId = "7271F2A9-EB19-499E-973E-7497F9144823";
paths = (
{
closed = 1;
nodes = (
"201 0 LINE",
"265 278 LINE",
"491 278 LINE",
"427 0 LINE {name = hr00;}",
"559 0 LINE",
"716 680 LINE",
"584 680 LINE",
"521 407 LINE",
"295 407 LINE",
"358 680 LINE",
"226 680 LINE",
"69 0 LINE"
);
},
{
closed = 1;
nodes = (
"761 600 LINE",
"143 600 LINE",
"115 484 LINE",
"731 481 LINE"
);
}
);
width = 628;
}
);
leftKerningGroup = I;
rightKerningGroup = I;
unicode = 0126;
},
{
glyphname = I;
layers = (
{
layerId = "B420756C-160B-4E3B-8A8F-018354DD19AA";
paths = (
{
closed = 1;
nodes = (
"122 0 LINE",
"284 700 LINE",
"248 700 LINE",
"86 0 LINE {name = hr00;}"
);
}
);
width = 208;
},
{
layerId = "7271F2A9-EB19-499E-973E-7497F9144823";
paths = (
{
closed = 1;
nodes = (
"203 0 LINE",
"360 680 LINE",
"222 680 LINE",
"65 0 LINE {name = hr00;}"
);
}
);
width = 268;
}
);
leftKerningGroup = I;
rightKerningGroup = I;
unicode = 0049;
},
{
glyphname = Iogonek;
layers = (
{
layerId = "B420756C-160B-4E3B-8A8F-018354DD19AA";
paths = (
{
closed = 1;
nodes = (
"122 0 LINE",
"284 700 LINE",
"248 700 LINE",
"86 0 LINE {name = hr00;}"
);
},
{
closed = 1;
nodes = (
"56 -198 OFFCURVE",
"84 -193 OFFCURVE",
"99 -190 CURVE",
"103 -158 LINE {name = hr01;}",
"87 -161 OFFCURVE",
"61 -165 OFFCURVE",
"47 -165 CURVE SMOOTH",
"27 -165 OFFCURVE",
"15 -157 OFFCURVE",
"15 -141 CURVE SMOOTH",
"15 -97 OFFCURVE",
"88 -27 OFFCURVE",
"122 0 CURVE",
"89 10 LINE",
"56 -17 OFFCURVE",
"-25 -92 OFFCURVE",
"-25 -144 CURVE SMOOTH",
"-25 -176 OFFCURVE",
"-6 -198 OFFCURVE",
"37 -198 CURVE SMOOTH"
);
}
);
width = 208;
},
{
layerId = "7271F2A9-EB19-499E-973E-7497F9144823";
paths = (
{
closed = 1;
nodes = (
"203 0 LINE",
"360 680 LINE",
"222 680 LINE",
"65 0 LINE {name = hr00;}"
);
},
{
closed = 1;
nodes = (
"94 -214 OFFCURVE",
"137 -208 OFFCURVE",
"162 -203 CURVE",
"175 -93 LINE {name = hr01;}",
"162 -94 OFFCURVE",
"143 -96 OFFCURVE",
"138 -96 CURVE SMOOTH",
"128 -96 OFFCURVE",
"125 -89 OFFCURVE",
"125 -82 CURVE SMOOTH",
"125 -58 OFFCURVE",
"170 -14 OFFCURVE",
"203 0 CURVE",
"91 15 LINE",
"56 -9 OFFCURVE",
"-19 -76 OFFCURVE",
"-19 -137 CURVE SMOOTH",
"-19 -188 OFFCURVE",
"13 -214 OFFCURVE",
"64 -214 CURVE SMOOTH"
);
}
);
width = 268;
}
);
leftKerningGroup = I;
rightKerningGroup = I;
unicode = 012E;
},
{
glyphname = J;
layers = (
{
layerId = "B420756C-160B-4E3B-8A8F-018354DD19AA";
paths = (
{
closed = 1;
nodes = (
"145 -71 OFFCURVE",
"161.526 -37.891 OFFCURVE",
"195 107 CURVE SMOOTH",
"332 700 LINE {name = hr00;}",
"296 700 LINE",
"161 116 LINE",
"131 -15 OFFCURVE",
"115 -38 OFFCURVE",
"13 -38 CURVE",
"7 -71 LINE"
);
}
);
width = 253;
},
{
layerId = "7271F2A9-EB19-499E-973E-7497F9144823";
paths = (
{
closed = 1;
nodes = (
"181 -69 OFFCURVE",
"209.927 -46.983 OFFCURVE",
"252 135 CURVE SMOOTH",
"378 680 LINE {name = hr00;}",
"240 680 LINE",
"114 135 LINE",
"96 57 OFFCURVE",
"82 53 OFFCURVE",
"29 51 CURVE",
"6 -69 LINE"
);
}
);
width = 283;
}
);
leftKerningGroup = J;
rightKerningGroup = J;
unicode = 004A;
userData = {
"[MP] 18 07 2011\012Wt0 Sl1\012rettifica spessore asta vert.\012\012[MP] 15 07 2011\012Wt1 Sl1\012- segmento inferiore a sn di 4 pt\012- punto 1/6 a sn 1 pt\012\012\012[MN] 280111\012Wt0 SI0: \012correzione altezza, stems, sist. manipolatori.\012Wt1 SI0:\012correzione altezza, stems. sist.mnipolat  com.typemytype.robofont.guides" = (
{
angle = 90;
isGlobal = 0;
magnetic = 5;
x = 390;
y = 0;
}
);
};
},
{
glyphname = K;
layers = (
{
layerId = "B420756C-160B-4E3B-8A8F-018354DD19AA";
paths = (
{
closed = 1;
nodes = (
"122 0 LINE",
"198 329 LINE",
"314 329 LINE",
"448 0 LINE {name = hr00;}",
"486 0 LINE",
"344 346 LINE",
"648 700 LINE",
"605 700 LINE",
"315 362 LINE",
"205 362 LINE",
"284 700 LINE",
"248 700 LINE",
"86 0 LINE"
);
}
);
width = 508;
},
{
layerId = "7271F2A9-EB19-499E-973E-7497F9144823";
paths = (
{
closed = 1;
nodes = (
"203 0 LINE",
"264 266 LINE",
"340 273 LINE",
"384 0 LINE {name = hr00;}",
"529 0 LINE",
"466 339 LINE",
"683 680 LINE",
"532 680 LINE",
"356 394 LINE",
"292 386 LINE",
"360 680 LINE",
"222 680 LINE",
"65 0 LINE"
);
}
);
width = 540;
}
);
leftKerningGroup = I;
rightKerningGroup = K;
unicode = 004B;
},
{
glyphname = L;
layers = (
{
layerId = "B420756C-160B-4E3B-8A8F-018354DD19AA";
paths = (
{
closed = 1;
nodes = (
"432 0 LINE {name = hr00;}",
"440 33 LINE",
"130 33 LINE",
"284 700 LINE",
"248 700 LINE",
"86 0 LINE"
);
}
);
width = 441;
},
{
layerId = "7271F2A9-EB19-499E-973E-7497F9144823";
paths = (
{
closed = 1;
nodes = (
"419 0 LINE {name = hr00;}",
"446 120 LINE",
"231 120 LINE",
"360 680 LINE",
"222 680 LINE",
"65 0 LINE"
);
}
);
width = 422;
}
);
leftKerningGroup = I;
rightKerningGroup = L;
unicode = 004C;
},
{
glyphname = Lcaron;
layers = (
{
components = (
{
name = L;
}
);
layerId = "B420756C-160B-4E3B-8A8F-018354DD19AA";
paths = (
{
closed = 1;
nodes = (
"479 480 LINE",
"530 700 LINE {name = hr00;}",
"498 700 LINE",
"447 480 LINE"
);
}
);
width = 445;
},
{
components = (
{
name = L;
}
);
layerId = "7271F2A9-EB19-499E-973E-7497F9144823";
paths = (
{
closed = 1;
nodes = (
"530 429 LINE",
"590 680 LINE {name = hr00;}",
"468 680 LINE",
"407 429 LINE"
);
}
);
width = 464;
}
);
leftKerningGroup = I;
rightKerningGroup = L;
unicode = 013D;
},
{
glyphname = Lslash;
layers = (
{
components = (
{
name = L;
transform = "{1, 0, 0, 1, 2, 0}";
}
);
layerId = "B420756C-160B-4E3B-8A8F-018354DD19AA";
paths = (
{
closed = 1;
nodes = (
"405 463 LINE",
"394 493 LINE {name = hr00;}",
"75 293 LINE",
"88 265 LINE"
);
}
);
width = 442;
},
{
components = (
{
name = L;
transform = "{1, 0, 0, 1, 2, 0}";
}
);
layerId = "7271F2A9-EB19-499E-973E-7497F9144823";
paths = (
{
closed = 1;
nodes = (
"445 414 LINE",
"404 506 LINE {name = hr00;}",
"46 284 LINE",
"87 191 LINE"
);
}
);
width = 423;
}
);
leftKerningGroup = I;
rightKerningGroup = L;
unicode = 0141;
},
{
glyphname = M;
layers = (
{
layerId = "B420756C-160B-4E3B-8A8F-018354DD19AA";
paths = (
{
closed = 1;
nodes = (
"122 0 LINE",
"276 667 LINE",
"290 667 LINE",
"366 21 LINE",
"412 21 LINE",
"794 667 LINE",
"807 667 LINE",
"652 0 LINE",
"688 0 LINE",
"850 700 LINE",
"777 700 LINE",
"393 54 LINE",
"321 700 LINE",
"248 700 LINE",
"86 0 LINE {name = hr00;}"
);
}
);
width = 774;
},
{
layerId = "7271F2A9-EB19-499E-973E-7497F9144823";
paths = (
{
closed = 1;
nodes = (
"203 0 LINE",
"331 560 LINE",
"336 560 LINE",
"337 30 LINE",
"467 30 LINE",
"710 560 LINE",
"716 560 LINE",
"586 0 LINE",
"724 0 LINE",
"881 680 LINE",
"663 680 LINE",
"437 185 LINE",
"436 680 LINE",
"222 680 LINE",
"65 0 LINE {name = hr00;}"
);
}
);
width = 789;
}
);
leftKerningGroup = I;
rightKerningGroup = I;
unicode = 004D;
},
{
glyphname = N;
layers = (
{
layerId = "B420756C-160B-4E3B-8A8F-018354DD19AA";
paths = (
{
closed = 1;
nodes = (
"122 0 LINE",
"276 667 LINE",
"301 667 LINE",
"452 0 LINE",
"531 0 LINE",
"693 700 LINE",
"657 700 LINE",
"503 33 LINE",
"479 33 LINE",
"329 700 LINE",
"248 700 LINE",
"86 0 LINE {name = hr00;}"
);
}
);
width = 617;
},
{
layerId = "7271F2A9-EB19-499E-973E-7497F9144823";
paths = (
{
closed = 1;
nodes = (
"195 0 LINE",
"322 543 LINE",
"334 543 LINE",
"378 0 LINE",
"586 0 LINE",
"743 680 LINE",
"610 680 LINE",
"489 147 LINE",
"477 147 LINE",
"441 680 LINE",
"222 680 LINE",
"65 0 LINE {name = hr00;}"
);
}
);
width = 651;
}
);
leftKerningGroup = I;
rightKerningGroup = I;
unicode = 004E;
},
{
glyphname = Eng;
layers = (
{
layerId = "B420756C-160B-4E3B-8A8F-018354DD19AA";
paths = (
{
closed = 1;
nodes = (
"121 0 LINE",
"275 667 LINE",
"300 667 LINE",
"450 0 LINE",
"531 0 LINE",
"693 700 LINE",
"658 700 LINE",
"504 33 LINE",
"480 33 LINE",
"331 700 LINE",
"248 700 LINE",
"86 0 LINE"
);
},
{
closed = 1;
nodes = (
"484 -171 OFFCURVE",
"500 -138 OFFCURVE",
"533 7 CURVE SMOOTH",
"669 600 LINE",
"635 600 LINE",
"500 16 LINE",
"470 -115 OFFCURVE",
"454 -138 OFFCURVE",
"352 -138 CURVE",
"346 -171 LINE"
);
}
);
width = 617;
},
{
layerId = "7271F2A9-EB19-499E-973E-7497F9144823";
paths = (
{
closed = 1;
nodes = (
"195 0 LINE",
"322 543 LINE",
"334 543 LINE",
"378 0 LINE",
"586 0 LINE",
"743 680 LINE",
"610 680 LINE",
"489 147 LINE",
"477 147 LINE",
"441 680 LINE",
"222 680 LINE",
"65 0 LINE"
);
},
{
closed = 1;
nodes = (
"516 -210 OFFCURVE",
"543 -188 OFFCURVE",
"585 -6 CURVE SMOOTH",
"711 539 LINE",
"579 539 LINE",
"453 -6 LINE",
"435 -84 OFFCURVE",
"421 -88 OFFCURVE",
"368 -90 CURVE",
"345 -210 LINE"
);
}
);
width = 651;
}
);
leftKerningGroup = I;
rightKerningGroup = I;
unicode = 014A;
},
{
glyphname = O;
layers = (
{
layerId = "B420756C-160B-4E3B-8A8F-018354DD19AA";
paths = (
{
closed = 1;
nodes = (
"401 -9 OFFCURVE",
"459 15 OFFCURVE",
"507 55 CURVE SMOOTH",
"619 150 OFFCURVE",
"674 334 OFFCURVE",
"674 503 CURVE SMOOTH",
"674 645 OFFCURVE",
"604 709 OFFCURVE",
"463 709 CURVE SMOOTH",
"393 709 OFFCURVE",
"333 681 OFFCURVE",
"283 634 CURVE SMOOTH",
"179 537 OFFCURVE",
"122 360 OFFCURVE",
"122 197 CURVE SMOOTH",
"122 46 OFFCURVE",
"180 -9 OFFCURVE",
"333 -9 CURVE SMOOTH"
);
},
{
closed = 1;
nodes = (
"207 24 OFFCURVE",
"159 71 OFFCURVE",
"159 196 CURVE SMOOTH",
"159 344 OFFCURVE",
"218 546 OFFCURVE",
"336 633 CURVE SMOOTH",
"373 660 OFFCURVE",
"415 676 OFFCURVE",
"463 676 CURVE SMOOTH",
"582 676 OFFCURVE",
"636 622 OFFCURVE",
"636 504 CURVE SMOOTH",
"636 351 OFFCURVE",
"585 156 OFFCURVE",
"469 69 CURVE SMOOTH",
"431 41 OFFCURVE",
"386 24 OFFCURVE",
"333 24 CURVE SMOOTH {name = hr00;}"
);
}
);
width = 636;
},
{
layerId = "7271F2A9-EB19-499E-973E-7497F9144823";
paths = (
{
closed = 1;
nodes = (
"386 -12 OFFCURVE",
"456 8 OFFCURVE",
"505 46 CURVE SMOOTH",
"619 135 OFFCURVE",
"669 312 OFFCURVE",
"669 484 CURVE SMOOTH",
"669 631 OFFCURVE",
"583 692 OFFCURVE",
"448 692 CURVE SMOOTH",
"373 692 OFFCURVE",
"308 669 OFFCURVE",
"257 625 CURVE SMOOTH",
"151 533 OFFCURVE",
"101 362 OFFCURVE",
"101 196 CURVE SMOOTH",
"101 52 OFFCURVE",
"183 -12 OFFCURVE",
"315 -12 CURVE SMOOTH"
);
},
{
closed = 1;
nodes = (
"267 108 OFFCURVE",
"243 137 OFFCURVE",
"243 210 CURVE SMOOTH",
"243 310 OFFCURVE",
"280 472 OFFCURVE",
"351 542 CURVE SMOOTH",
"373 564 OFFCURVE",
"402 572 OFFCURVE",
"432 572 CURVE SMOOTH",
"503 572 OFFCURVE",
"527 543 OFFCURVE",
"527 470 CURVE SMOOTH",
"527 356 OFFCURVE",
"489 208 OFFCURVE",
"423 142 CURVE SMOOTH",
"400 119 OFFCURVE",
"370 108 OFFCURVE",
"339 108 CURVE SMOOTH {name = hr00;}"
);
}
);
width = 615;
}
);
leftKerningGroup = O;
rightKerningGroup = O;
unicode = 004F;
userData = {
"[MP] 15 07 2011\012Wt1 Sl1\012aggiunto due punti \012nelle curve S/E e N/W\012\012\012[MN] 280111\012Wt0 SI0:\012regolazione stems, altezza e over shooting.\012Wt1 SI1:\012regolazione stens,altezza, over shooting\012sistemazione manipolatori punti.\012Wt0: sistemazione stems,altezza. over s  com.typemytype.robofont.guides" = (
{
angle = 90;
isGlobal = 0;
magnetic = 5;
x = 115;
y = 0;
}
);
};
},
{
glyphname = Odieresis;
layers = (
{
components = (
{
name = O;
}
);
layerId = "B420756C-160B-4E3B-8A8F-018354DD19AA";
paths = (
{
closed = 1;
nodes = (
"438 833 LINE",
"453 898 LINE",
"419 898 LINE",
"404 833 LINE"
);
},
{
closed = 1;
nodes = (
"616 833 LINE",
"631 898 LINE",
"597 898 LINE",
"584 833 LINE"
);
}
);
width = 636;
},
{
components = (
{
name = O;
}
);
layerId = "7271F2A9-EB19-499E-973E-7497F9144823";
paths = (
{
closed = 1;
nodes = (
"645 781 LINE",
"677 916 LINE",
"556 916 LINE",
"525 781 LINE"
);
},
{
closed = 1;
nodes = (
"441 781 LINE",
"473 916 LINE",
"352 916 LINE",
"321 781 LINE"
);
}
);
width = 615;
}
);
leftKerningGroup = O;
rightKerningGroup = O;
unicode = 00D6;
},
{
glyphname = Oslash;
layers = (
{
components = (
{
name = O;
}
);
layerId = "B420756C-160B-4E3B-8A8F-018354DD19AA";
paths = (
{
closed = 1;
nodes = (
"409 332 LINE",
"712 777 LINE",
"682 791 LINE",
"380 348 LINE",
"79 -94 LINE",
"106 -110 LINE {name = hr00;}"
);
}
);
width = 636;
},
{
components = (
{
name = O;
}
);
layerId = "7271F2A9-EB19-499E-973E-7497F9144823";
paths = (
{
closed = 1;
nodes = (
"423 325 LINE",
"728 774 LINE",
"654 805 LINE",
"353 363 LINE",
"53 -81 LINE",
"119 -121 LINE {name = hr00;}"
);
}
);
width = 615;
}
);
leftKerningGroup = O;
rightKerningGroup = O;
unicode = 00D8;
},
{
glyphname = Oslashacute;
layers = (
{
components = (
{
name = O;
transform = "{1, 0, 0, 1, 1, 0}";
}
);
layerId = "B420756C-160B-4E3B-8A8F-018354DD19AA";
paths = (
{
closed = 1;
nodes = (
"410 332 LINE",
"713 777 LINE",
"683 791 LINE",
"381 348 LINE",
"80 -94 LINE",
"107 -110 LINE"
);
},
{
closed = 1;
nodes = (
"647 885 LINE",
"637 919 LINE",
"433 823 LINE",
"442 793 LINE"
);
}
);
width = 638;
},
{
components = (
{
name = O;
transform = "{1, 0, 0, 1, 1, 0}";
}
);
layerId = "7271F2A9-EB19-499E-973E-7497F9144823";
paths = (
{
closed = 1;
nodes = (
"424 325 LINE",
"729 774 LINE",
"655 805 LINE",
"354 363 LINE",
"54 -81 LINE",
"120 -121 LINE"
);
},
{
closed = 1;
nodes = (
"652 832 LINE",
"641 962 LINE",
"377 871 LINE",
"388 755 LINE"
);
}
);
width = 617;
}
);
leftKerningGroup = O;
rightKerningGroup = O;
unicode = 01FE;
},
{
glyphname = OE;
layers = (
{
layerId = "B420756C-160B-4E3B-8A8F-018354DD19AA";
paths = (
{
closed = 1;
nodes = (
"339 -9 OFFCURVE",
"407 -5 OFFCURVE",
"456 -1 CURVE",
"827 -1 LINE",
"837 38 LINE",
"499 38 LINE",
"571 343 LINE",
"852 341 LINE",
"859 379 LINE",
"578 379 LINE",
"647 662 LINE",
"985 662 LINE",
"992 700 LINE",
"620 700 LINE",
"600 702 OFFCURVE",
"485 709 OFFCURVE",
"474 709 CURVE SMOOTH",
"282 709 OFFCURVE",
"195 575 OFFCURVE",
"140 345 CURVE SMOOTH",
"124 277 OFFCURVE",
"115 220 OFFCURVE",
"115 171 CURVE SMOOTH",
"115 54 OFFCURVE",
"168 -9 OFFCURVE",
"305 -9 CURVE SMOOTH"
);
},
{
closed = 1;
nodes = (
"195 29 OFFCURVE",
"152 80 OFFCURVE",
"152 178 CURVE SMOOTH",
"152 225 OFFCURVE",
"161 280 OFFCURVE",
"177 347 CURVE SMOOTH",
"226 554 OFFCURVE",
"295 671 OFFCURVE",
"466 671 CURVE SMOOTH",
"515 671 OFFCURVE",
"585 667 OFFCURVE",
"611 664 CURVE",
"463 38 LINE",
"421 34 OFFCURVE",
"334 29 OFFCURVE",
"313 29 CURVE SMOOTH"
);
}
);
width = 876;
},
{
layerId = "7271F2A9-EB19-499E-973E-7497F9144823";
paths = (
{
closed = 1;
nodes = (
"313 -12 OFFCURVE",
"358 -6 OFFCURVE",
"395 0 CURVE",
"796 0 LINE",
"826 131 LINE",
"551 131 LINE",
"586 279 LINE",
"805 277 LINE",
"834 402 LINE",
"614 402 LINE",
"653 559 LINE",
"929 559 LINE",
"959 690 LINE",
"555 690 LINE",
"522 696 OFFCURVE",
"480 702 OFFCURVE",
"447 702 CURVE SMOOTH",
"285 702 OFFCURVE",
"176 595 OFFCURVE",
"117 345 CURVE SMOOTH",
"99 268 OFFCURVE",
"92 204 OFFCURVE",
"95 151 CURVE SMOOTH",
"102 45 OFFCURVE",
"159 -12 OFFCURVE",
"279 -12 CURVE SMOOTH"
);
},
{
closed = 1;
nodes = (
"260 120 OFFCURVE",
"232 148 OFFCURVE",
"232 215 CURVE SMOOTH",
"232 249 OFFCURVE",
"239 291 OFFCURVE",
"252 345 CURVE SMOOTH",
"292 514 OFFCURVE",
"345 570 OFFCURVE",
"433 570 CURVE SMOOTH",
"465 570 OFFCURVE",
"509 566 OFFCURVE",
"526 564 CURVE",
"421 126 LINE",
"388 123 OFFCURVE",
"349 120 OFFCURVE",
"328 120 CURVE SMOOTH"
);
}
);
width = 831;
}
);
leftKerningGroup = O;
rightKerningGroup = E;
unicode = 0152;
},
{
glyphname = P;
layers = (
{
layerId = "B420756C-160B-4E3B-8A8F-018354DD19AA";
paths = (
{
closed = 1;
nodes = (
"122 0 LINE",
"181 256 LINE {name = hr00;}",
"377 256 LINE SMOOTH",
"546 256 OFFCURVE",
"626 397 OFFCURVE",
"626 555 CURVE SMOOTH",
"626 649 OFFCURVE",
"583 700 OFFCURVE",
"481 700 CURVE",
"248 700 LINE",
"86 0 LINE"
);
},
{
closed = 1;
nodes = (
"276 666 LINE",
"473 666 LINE SMOOTH",
"556 666 OFFCURVE",
"588 628 OFFCURVE",
"588 555 CURVE SMOOTH",
"588 420 OFFCURVE",
"527 290 OFFCURVE",
"385 290 CURVE SMOOTH",
"189 290 LINE"
);
}
);
width = 547;
},
{
layerId = "7271F2A9-EB19-499E-973E-7497F9144823";
paths = (
{
closed = 1;
nodes = (
"203 0 LINE",
"248 196 LINE {name = hr00;}",
"333 196 LINE SMOOTH",
"512 196 OFFCURVE",
"628 293 OFFCURVE",
"628 488 CURVE SMOOTH",
"628 622 OFFCURVE",
"566 680 OFFCURVE",
"418 680 CURVE",
"222 680 LINE",
"65 0 LINE"
);
},
{
closed = 1;
nodes = (
"332 560 LINE",
"408 560 LINE SMOOTH",
"465 560 OFFCURVE",
"486 536 OFFCURVE",
"486 486 CURVE SMOOTH",
"486 377 OFFCURVE",
"435 316 OFFCURVE",
"351 316 CURVE SMOOTH",
"276 316 LINE"
);
}
);
width = 547;
}
);
leftKerningGroup = I;
unicode = 0050;
},
{
glyphname = Thorn;
layers = (
{
layerId = "B420756C-160B-4E3B-8A8F-018354DD19AA";
paths = (
{
closed = 1;
nodes = (
"121 0 LINE",
"152 134 LINE",
"353 134 LINE SMOOTH",
"490 134 OFFCURVE",
"568 234 OFFCURVE",
"597 367 CURVE SMOOTH",
"622 482 OFFCURVE",
"600 579 OFFCURVE",
"452 579 CURVE SMOOTH",
"257 579 LINE",
"285 700 LINE",
"249 700 LINE",
"85 0 LINE"
);
},
{
closed = 1;
nodes = (
"250 547 LINE",
"444 547 LINE",
"571 547 OFFCURVE",
"584 462 OFFCURVE",
"560 367 CURVE SMOOTH",
"532 257 OFFCURVE",
"475 166 OFFCURVE",
"361 166 CURVE {name = hr00;}",
"160 166 LINE"
);
}
);
width = 556;
},
{
layerId = "7271F2A9-EB19-499E-973E-7497F9144823";
paths = (
{
closed = 1;
nodes = (
"193 0 LINE",
"216 100 LINE",
"312 99 LINE SMOOTH",
"458 97 OFFCURVE",
"565 193 OFFCURVE",
"599 348 CURVE SMOOTH",
"628 483 OFFCURVE",
"564 593 OFFCURVE",
"428 593 CURVE SMOOTH",
"332 593 LINE",
"357 690 LINE",
"226 690 LINE",
"63 0 LINE"
);
},
{
closed = 1;
nodes = (
"301 459 LINE",
"397 457 LINE",
"466 455 OFFCURVE",
"481 404 OFFCURVE",
"467 348 CURVE SMOOTH",
"449 277 OFFCURVE",
"408 236 OFFCURVE",
"343 236 CURVE {name = hr00;}",
"248 236 LINE"
);
}
);
width = 538;
}
);
leftKerningGroup = I;
unicode = 00DE;
},
{
glyphname = Q;
layers = (
{
components = (
{
name = O;
}
);
layerId = "B420756C-160B-4E3B-8A8F-018354DD19AA";
paths = (
{
closed = 1;
nodes = (
"501 -128 LINE",
"451 27 LINE",
"417 16 LINE",
"467 -139 LINE"
);
}
);
width = 636;
},
{
components = (
{
name = O;
}
);
layerId = "7271F2A9-EB19-499E-973E-7497F9144823";
paths = (
{
closed = 1;
nodes = (
"519 -111 LINE",
"462 50 LINE",
"340 7 LINE",
"388 -154 LINE"
);
}
);
width = 615;
}
);
leftKerningGroup = O;
rightKerningGroup = O;
unicode = 0051;
},
{
glyphname = R;
layers = (
{
layerId = "B420756C-160B-4E3B-8A8F-018354DD19AA";
paths = (
{
closed = 1;
nodes = (
"122 0 LINE",
"189 288 LINE",
"400 288 LINE {name = hr00;}",
"488 0 LINE",
"524 0 LINE",
"435 292 LINE",
"512 306 OFFCURVE",
"629 375 OFFCURVE",
"629 551 CURVE SMOOTH",
"629 661 OFFCURVE",
"573 700 OFFCURVE",
"470 700 CURVE",
"248 700 LINE",
"86 0 LINE"
);
},
{
closed = 1;
nodes = (
"276 667 LINE",
"462 667 LINE SMOOTH",
"550 667 OFFCURVE",
"591 639 OFFCURVE",
"591 551 CURVE SMOOTH",
"591 412 OFFCURVE",
"508 321 OFFCURVE",
"383 321 CURVE",
"196 321 LINE"
);
}
);
width = 568;
},
{
layerId = "7271F2A9-EB19-499E-973E-7497F9144823";
paths = (
{
closed = 1;
nodes = (
"203 0 LINE",
"253 216 LINE",
"348 216 LINE {name = hr00;}",
"393 0 LINE",
"531 0 LINE",
"476 235 LINE",
"559 268 OFFCURVE",
"628 356 OFFCURVE",
"628 486 CURVE SMOOTH",
"628 625 OFFCURVE",
"559 680 OFFCURVE",
"418 680 CURVE",
"222 680 LINE",
"65 0 LINE"
);
},
{
closed = 1;
nodes = (
"333 562 LINE",
"410 562 LINE SMOOTH",
"467 562 OFFCURVE",
"486 537 OFFCURVE",
"486 480 CURVE SMOOTH",
"486 405 OFFCURVE",
"444 334 OFFCURVE",
"369 334 CURVE",
"280 334 LINE"
);
}
);
width = 559;
}
);
leftKerningGroup = I;
rightKerningGroup = R;
unicode = 0052;
},
{
glyphname = S;
layers = (
{
layerId = "B420756C-160B-4E3B-8A8F-018354DD19AA";
paths = (
{
closed = 1;
nodes = (
"404 -9 OFFCURVE",
"498 85 OFFCURVE",
"498 233 CURVE SMOOTH",
"498 324 OFFCURVE",
"448 350 OFFCURVE",
"354 378 CURVE SMOOTH",
"256 407 OFFCURVE",
"209 423 OFFCURVE",
"209 492 CURVE SMOOTH",
"209 617 OFFCURVE",
"290 676 OFFCURVE",
"415 676 CURVE SMOOTH",
"466 676 OFFCURVE",
"543 666 OFFCURVE",
"587 658 CURVE",
"593 688 LINE {name = hr00;}",
"554 697 OFFCURVE",
"480 709 OFFCURVE",
"422 709 CURVE SMOOTH",
"274 709 OFFCURVE",
"172 638 OFFCURVE",
"172 492 CURVE SMOOTH",
"172 399 OFFCURVE",
"235 374 OFFCURVE",
"339 345 CURVE SMOOTH",
"429 320 OFFCURVE",
"460 302 OFFCURVE",
"460 232 CURVE SMOOTH",
"460 107 OFFCURVE",
"387 24 OFFCURVE",
"262 24 CURVE SMOOTH",
"206 24 OFFCURVE",
"118 34 OFFCURVE",
"67 41 CURVE",
"60 8 LINE",
"106 1 OFFCURVE",
"192 -9 OFFCURVE",
"256 -9 CURVE SMOOTH"
);
}
);
width = 502;
},
{
layerId = "7271F2A9-EB19-499E-973E-7497F9144823";
paths = (
{
closed = 1;
nodes = (
"412 -12 OFFCURVE",
"515 69 OFFCURVE",
"515 223 CURVE SMOOTH",
"515 312 OFFCURVE",
"491 349 OFFCURVE",
"379 399 CURVE SMOOTH",
"297 436 OFFCURVE",
"286 448 OFFCURVE",
"286 485 CURVE SMOOTH",
"286 538 OFFCURVE",
"321 574 OFFCURVE",
"381 574 CURVE SMOOTH",
"432 574 OFFCURVE",
"514 564 OFFCURVE",
"561 556 CURVE",
"586 654 LINE {name = hr00;}",
"543 670 OFFCURVE",
"457 692 OFFCURVE",
"377 692 CURVE SMOOTH",
"234 692 OFFCURVE",
"146 595 OFFCURVE",
"146 469 CURVE SMOOTH",
"146 379 OFFCURVE",
"184 338 OFFCURVE",
"274 297 CURVE SMOOTH",
"362 257 OFFCURVE",
"375 245 OFFCURVE",
"375 207 CURVE SMOOTH",
"375 132 OFFCURVE",
"331 108 OFFCURVE",
"256 108 CURVE SMOOTH",
"205 108 OFFCURVE",
"122 119 OFFCURVE",
"73 128 CURVE",
"50 29 LINE",
"94 11 OFFCURVE",
"181 -12 OFFCURVE",
"258 -12 CURVE SMOOTH"
);
}
);
width = 495;
}
);
leftKerningGroup = S;
rightKerningGroup = S;
unicode = 0053;
},
{
glyphname = T;
layers = (
{
layerId = "B420756C-160B-4E3B-8A8F-018354DD19AA";
paths = (
{
closed = 1;
nodes = (
"255 0 LINE",
"409 667 LINE",
"618 667 LINE",
"626 700 LINE",
"172 700 LINE",
"164 667 LINE {name = hr00;}",
"373 667 LINE",
"219 0 LINE"
);
}
);
width = 477;
},
{
layerId = "7271F2A9-EB19-499E-973E-7497F9144823";
paths = (
{
closed = 1;
nodes = (
"296 0 LINE",
"425 560 LINE",
"576 560 LINE",
"604 680 LINE",
"166 680 LINE",
"138 560 LINE {name = hr00;}",
"287 560 LINE",
"158 0 LINE"
);
}
);
width = 456;
}
);
leftKerningGroup = T;
rightKerningGroup = T;
unicode = 0054;
},
{
glyphname = Tbar;
layers = (
{
components = (
{
name = T;
transform = "{1, 0, 0, 1, 2, 0}";
}
);
layerId = "B420756C-160B-4E3B-8A8F-018354DD19AA";
paths = (
{
closed = 1;
nodes = (
"503 327 LINE",
"514 363 LINE",
"134 363 LINE",
"125 327 LINE"
);
}
);
width = 482;
},
{
components = (
{
name = T;
transform = "{1, 0, 0, 1, 3, 0}";
}
);
layerId = "7271F2A9-EB19-499E-973E-7497F9144823";
paths = (
{
closed = 1;
nodes = (
"482 248 LINE",
"511 367 LINE",
"124 367 LINE",
"97 248 LINE"
);
}
);
width = 461;
}
);
leftKerningGroup = T;
rightKerningGroup = T;
unicode = 0166;
},
{
glyphname = U;
layers = (
{
layerId = "B420756C-160B-4E3B-8A8F-018354DD19AA";
paths = (
{
closed = 1;
nodes = (
"459 -9 OFFCURVE",
"526 64 OFFCURVE",
"557 197 CURVE SMOOTH",
"673 700 LINE",
"637 700 LINE",
"521 198 LINE",
"495 85 OFFCURVE",
"437 25 OFFCURVE",
"313 25 CURVE SMOOTH",
"216 25 OFFCURVE",
"155 57 OFFCURVE",
"155 130 CURVE SMOOTH",
"155 151 OFFCURVE",
"159.208 181.951 OFFCURVE",
"165 207 CURVE SMOOTH",
"279 700 LINE {name = hr00;}",
"243 700 LINE",
"129 207 LINE",
"123 183 OFFCURVE",
"119 149 OFFCURVE",
"119 129 CURVE SMOOTH",
"119 34 OFFCURVE",
"195 -9 OFFCURVE",
"311 -9 CURVE SMOOTH"
);
}
);
width = 593;
},
{
layerId = "7271F2A9-EB19-499E-973E-7497F9144823";
paths = (
{
closed = 1;
nodes = (
"470 -12 OFFCURVE",
"550 61 OFFCURVE",
"589 231 CURVE SMOOTH",
"693 680 LINE",
"555 680 LINE",
"451 231 LINE",
"432 147 OFFCURVE",
"409 108 OFFCURVE",
"322 108 CURVE SMOOTH",
"272 108 OFFCURVE",
"240 118 OFFCURVE",
"240 165 CURVE SMOOTH",
"240 189 OFFCURVE",
"244.129 209.97 OFFCURVE",
"249 231 CURVE SMOOTH",
"353 680 LINE {name = hr00;}",
"215 680 LINE",
"116 253 LINE",
"109 221 OFFCURVE",
"103 178 OFFCURVE",
"103 142 CURVE SMOOTH",
"103 36 OFFCURVE",
"186 -12 OFFCURVE",
"310 -12 CURVE SMOOTH"
);
}
);
width = 595;
}
);
leftKerningGroup = U;
rightKerningGroup = U;
unicode = 0055;
userData = {
"[MP] 18 07 2011\012Wt0 Sl1\012rettifica spessore aste vert.\012\012[MN] 210211 \012Wt0 Sl0: corr. stems, manipolatori e overshooting. \012Wt1 Sl0: corr. stems, overshooting, manipolatori, controllo altezza.\012Wt0 Sl1: corr. stems,manipolatori,  ang. inclinazione.\012Wt1 Sl: corr.stems,manipolatori,overshooting, ang. inclinazione.  com.typemytype.robofont.guides" = (
{
angle = 0;
isGlobal = 0;
magnetic = 5;
x = 0;
y = 680;
},
{
angle = 90;
isGlobal = 0;
magnetic = 5;
x = -20;
y = 0;
}
);
};
},
{
glyphname = Udieresis;
layers = (
{
components = (
{
name = U;
}
);
layerId = "B420756C-160B-4E3B-8A8F-018354DD19AA";
paths = (
{
closed = 1;
nodes = (
"405 833 LINE",
"420 898 LINE",
"386 898 LINE",
"371 833 LINE"
);
},
{
closed = 1;
nodes = (
"583 833 LINE",
"598 898 LINE",
"564 898 LINE",
"551 833 LINE"
);
}
);
width = 593;
},
{
components = (
{
name = U;
}
);
layerId = "7271F2A9-EB19-499E-973E-7497F9144823";
paths = (
{
closed = 1;
nodes = (
"629 781 LINE",
"661 916 LINE",
"540 916 LINE",
"509 781 LINE"
);
},
{
closed = 1;
nodes = (
"425 781 LINE",
"457 916 LINE",
"336 916 LINE",
"305 781 LINE"
);
}
);
width = 595;
}
);
leftKerningGroup = U;
rightKerningGroup = U;
unicode = 00DC;
},
{
glyphname = V;
layers = (
{
layerId = "B420756C-160B-4E3B-8A8F-018354DD19AA";
paths = (
{
closed = 1;
nodes = (
"320 0 LINE",
"664 700 LINE {name = hr00;}",
"628 700 LINE",
"299 33 LINE",
"245 33 LINE",
"225 700 LINE",
"189 700 LINE",
"212 0 LINE"
);
}
);
width = 538;
},
{
layerId = "7271F2A9-EB19-499E-973E-7497F9144823";
paths = (
{
closed = 1;
nodes = (
"391 0 LINE",
"699 680 LINE {name = hr00;}",
"561 680 LINE",
"317 120 LINE",
"284 120 LINE",
"308 680 LINE",
"170 680 LINE",
"156 0 LINE"
);
}
);
width = 555;
}
);
unicode = 0056;
},
{
glyphname = W;
layers = (
{
layerId = "B420756C-160B-4E3B-8A8F-018354DD19AA";
paths = (
{
closed = 1;
nodes = (
"262 0 LINE",
"544 621 LINE",
"534 0 LINE",
"623 0 LINE",
"925 700 LINE",
"889 700 LINE",
"601 33 LINE",
"568 33 LINE",
"577 690 LINE",
"539 690 LINE",
"241 33 LINE",
"206 33 LINE",
"231 700 LINE",
"195 700 LINE {name = hr00;}",
"171 0 LINE"
);
}
);
width = 805;
},
{
layerId = "7271F2A9-EB19-499E-973E-7497F9144823";
paths = (
{
closed = 1;
nodes = (
"349 0 LINE",
"547 494 LINE",
"514 0 LINE",
"714 0 LINE",
"1005 680 LINE",
"867 680 LINE",
"643 127 LINE",
"629 127 LINE",
"662 670 LINE",
"510 670 LINE",
"284 127 LINE",
"270 127 LINE",
"312 680 LINE",
"174 680 LINE {name = hr00;}",
"143 0 LINE"
);
}
);
width = 865;
}
);
leftKerningGroup = W;
rightKerningGroup = W;
unicode = 0057;
userData = {
"[MP] 18 07 2011\012Wt0 Sl1\012rettifica spessori aste\012\012\012[LA] thin restringimento\012[LA] bold restringimento\012\01227.03.11  com.typemytype.robofont.guides" = (
{
angle = 0;
isGlobal = 0;
magnetic = 5;
x = 0;
y = 33;
}
);
};
},
{
glyphname = X;
layers = (
{
layerId = "B420756C-160B-4E3B-8A8F-018354DD19AA";
paths = (
{
closed = 1;
nodes = (
"64 0 LINE",
"330 316 LINE",
"446 0 LINE",
"482 0 LINE",
"357 344 LINE",
"651 700 LINE",
"607 700 LINE",
"343 379 LINE",
"227 700 LINE {name = hr00;}",
"191 700 LINE",
"315 350 LINE",
"20 0 LINE"
);
}
);
width = 509;
},
{
layerId = "7271F2A9-EB19-499E-973E-7497F9144823";
paths = (
{
closed = 1;
nodes = (
"146 0 LINE",
"315 243 LINE",
"370 0 LINE",
"515 0 LINE",
"421 342 LINE",
"671 680 LINE",
"526 680 LINE",
"362 441 LINE",
"313 680 LINE {name = hr00;}",
"167 680 LINE",
"257 343 LINE",
"1 0 LINE"
);
}
);
width = 520;
}
);
unicode = 0058;
},
{
glyphname = Y;
layers = (
{
layerId = "B420756C-160B-4E3B-8A8F-018354DD19AA";
paths = (
{
closed = 1;
nodes = (
"256 0 LINE",
"326 301 LINE",
"627 700 LINE {name = hr00;}",
"587 700 LINE",
"317 339 LINE",
"214 700 LINE",
"178 700 LINE",
"291 308 LINE",
"220 0 LINE"
);
}
);
width = 485;
},
{
layerId = "7271F2A9-EB19-499E-973E-7497F9144823";
paths = (
{
closed = 1;
nodes = (
"313 0 LINE",
"381 288 LINE",
"661 680 LINE {name = hr00;}",
"515 680 LINE",
"346 415 LINE",
"298 680 LINE",
"158 680 LINE",
"253 294 LINE",
"185 0 LINE"
);
}
);
width = 504;
}
);
leftKerningGroup = Y;
rightKerningGroup = Y;
unicode = 0059;
},
{
glyphname = Z;
layers = (
{
layerId = "B420756C-160B-4E3B-8A8F-018354DD19AA";
paths = (
{
closed = 1;
nodes = (
"454 0 LINE",
"462 33 LINE",
"83 33 LINE",
"89 58 LINE",
"601 622 LINE",
"619 700 LINE",
"204 700 LINE",
"196 667 LINE {name = hr00;}",
"575 667 LINE",
"568 638 LINE",
"56 74 LINE",
"39 0 LINE"
);
}
);
width = 498;
},
{
layerId = "7271F2A9-EB19-499E-973E-7497F9144823";
paths = (
{
closed = 1;
nodes = (
"454 0 LINE",
"482 120 LINE",
"220 120 LINE",
"226 144 LINE",
"579 541 LINE",
"611 680 LINE",
"193 680 LINE",
"165 560 LINE {name = hr00;}",
"423 560 LINE",
"418 536 LINE",
"67 137 LINE",
"36 0 LINE"
);
}
);
width = 490;
}
);
leftKerningGroup = Z;
rightKerningGroup = Z;
unicode = 005A;
},
{
glyphname = a;
layers = (
{
layerId = "B420756C-160B-4E3B-8A8F-018354DD19AA";
paths = (
{
closed = 1;
nodes = (
"283 -9 OFFCURVE",
"363 68 OFFCURVE",
"404 126 CURVE",
"400 109 OFFCURVE",
"389 44 OFFCURVE",
"382 -1 CURVE",
"415 1 LINE",
"421 43 OFFCURVE",
"433 116 OFFCURVE",
"444 163 CURVE SMOOTH",
"520 489 LINE",
"469 498 OFFCURVE",
"387 509 OFFCURVE",
"345 509 CURVE SMOOTH",
"185 509 OFFCURVE",
"95 287 OFFCURVE",
"95 118 CURVE SMOOTH",
"95 35 OFFCURVE",
"134 -9 OFFCURVE",
"215 -9 CURVE SMOOTH {name = hr00;}"
);
},
{
closed = 1;
nodes = (
"156 24 OFFCURVE",
"132 58 OFFCURVE",
"132 118 CURVE SMOOTH",
"132 265 OFFCURVE",
"205 477 OFFCURVE",
"345 477 CURVE SMOOTH",
"390 477 OFFCURVE",
"448 468 OFFCURVE",
"479 462 CURVE",
"414 182 LINE",
"365 114 OFFCURVE",
"279 24 OFFCURVE",
"222 24 CURVE SMOOTH"
);
}
);
width = 482;
},
{
layerId = "7271F2A9-EB19-499E-973E-7497F9144823";
paths = (
{
closed = 1;
nodes = (
"277 -12 OFFCURVE",
"334 38 OFFCURVE",
"362 76 CURVE",
"359 64 OFFCURVE",
"353 24 OFFCURVE",
"349 -2 CURVE",
"482 3 LINE",
"488 42 OFFCURVE",
"499 111 OFFCURVE",
"509 156 CURVE SMOOTH",
"584 479 LINE",
"508 493 OFFCURVE",
"387 512 OFFCURVE",
"334 512 CURVE SMOOTH",
"152 512 OFFCURVE",
"80 306 OFFCURVE",
"80 170 CURVE SMOOTH",
"80 66 OFFCURVE",
"119 -12 OFFCURVE",
"221 -12 CURVE SMOOTH {name = hr00;}"
);
},
{
closed = 1;
nodes = (
"226 102 OFFCURVE",
"216 127 OFFCURVE",
"216 170 CURVE SMOOTH",
"216 261 OFFCURVE",
"257 398 OFFCURVE",
"338 398 CURVE SMOOTH",
"357 398 OFFCURVE",
"402 390 OFFCURVE",
"430 384 CURVE",
"384 191 LINE",
"351 153 OFFCURVE",
"297 102 OFFCURVE",
"267 102 CURVE SMOOTH"
);
}
);
width = 528;
}
);
leftKerningGroup = a;
rightKerningGroup = a;
unicode = 0061;
userData = {
"-(D) ristretto\012-(D) contrasto 3  com.typemytype.robofont.guides" = (
{
angle = 90;
isGlobal = 0;
magnetic = 5;
x = 411;
y = 0;
}
);
};
},
{
glyphname = acircumflex;
layers = (
{
components = (
{
name = a;
}
);
layerId = "B420756C-160B-4E3B-8A8F-018354DD19AA";
paths = (
{
closed = 1;
nodes = (
"303 595 LINE",
"413 696 LINE",
"477 595 LINE",
"515 595 LINE",
"428 730 LINE",
"406 730 LINE",
"260 595 LINE"
);
}
);
width = 482;
},
{
components = (
{
name = a;
}
);
layerId = "7271F2A9-EB19-499E-973E-7497F9144823";
paths = (
{
closed = 1;
nodes = (
"352 575 LINE",
"410 639 LINE",
"434 575 LINE",
"566 575 LINE",
"480 750 LINE",
"380 750 LINE",
"212 575 LINE"
);
}
);
width = 528;
}
);
leftKerningGroup = a;
rightKerningGroup = a;
unicode = 00E2;
},
{
glyphname = adieresis;
layers = (
{
components = (
{
name = a;
}
);
layerId = "B420756C-160B-4E3B-8A8F-018354DD19AA";
paths = (
{
closed = 1;
nodes = (
"316 633 LINE",
"331 698 LINE",
"297 698 LINE",
"282 633 LINE"
);
},
{
closed = 1;
nodes = (
"494 633 LINE",
"509 698 LINE",
"475 698 LINE",
"462 633 LINE"
);
}
);
width = 482;
},
{
components = (
{
name = a;
}
);
layerId = "7271F2A9-EB19-499E-973E-7497F9144823";
paths = (
{
closed = 1;
nodes = (
"566 601 LINE",
"598 736 LINE",
"477 736 LINE",
"446 601 LINE"
);
},
{
closed = 1;
nodes = (
"362 601 LINE",
"394 736 LINE",
"273 736 LINE",
"242 601 LINE"
);
}
);
width = 528;
}
);
leftKerningGroup = a;
rightKerningGroup = a;
unicode = 00E4;
},
{
glyphname = aringacute;
layers = (
{
components = (
{
name = a;
},
{
name = ring;
transform = "{1, 0, 0, 1, -19, 0}";
}
);
layerId = "B420756C-160B-4E3B-8A8F-018354DD19AA";
paths = (
{
closed = 1;
nodes = (
"536 865 LINE",
"529 900 LINE",
"326 805 LINE",
"332 775 LINE {name = hr00;}"
);
}
);
width = 482;
},
{
components = (
{
name = a;
},
{
name = ring;
transform = "{1, 0, 0, 1, 23, 0}";
}
);
layerId = "7271F2A9-EB19-499E-973E-7497F9144823";
paths = (
{
closed = 1;
nodes = (
"629 836 LINE",
"618 966 LINE",
"354 875 LINE",
"365 758 LINE {name = hr00;}"
);
}
);
width = 528;
}
);
leftKerningGroup = a;
rightKerningGroup = a;
unicode = 01FB;
},
{
glyphname = ae;
layers = (
{
layerId = "B420756C-160B-4E3B-8A8F-018354DD19AA";
paths = (
{
closed = 1;
nodes = (
"233 -9 OFFCURVE",
"342 23 OFFCURVE",
"408 49 CURVE",
"426 13 OFFCURVE",
"464 -9 OFFCURVE",
"529 -9 CURVE SMOOTH",
"579 -9 OFFCURVE",
"659 -4 OFFCURVE",
"705 0 CURVE",
"712 36 LINE",
"666 32 OFFCURVE",
"587 27 OFFCURVE",
"537 27 CURVE SMOOTH",
"459 27 OFFCURVE",
"433 65 OFFCURVE",
"433 132 CURVE SMOOTH",
"433 161 OFFCURVE",
"439 196 OFFCURVE",
"448 236 CURVE",
"778 234 LINE",
"787 269 LINE",
"797 307 OFFCURVE",
"801 340 OFFCURVE",
"801 373 CURVE SMOOTH",
"801 469 OFFCURVE",
"752 509 OFFCURVE",
"664 509 CURVE SMOOTH",
"588 509 OFFCURVE",
"522 480 OFFCURVE",
"477 414 CURVE",
"475 475 OFFCURVE",
"430 509 OFFCURVE",
"370 509 CURVE SMOOTH",
"315 509 OFFCURVE",
"235 503 OFFCURVE",
"189 499 CURVE",
"183 462 LINE",
"230 466 OFFCURVE",
"312 471 OFFCURVE",
"362 471 CURVE SMOOTH",
"475 471 OFFCURVE",
"439 357 OFFCURVE",
"421 301 CURVE",
"370 297 OFFCURVE",
"317 291 OFFCURVE",
"261 283 CURVE SMOOTH",
"162 269 OFFCURVE",
"91 237 OFFCURVE",
"73 138 CURVE SMOOTH",
"59 62 OFFCURVE",
"75 -9 OFFCURVE",
"164 -9 CURVE SMOOTH"
);
},
{
closed = 1;
nodes = (
"107 27 OFFCURVE",
"102 90 OFFCURVE",
"114 138 CURVE SMOOTH",
"131 204 OFFCURVE",
"173 233 OFFCURVE",
"239 244 CURVE SMOOTH",
"286 252 OFFCURVE",
"341 258 OFFCURVE",
"416 266 CURVE",
"402 202 OFFCURVE",
"386 142 OFFCURVE",
"399 81 CURVE",
"342 60 OFFCURVE",
"236 27 OFFCURVE",
"173 27 CURVE SMOOTH"
);
},
{
closed = 1;
nodes = (
"455 270 LINE",
"490 418 OFFCURVE",
"560 473 OFFCURVE",
"656 473 CURVE SMOOTH",
"728 473 OFFCURVE",
"765 443 OFFCURVE",
"765 368 CURVE SMOOTH",
"765 340 OFFCURVE",
"760 308 OFFCURVE",
"749 268 CURVE"
);
}
);
width = 772;
},
{
layerId = "7271F2A9-EB19-499E-973E-7497F9144823";
paths = (
{
closed = 1;
nodes = (
"216 -12 OFFCURVE",
"314 21 OFFCURVE",
"344 37 CURVE",
"370 3 OFFCURVE",
"420 -12 OFFCURVE",
"483 -12 CURVE SMOOTH",
"553 -12 OFFCURVE",
"631 4 OFFCURVE",
"670 16 CURVE",
"693 118 LINE",
"649 114 OFFCURVE",
"571 109 OFFCURVE",
"521 109 CURVE SMOOTH",
"477 109 OFFCURVE",
"458 127 OFFCURVE",
"453 153 CURVE SMOOTH",
"451 165 OFFCURVE",
"452 180 OFFCURVE",
"455 194 CURVE",
"724 192 LINE",
"747 277 LINE",
"756 309 OFFCURVE",
"762 346 OFFCURVE",
"760 378 CURVE SMOOTH",
"755 460 OFFCURVE",
"706 511 OFFCURVE",
"606 511 CURVE SMOOTH",
"555 511 OFFCURVE",
"510 497 OFFCURVE",
"473 470 CURVE",
"451 500 OFFCURVE",
"409 511 OFFCURVE",
"359 511 CURVE SMOOTH",
"309 511 OFFCURVE",
"218 498 OFFCURVE",
"163 489 CURVE",
"142 372 LINE",
"190 378 OFFCURVE",
"273 386 OFFCURVE",
"324 386 CURVE SMOOTH",
"362 386 OFFCURVE",
"358 337 OFFCURVE",
"349 312 CURVE",
"302 313 OFFCURVE",
"255 310 OFFCURVE",
"210 302 CURVE SMOOTH",
"139 289 OFFCURVE",
"79 249 OFFCURVE",
"57 153 CURVE",
"37 72 OFFCURVE",
"82 -12 OFFCURVE",
"168 -12 CURVE SMOOTH"
);
},
{
closed = 1;
nodes = (
"186 103 OFFCURVE",
"180 135 OFFCURVE",
"185 157 CURVE SMOOTH",
"192 187 OFFCURVE",
"218 206 OFFCURVE",
"247 208 CURVE SMOOTH",
"274 210 OFFCURVE",
"308 212 OFFCURVE",
"326 212 CURVE",
"317 179 OFFCURVE",
"312 146 OFFCURVE",
"316 116 CURVE",
"283 108 OFFCURVE",
"241 103 OFFCURVE",
"215 103 CURVE SMOOTH"
);
},
{
closed = 1;
nodes = (
"478 296 LINE",
"493 355 OFFCURVE",
"516 396 OFFCURVE",
"576 396 CURVE SMOOTH",
"611 396 OFFCURVE",
"628 381 OFFCURVE",
"633 358 CURVE SMOOTH",
"636 341 OFFCURVE",
"634 318 OFFCURVE",
"628 294 CURVE"
);
}
);
width = 714;
}
);
leftKerningGroup = a;
rightKerningGroup = e;
unicode = 00E6;
},
{
glyphname = b;
layers = (
{
layerId = "B420756C-160B-4E3B-8A8F-018354DD19AA";
paths = (
{
closed = 1;
nodes = (
"440 -9 OFFCURVE",
"501 266 OFFCURVE",
"501 363 CURVE SMOOTH",
"501 451 OFFCURVE",
"480 509 OFFCURVE",
"378 509 CURVE SMOOTH {name = hr00;}",
"313 509 OFFCURVE",
"241 456 OFFCURVE",
"204 416 CURVE",
"277 730 LINE",
"242 730 LINE",
"76 11 LINE",
"123 2 OFFCURVE",
"203 -9 OFFCURVE",
"250 -9 CURVE SMOOTH"
);
},
{
closed = 1;
nodes = (
"215 23 OFFCURVE",
"154 32 OFFCURVE",
"117 38 CURVE",
"193 367 LINE",
"236 414 OFFCURVE",
"313 476 OFFCURVE",
"368 476 CURVE SMOOTH",
"453 476 OFFCURVE",
"464 430 OFFCURVE",
"464 363 CURVE SMOOTH",
"464 290 OFFCURVE",
"413 23 OFFCURVE",
"249 23 CURVE SMOOTH"
);
}
);
width = 481;
},
{
layerId = "7271F2A9-EB19-499E-973E-7497F9144823";
paths = (
{
closed = 1;
nodes = (
"466 -11 OFFCURVE",
"562 145 OFFCURVE",
"562 349 CURVE SMOOTH",
"562 430 OFFCURVE",
"529 512 OFFCURVE",
"412 512 CURVE SMOOTH {name = hr00;}",
"368 512 OFFCURVE",
"318 483 OFFCURVE",
"293 461 CURVE",
"348 700 LINE",
"214 700 LINE",
"58 22 LINE",
"116 8 OFFCURVE",
"223 -11 OFFCURVE",
"302 -11 CURVE SMOOTH"
);
},
{
closed = 1;
nodes = (
"269 103 OFFCURVE",
"232 109 OFFCURVE",
"213 113 CURVE",
"267 348 LINE",
"293 370 OFFCURVE",
"340 398 OFFCURVE",
"372 398 CURVE SMOOTH",
"417 398 OFFCURVE",
"425 364 OFFCURVE",
"425 335 CURVE SMOOTH",
"425 259 OFFCURVE",
"392 103 OFFCURVE",
"300 103 CURVE SMOOTH"
);
}
);
width = 527;
}
);
leftKerningGroup = b;
rightKerningGroup = b;
unicode = 0062;
},
{
glyphname = c;
layers = (
{
layerId = "B420756C-160B-4E3B-8A8F-018354DD19AA";
paths = (
{
closed = 1;
nodes = (
"290 -9 OFFCURVE",
"343 2 OFFCURVE",
"372 10 CURVE",
"372 42 LINE",
"338 34 OFFCURVE",
"284 23 OFFCURVE",
"257 23 CURVE SMOOTH",
"169 23 OFFCURVE",
"136 62 OFFCURVE",
"136 132 CURVE SMOOTH",
"136 304 OFFCURVE",
"206 477 OFFCURVE",
"363 477 CURVE SMOOTH",
"394 477 OFFCURVE",
"438 471 OFFCURVE",
"463 467 CURVE",
"472 498 LINE",
"446 503 OFFCURVE",
"399 509 OFFCURVE",
"363 509 CURVE SMOOTH {name = hr00;}",
"182 509 OFFCURVE",
"99 319 OFFCURVE",
"99 129 CURVE SMOOTH",
"99 41 OFFCURVE",
"143 -9 OFFCURVE",
"249 -9 CURVE SMOOTH"
);
}
);
width = 403;
},
{
layerId = "7271F2A9-EB19-499E-973E-7497F9144823";
paths = (
{
closed = 1;
nodes = (
"298 -12 OFFCURVE",
"359 2 OFFCURVE",
"390 13 CURVE",
"401 112 LINE",
"373 109 OFFCURVE",
"325 104 OFFCURVE",
"294 104 CURVE SMOOTH",
"239 104 OFFCURVE",
"218 135 OFFCURVE",
"218 191 CURVE SMOOTH",
"218 285 OFFCURVE",
"255 396 OFFCURVE",
"337 396 CURVE SMOOTH",
"369 396 OFFCURVE",
"425 389 OFFCURVE",
"458 383 CURVE",
"492 481 LINE",
"458 494 OFFCURVE",
"394 512 OFFCURVE",
"343 512 CURVE SMOOTH {name = hr00;}",
"168 512 OFFCURVE",
"82 356 OFFCURVE",
"82 162 CURVE SMOOTH",
"82 50 OFFCURVE",
"149 -12 OFFCURVE",
"245 -12 CURVE SMOOTH"
);
}
);
width = 409;
}
);
leftKerningGroup = o;
rightKerningGroup = c;
unicode = 0063;
},
{
glyphname = d;
layers = (
{
layerId = "B420756C-160B-4E3B-8A8F-018354DD19AA";
paths = (
{
closed = 1;
nodes = (
"282 -9 OFFCURVE",
"360 61 OFFCURVE",
"399 114 CURVE",
"373 0 LINE",
"407 0 LINE",
"576 730 LINE {name = hr00;}",
"541 730 LINE",
"486 493 LINE",
"455 500 OFFCURVE",
"394 509 OFFCURVE",
"343 509 CURVE SMOOTH",
"187 509 OFFCURVE",
"95 290 OFFCURVE",
"95 117 CURVE SMOOTH",
"95 30 OFFCURVE",
"135 -9 OFFCURVE",
"209 -9 CURVE SMOOTH"
);
},
{
closed = 1;
nodes = (
"160 23 OFFCURVE",
"132 55 OFFCURVE",
"132 117 CURVE SMOOTH",
"132 264 OFFCURVE",
"206 477 OFFCURVE",
"343 477 CURVE SMOOTH",
"391 477 OFFCURVE",
"449 468 OFFCURVE",
"479 462 CURVE",
"412 172 LINE",
"366 108 OFFCURVE",
"283 23 OFFCURVE",
"219 23 CURVE SMOOTH"
);
}
);
width = 481;
},
{
layerId = "7271F2A9-EB19-499E-973E-7497F9144823";
paths = (
{
closed = 1;
nodes = (
"277 -12 OFFCURVE",
"328 24 OFFCURVE",
"352 52 CURVE",
"343 0 LINE",
"473 0 LINE",
"635 700 LINE {name = hr00;}",
"501 700 LINE",
"452 490 LINE",
"418 499 OFFCURVE",
"363 511 OFFCURVE",
"332 511 CURVE SMOOTH",
"166 511 OFFCURVE",
"80 327 OFFCURVE",
"80 165 CURVE SMOOTH",
"80 53 OFFCURVE",
"128 -12 OFFCURVE",
"224 -12 CURVE SMOOTH"
);
},
{
closed = 1;
nodes = (
"231 102 OFFCURVE",
"216 130 OFFCURVE",
"216 166 CURVE SMOOTH",
"216 257 OFFCURVE",
"257 397 OFFCURVE",
"332 397 CURVE SMOOTH",
"360 397 OFFCURVE",
"403 389 OFFCURVE",
"428 383 CURVE",
"380 174 LINE",
"347 143 OFFCURVE",
"294 102 OFFCURVE",
"267 102 CURVE SMOOTH"
);
}
);
width = 528;
}
);
leftKerningGroup = a;
rightKerningGroup = d;
unicode = 0064;
},
{
glyphname = eth;
layers = (
{
layerId = "B420756C-160B-4E3B-8A8F-018354DD19AA";
paths = (
{
closed = 1;
nodes = (
"376 -9 OFFCURVE",
"475 92 OFFCURVE",
"538 360 CURVE SMOOTH",
"579 538 OFFCURVE",
"491 667 OFFCURVE",
"289 736 CURVE {name = hr00;}",
"270 702 LINE",
"423 650 OFFCURVE",
"535 556 OFFCURVE",
"506 382 CURVE",
"466 401 OFFCURVE",
"392 426 OFFCURVE",
"338 426 CURVE SMOOTH",
"206 426 OFFCURVE",
"83 316 OFFCURVE",
"83 135 CURVE SMOOTH",
"83 60 OFFCURVE",
"125 -9 OFFCURVE",
"247 -9 CURVE SMOOTH"
);
},
{
closed = 1;
nodes = (
"164 29 OFFCURVE",
"123 75 OFFCURVE",
"123 139 CURVE SMOOTH",
"123 280 OFFCURVE",
"215 388 OFFCURVE",
"332 388 CURVE SMOOTH",
"399 388 OFFCURVE",
"493 346 OFFCURVE",
"498 343 CURVE",
"452 163 OFFCURVE",
"381 29 OFFCURVE",
"255 29 CURVE SMOOTH"
);
},
{
closed = 1;
nodes = (
"545 713 LINE",
"529 742 LINE",
"266 582 LINE",
"282 554 LINE"
);
}
);
width = 510;
},
{
layerId = "7271F2A9-EB19-499E-973E-7497F9144823";
paths = (
{
closed = 1;
nodes = (
"433 -9 OFFCURVE",
"516 112 OFFCURVE",
"575 353 CURVE SMOOTH",
"629 570 OFFCURVE",
"519 687 OFFCURVE",
"253 698 CURVE {name = hr00;}",
"209 582 LINE",
"306 568 OFFCURVE",
"478 556 OFFCURVE",
"453 416 CURVE",
"432 425 OFFCURVE",
"386 438 OFFCURVE",
"339 438 CURVE SMOOTH",
"206 438 OFFCURVE",
"114 345 OFFCURVE",
"81 221 CURVE SMOOTH",
"49 102 OFFCURVE",
"105 -9 OFFCURVE",
"249 -9 CURVE SMOOTH"
);
},
{
closed = 1;
nodes = (
"208 118 OFFCURVE",
"201 160 OFFCURVE",
"218 222 CURVE SMOOTH",
"233 277 OFFCURVE",
"271 318 OFFCURVE",
"320 318 CURVE SMOOTH",
"385 318 OFFCURVE",
"425 297 OFFCURVE",
"427 296 CURVE",
"396 173 OFFCURVE",
"346 118 OFFCURVE",
"279 118 CURVE SMOOTH"
);
},
{
closed = 1;
nodes = (
"558 667 LINE",
"515 739 LINE",
"228 542 LINE",
"274 470 LINE"
);
}
);
width = 527;
}
);
unicode = 00F0;
userData = {
"- fatto thin\012- fatto bold\012- aggiunti hint  com.typemytype.robofont.guides" = (
{
angle = 90;
isGlobal = 0;
magnetic = 5;
x = 487;
y = 0;
},
{
angle = 90;
isGlobal = 0;
magnetic = 5;
x = 457;
y = 0;
}
);
};
},
{
glyphname = dcaron;
layers = (
{
components = (
{
name = d;
}
);
layerId = "B420756C-160B-4E3B-8A8F-018354DD19AA";
paths = (
{
closed = 1;
nodes = (
"615 480 LINE",
"666 700 LINE {name = hr00;}",
"634 700 LINE",
"583 480 LINE"
);
}
);
width = 494;
},
{
components = (
{
name = d;
}
);
layerId = "7271F2A9-EB19-499E-973E-7497F9144823";
paths = (
{
closed = 1;
nodes = (
"744 429 LINE",
"804 680 LINE {name = hr00;}",
"682 680 LINE",
"621 429 LINE"
);
}
);
width = 637;
}
);
leftKerningGroup = a;
rightKerningGroup = lcaron;
unicode = 010F;
},
{
glyphname = dcroat;
layers = (
{
components = (
{
name = d;
}
);
layerId = "B420756C-160B-4E3B-8A8F-018354DD19AA";
paths = (
{
closed = 1;
nodes = (
"606 617 LINE",
"615 653 LINE",
"362 653 LINE",
"354 617 LINE"
);
}
);
width = 481;
},
{
components = (
{
name = d;
}
);
layerId = "7271F2A9-EB19-499E-973E-7497F9144823";
paths = (
{
closed = 1;
nodes = (
"653 547 LINE",
"681 666 LINE",
"372 666 LINE",
"345 547 LINE"
);
}
);
width = 528;
}
);
leftKerningGroup = a;
rightKerningGroup = d;
unicode = 0111;
},
{
glyphname = e;
layers = (
{
layerId = "B420756C-160B-4E3B-8A8F-018354DD19AA";
paths = (
{
closed = 1;
nodes = (
"300 -9 OFFCURVE",
"372 8 OFFCURVE",
"409 21 CURVE",
"409 54 LINE",
"372 42 OFFCURVE",
"301 25 OFFCURVE",
"245 25 CURVE SMOOTH {name = hr00;}",
"177 25 OFFCURVE",
"134 65 OFFCURVE",
"134 138 CURVE SMOOTH",
"134 168 OFFCURVE",
"140 214 OFFCURVE",
"149 250 CURVE",
"212 250 LINE",
"396 250 OFFCURVE",
"494 288 OFFCURVE",
"494 406 CURVE SMOOTH",
"494 478 OFFCURVE",
"442 509 OFFCURVE",
"364 509 CURVE SMOOTH",
"181 509 OFFCURVE",
"97 298 OFFCURVE",
"97 131 CURVE SMOOTH",
"97 39 OFFCURVE",
"154 -9 OFFCURVE",
"237 -9 CURVE SMOOTH"
);
},
{
closed = 1;
nodes = (
"191 394 OFFCURVE",
"251 477 OFFCURVE",
"363 477 CURVE SMOOTH",
"424 477 OFFCURVE",
"458 457 OFFCURVE",
"458 405 CURVE SMOOTH",
"458 307 OFFCURVE",
"376 282 OFFCURVE",
"221 282 CURVE SMOOTH",
"156 282 LINE"
);
}
);
width = 452;
},
{
layerId = "7271F2A9-EB19-499E-973E-7497F9144823";
paths = (
{
closed = 1;
nodes = (
"320 -12 OFFCURVE",
"399 4 OFFCURVE",
"439 16 CURVE",
"454 115 LINE",
"412 109 OFFCURVE",
"338 102 OFFCURVE",
"288 102 CURVE SMOOTH {name = hr00;}",
"248 102 OFFCURVE",
"215 121 OFFCURVE",
"215 161 CURVE SMOOTH",
"215 173 OFFCURVE",
"216 187 OFFCURVE",
"218 195 CURVE",
"253 195 LINE",
"444 195 OFFCURVE",
"530 231 OFFCURVE",
"530 362 CURVE SMOOTH",
"530 469 OFFCURVE",
"462 511 OFFCURVE",
"355 511 CURVE SMOOTH",
"160 511 OFFCURVE",
"81 339 OFFCURVE",
"81 158 CURVE SMOOTH",
"81 41 OFFCURVE",
"135 -12 OFFCURVE",
"250 -12 CURVE SMOOTH"
);
},
{
closed = 1;
nodes = (
"250 366 OFFCURVE",
"289 403 OFFCURVE",
"348 403 CURVE SMOOTH",
"380 403 OFFCURVE",
"398 392 OFFCURVE",
"398 360 CURVE SMOOTH",
"398 313 OFFCURVE",
"368 294 OFFCURVE",
"274 294 CURVE SMOOTH",
"233 294 LINE"
);
}
);
width = 476;
}
);
leftKerningGroup = o;
rightKerningGroup = e;
unicode = 0065;
},
{
glyphname = ecircumflex;
layers = (
{
components = (
{
name = e;
}
);
layerId = "B420756C-160B-4E3B-8A8F-018354DD19AA";
paths = (
{
closed = 1;
nodes = (
"286 595 LINE",
"396 696 LINE",
"460 595 LINE",
"498 595 LINE",
"411 730 LINE",
"389 730 LINE",
"243 595 LINE"
);
}
);
width = 452;
},
{
components = (
{
name = e;
}
);
layerId = "7271F2A9-EB19-499E-973E-7497F9144823";
paths = (
{
closed = 1;
nodes = (
"325 575 LINE",
"383 639 LINE",
"407 575 LINE",
"539 575 LINE",
"453 750 LINE",
"353 750 LINE",
"185 575 LINE"
);
}
);
width = 476;
}
);
leftKerningGroup = o;
rightKerningGroup = e;
unicode = 00EA;
},
{
glyphname = edieresis;
layers = (
{
components = (
{
name = e;
}
);
layerId = "B420756C-160B-4E3B-8A8F-018354DD19AA";
paths = (
{
closed = 1;
nodes = (
"315 633 LINE",
"330 698 LINE",
"296 698 LINE",
"281 633 LINE"
);
},
{
closed = 1;
nodes = (
"493 633 LINE",
"508 698 LINE",
"474 698 LINE",
"461 633 LINE"
);
}
);
width = 452;
},
{
components = (
{
name = e;
}
);
layerId = "7271F2A9-EB19-499E-973E-7497F9144823";
paths = (
{
closed = 1;
nodes = (
"535 601 LINE",
"567 736 LINE",
"446 736 LINE",
"415 601 LINE"
);
},
{
closed = 1;
nodes = (
"331 601 LINE",
"363 736 LINE",
"242 736 LINE",
"211 601 LINE"
);
}
);
width = 476;
}
);
leftKerningGroup = o;
rightKerningGroup = e;
unicode = 00EB;
},
{
glyphname = f;
layers = (
{
layerId = "B420756C-160B-4E3B-8A8F-018354DD19AA";
paths = (
{
closed = 1;
nodes = (
"66 -230 LINE",
"125 0 LINE",
"234 468 LINE {name = hr00;}",
"385 468 LINE",
"394 500 LINE",
"240 500 LINE",
"254 557 LINE",
"281 665 OFFCURVE",
"309 707 OFFCURVE",
"374 707 CURVE SMOOTH",
"399 707 OFFCURVE",
"432 703 OFFCURVE",
"450 700 CURVE",
"458 731 LINE",
"439 734 OFFCURVE",
"405 739 OFFCURVE",
"381 739 CURVE SMOOTH",
"296 739 OFFCURVE",
"250.583 692.1 OFFCURVE",
"219 559 CURVE SMOOTH",
"205 500 LINE",
"142 500 LINE",
"134 468 LINE",
"198 468 LINE",
"37 -230 LINE"
);
}
);
width = 297;
},
{
layerId = "7271F2A9-EB19-499E-973E-7497F9144823";
paths = (
{
closed = 1;
nodes = (
"147 -211 LINE",
"210 0 LINE",
"300 386 LINE {name = hr00;}",
"402 386 LINE",
"430 500 LINE",
"325 500 LINE",
"330 519 LINE",
"340 560 OFFCURVE",
"350 598 OFFCURVE",
"384 598 CURVE SMOOTH",
"406 598 OFFCURVE",
"434 594 OFFCURVE",
"449 591 CURVE",
"473 689 LINE",
"452 699 OFFCURVE",
"412 712 OFFCURVE",
"378 712 CURVE SMOOTH",
"267 712 OFFCURVE",
"229.594 654.378 OFFCURVE",
"196 520 CURVE SMOOTH",
"191 500 LINE",
"148 500 LINE",
"120 384 LINE",
"166 384 LINE",
"26 -211 LINE"
);
}
);
width = 328;
}
);
unicode = 0066;
},
{
glyphname = g;
layers = (
{
layerId = "B420756C-160B-4E3B-8A8F-018354DD19AA";
paths = (
{
closed = 1;
nodes = (
"337 -239 OFFCURVE",
"433 -149 OFFCURVE",
"433 -62 CURVE SMOOTH",
"433 7 OFFCURVE",
"400 38 OFFCURVE",
"276 52 CURVE SMOOTH",
"207 60 OFFCURVE",
"185 67 OFFCURVE",
"185 94 CURVE SMOOTH",
"185 118 OFFCURVE",
"208 157 OFFCURVE",
"226 180 CURVE",
"234 179 OFFCURVE",
"247 178 OFFCURVE",
"252 178 CURVE SMOOTH",
"405 178 OFFCURVE",
"464 303 OFFCURVE",
"464 385 CURVE SMOOTH",
"464 424 OFFCURVE",
"453 447 OFFCURVE",
"439 465 CURVE",
"549 465 LINE",
"557 500 LINE",
"408 494 LINE",
"397 500 OFFCURVE",
"368 509 OFFCURVE",
"329 509 CURVE SMOOTH",
"197 509 OFFCURVE",
"131 390 OFFCURVE",
"131 304 CURVE SMOOTH",
"131 247 OFFCURVE",
"154 207 OFFCURVE",
"201 188 CURVE",
"179 165 OFFCURVE",
"150 122 OFFCURVE",
"150 90 CURVE SMOOTH",
"150 73 OFFCURVE",
"156 59 OFFCURVE",
"163 53 CURVE",
"104 21 OFFCURVE",
"24 -32 OFFCURVE",
"24 -112 CURVE SMOOTH",
"24 -184 OFFCURVE",
"81 -239 OFFCURVE",
"177 -239 CURVE SMOOTH {name = hr00;}"
);
},
{
closed = 1;
nodes = (
"103 -207 OFFCURVE",
"61 -164 OFFCURVE",
"61 -105 CURVE SMOOTH",
"61 -48 OFFCURVE",
"129 4 OFFCURVE",
"189 34 CURVE",
"201 29 OFFCURVE",
"227 22 OFFCURVE",
"278 17 CURVE SMOOTH",
"366 8 OFFCURVE",
"396 -10 OFFCURVE",
"396 -62 CURVE SMOOTH",
"396 -146 OFFCURVE",
"299 -207 OFFCURVE",
"185 -207 CURVE SMOOTH"
);
},
{
closed = 1;
nodes = (
"189 210 OFFCURVE",
"167 250 OFFCURVE",
"167 306 CURVE SMOOTH",
"167 374 OFFCURVE",
"221 477 OFFCURVE",
"325 477 CURVE SMOOTH",
"402 477 OFFCURVE",
"428 442 OFFCURVE",
"428 374 CURVE SMOOTH",
"428 319 OFFCURVE",
"382 210 OFFCURVE",
"260 210 CURVE SMOOTH"
);
}
);
width = 458;
},
{
layerId = "7271F2A9-EB19-499E-973E-7497F9144823";
paths = (
{
closed = 1;
nodes = (
"377 -230 OFFCURVE",
"467 -149 OFFCURVE",
"467 -32 CURVE SMOOTH",
"467 58 OFFCURVE",
"392 84 OFFCURVE",
"325 94 CURVE SMOOTH",
"257 104 OFFCURVE",
"231 109 OFFCURVE",
"231 126 CURVE SMOOTH",
"231 138 OFFCURVE",
"240 153 OFFCURVE",
"246 162 CURVE",
"254 160 OFFCURVE",
"271 157 OFFCURVE",
"289 157 CURVE SMOOTH",
"411 157 OFFCURVE",
"498 240 OFFCURVE",
"498 341 CURVE SMOOTH",
"498 362 OFFCURVE",
"496 381 OFFCURVE",
"494 392 CURVE",
"552 392 LINE",
"577 500 LINE",
"431 494 LINE",
"400 502 OFFCURVE",
"346 512 OFFCURVE",
"310 512 CURVE SMOOTH",
"184 512 OFFCURVE",
"103 428 OFFCURVE",
"103 316 CURVE SMOOTH",
"103 249 OFFCURVE",
"130 215 OFFCURVE",
"171 191 CURVE",
"145 169 OFFCURVE",
"111 128 OFFCURVE",
"111 95 CURVE SMOOTH",
"111 71 OFFCURVE",
"115 58 OFFCURVE",
"131 42 CURVE",
"75 15 OFFCURVE",
"9 -23 OFFCURVE",
"9 -93 CURVE SMOOTH",
"9 -193 OFFCURVE",
"97 -230 OFFCURVE",
"226 -230 CURVE SMOOTH {name = hr00;}"
);
},
{
closed = 1;
nodes = (
"155 -118 OFFCURVE",
"131 -91 OFFCURVE",
"131 -62 CURVE SMOOTH",
"131 -35 OFFCURVE",
"166 -6 OFFCURVE",
"188 6 CURVE",
"205 2 OFFCURVE",
"238 -3 OFFCURVE",
"273 -9 CURVE SMOOTH",
"314 -16 OFFCURVE",
"341 -21 OFFCURVE",
"341 -48 CURVE SMOOTH",
"341 -107 OFFCURVE",
"277 -118 OFFCURVE",
"223 -118 CURVE SMOOTH"
);
},
{
closed = 1;
nodes = (
"248 266 OFFCURVE",
"226 287 OFFCURVE",
"226 322 CURVE SMOOTH",
"226 367 OFFCURVE",
"257 403 OFFCURVE",
"305 403 CURVE SMOOTH",
"353 403 OFFCURVE",
"375 382 OFFCURVE",
"375 347 CURVE SMOOTH",
"375 302 OFFCURVE",
"343 266 OFFCURVE",
"296 266 CURVE SMOOTH"
);
}
);
width = 484;
}
);
leftKerningGroup = g;
rightKerningGroup = g;
unicode = 0067;
},
{
glyphname = gcommaaccent;
layers = (
{
components = (
{
name = g;
}
);
layerId = "B420756C-160B-4E3B-8A8F-018354DD19AA";
paths = (
{
closed = 1;
nodes = (
"365 588 LINE",
"446 780 LINE",
"419 780 LINE",
"331 588 LINE"
);
}
);
width = 458;
},
{
components = (
{
name = g;
}
);
layerId = "7271F2A9-EB19-499E-973E-7497F9144823";
paths = (
{
closed = 1;
nodes = (
"409 578 LINE",
"507 814 LINE",
"393 814 LINE",
"286 578 LINE"
);
}
);
width = 484;
}
);
leftKerningGroup = g;
rightKerningGroup = g;
unicode = 0123;
},
{
glyphname = h;
layers = (
{
layerId = "B420756C-160B-4E3B-8A8F-018354DD19AA";
paths = (
{
closed = 1;
nodes = (
"109 0 LINE {name = hr00;}",
"185 328 LINE",
"230 392 OFFCURVE",
"314 476 OFFCURVE",
"378 476 CURVE SMOOTH",
"435 476 OFFCURVE",
"464 444 OFFCURVE",
"464 390 CURVE SMOOTH",
"464 348 OFFCURVE",
"454 295 OFFCURVE",
"445 258 CURVE SMOOTH",
"385 0 LINE",
"419 0 LINE",
"479 257 LINE",
"489 299 OFFCURVE",
"499 347 OFFCURVE",
"499 393 CURVE SMOOTH",
"499 465 OFFCURVE",
"456 509 OFFCURVE",
"384 509 CURVE SMOOTH",
"312 509 OFFCURVE",
"236 438 OFFCURVE",
"198 385 CURVE",
"278 730 LINE",
"243 730 LINE",
"74 0 LINE"
);
}
);
width = 489;
},
{
layerId = "7271F2A9-EB19-499E-973E-7497F9144823";
paths = (
{
closed = 1;
nodes = (
"189 0 LINE {name = hr00;}",
"266 336 LINE",
"294 362 OFFCURVE",
"339 396 OFFCURVE",
"362 396 CURVE SMOOTH",
"397 396 OFFCURVE",
"402 375 OFFCURVE",
"402 338 CURVE SMOOTH",
"402 315 OFFCURVE",
"390 260 OFFCURVE",
"384 235 CURVE SMOOTH",
"330 0 LINE",
"464 0 LINE",
"520 245 LINE",
"527 275 OFFCURVE",
"541 336 OFFCURVE",
"541 371 CURVE SMOOTH",
"541 449 OFFCURVE",
"510 512 OFFCURVE",
"419 512 CURVE SMOOTH",
"371 512 OFFCURVE",
"319 478 OFFCURVE",
"294 453 CURVE",
"350 700 LINE",
"216 700 LINE",
"55 0 LINE"
);
}
);
width = 513;
}
);
leftKerningGroup = h;
rightKerningGroup = n;
unicode = 0068;
},
{
glyphname = hbar;
layers = (
{
components = (
{
name = h;
}
);
layerId = "B420756C-160B-4E3B-8A8F-018354DD19AA";
paths = (
{
closed = 1;
nodes = (
"410 611 LINE",
"418 643 LINE",
"165 643 LINE",
"158 611 LINE {name = hr00;}"
);
}
);
width = 489;
},
{
components = (
{
name = h;
}
);
layerId = "7271F2A9-EB19-499E-973E-7497F9144823";
paths = (
{
closed = 1;
nodes = (
"433 530 LINE",
"461 646 LINE",
"152 646 LINE",
"125 530 LINE {name = hr00;}"
);
}
);
width = 513;
}
);
leftKerningGroup = h;
rightKerningGroup = n;
unicode = 0127;
},
{
glyphname = i;
layers = (
{
layerId = "B420756C-160B-4E3B-8A8F-018354DD19AA";
paths = (
{
closed = 1;
nodes = (
"108 0 LINE",
"224 500 LINE",
"189 500 LINE",
"73 0 LINE {name = hr00;}"
);
},
{
closed = 1;
nodes = (
"256 638 LINE",
"270 698 LINE",
"234 698 LINE",
"220 638 LINE"
);
}
);
width = 182;
},
{
layerId = "7271F2A9-EB19-499E-973E-7497F9144823";
paths = (
{
closed = 1;
nodes = (
"189 0 LINE",
"304 500 LINE",
"170 500 LINE",
"55 0 LINE {name = hr00;}"
);
},
{
closed = 1;
nodes = (
"317 552 LINE",
"348 689 LINE",
"213 689 LINE",
"181 552 LINE"
);
}
);
width = 243;
}
);
leftKerningGroup = i;
rightKerningGroup = i;
unicode = 0069;
},
{
glyphname = dotlessi;
layers = (
{
layerId = "B420756C-160B-4E3B-8A8F-018354DD19AA";
paths = (
{
closed = 1;
nodes = (
"108 0 LINE",
"224 500 LINE",
"189 500 LINE",
"73 0 LINE {name = hr00;}"
);
}
);
width = 182;
},
{
layerId = "7271F2A9-EB19-499E-973E-7497F9144823";
paths = (
{
closed = 1;
nodes = (
"189 0 LINE",
"304 500 LINE",
"170 500 LINE",
"55 0 LINE {name = hr00;}"
);
}
);
width = 244;
}
);
leftKerningGroup = i;
rightKerningGroup = i;
unicode = 0131;
},
{
glyphname = icircumflex;
layers = (
{
components = (
{
name = dotlessi;
}
);
layerId = "B420756C-160B-4E3B-8A8F-018354DD19AA";
paths = (
{
closed = 1;
nodes = (
"137 595 LINE",
"247 696 LINE",
"311 595 LINE",
"349 595 LINE",
"262 730 LINE",
"240 730 LINE",
"94 595 LINE"
);
}
);
width = 182;
},
{
components = (
{
name = dotlessi;
}
);
layerId = "7271F2A9-EB19-499E-973E-7497F9144823";
paths = (
{
closed = 1;
nodes = (
"209 575 LINE",
"267 639 LINE",
"291 575 LINE",
"423 575 LINE",
"337 750 LINE",
"237 750 LINE",
"69 575 LINE"
);
}
);
width = 243;
}
);
leftKerningGroup = i;
rightKerningGroup = i;
unicode = 00EE;
},
{
glyphname = idieresis;
layers = (
{
components = (
{
name = dotlessi;
}
);
layerId = "B420756C-160B-4E3B-8A8F-018354DD19AA";
paths = (
{
closed = 1;
nodes = (
"147 633 LINE",
"162 698 LINE",
"128 698 LINE",
"113 633 LINE"
);
},
{
closed = 1;
nodes = (
"325 633 LINE",
"340 698 LINE",
"306 698 LINE",
"293 633 LINE"
);
}
);
width = 182;
},
{
components = (
{
name = dotlessi;
}
);
layerId = "7271F2A9-EB19-499E-973E-7497F9144823";
paths = (
{
closed = 1;
nodes = (
"413 601 LINE",
"445 736 LINE",
"324 736 LINE",
"293 601 LINE"
);
},
{
closed = 1;
nodes = (
"209 601 LINE",
"241 736 LINE",
"120 736 LINE",
"89 601 LINE"
);
}
);
width = 243;
}
);
leftKerningGroup = i;
rightKerningGroup = i;
unicode = 00EF;
},
{
glyphname = iogonek;
layers = (
{
layerId = "B420756C-160B-4E3B-8A8F-018354DD19AA";
paths = (
{
closed = 1;
nodes = (
"109 0 LINE",
"225 500 LINE",
"190 500 LINE",
"74 0 LINE"
);
},
{
closed = 1;
nodes = (
"46 -198 OFFCURVE",
"74 -193 OFFCURVE",
"89 -190 CURVE",
"93 -158 LINE {name = hr01;}",
"77 -161 OFFCURVE",
"51 -165 OFFCURVE",
"37 -165 CURVE SMOOTH",
"17 -165 OFFCURVE",
"5 -157 OFFCURVE",
"5 -141 CURVE SMOOTH",
"5 -97 OFFCURVE",
"77 -27 OFFCURVE",
"109 0 CURVE",
"77 10 LINE",
"44 -17 OFFCURVE",
"-35 -92 OFFCURVE",
"-35 -144 CURVE SMOOTH",
"-35 -176 OFFCURVE",
"-16 -198 OFFCURVE",
"27 -198 CURVE SMOOTH"
);
},
{
closed = 1;
nodes = (
"257 638 LINE",
"271 698 LINE",
"235 698 LINE",
"221 638 LINE"
);
}
);
width = 183;
},
{
layerId = "7271F2A9-EB19-499E-973E-7497F9144823";
paths = (
{
closed = 1;
nodes = (
"189 0 LINE",
"304 500 LINE",
"170 500 LINE",
"55 0 LINE"
);
},
{
closed = 1;
nodes = (
"76 -214 OFFCURVE",
"119 -208 OFFCURVE",
"144 -203 CURVE",
"157 -93 LINE {name = hr01;}",
"144 -94 OFFCURVE",
"125 -96 OFFCURVE",
"120 -96 CURVE SMOOTH",
"110 -96 OFFCURVE",
"107 -89 OFFCURVE",
"107 -82 CURVE SMOOTH",
"107 -58 OFFCURVE",
"156 -17 OFFCURVE",
"189 0 CURVE",
"73 15 LINE",
"38 -9 OFFCURVE",
"-37 -76 OFFCURVE",
"-37 -137 CURVE SMOOTH",
"-37 -188 OFFCURVE",
"-5 -214 OFFCURVE",
"46 -214 CURVE SMOOTH"
);
},
{
closed = 1;
nodes = (
"317 552 LINE",
"348 689 LINE",
"213 689 LINE",
"181 552 LINE"
);
}
);
width = 243;
}
);
leftKerningGroup = i;
rightKerningGroup = i;
unicode = 012F;
},
{
glyphname = j;
layers = (
{
layerId = "B420756C-160B-4E3B-8A8F-018354DD19AA";
paths = (
{
closed = 1;
nodes = (
"56 -171 OFFCURVE",
"72.258 -154.06 OFFCURVE",
"108 0 CURVE SMOOTH",
"224 500 LINE",
"189 500 LINE",
"73 0 LINE SMOOTH {name = hr00;}",
"42.848 -129.965 OFFCURVE",
"31 -144 OFFCURVE",
"-99 -209 CURVE",
"-87 -239 LINE"
);
},
{
closed = 1;
nodes = (
"258 642 LINE",
"271 700 LINE",
"236 700 LINE",
"223 642 LINE"
);
}
);
width = 182;
},
{
layerId = "7271F2A9-EB19-499E-973E-7497F9144823";
paths = (
{
closed = 1;
nodes = (
"147 -153 OFFCURVE",
"157.247 -138.057 OFFCURVE",
"189 0 CURVE SMOOTH",
"304 500 LINE",
"170 500 LINE",
"55 0 LINE SMOOTH {name = hr00;}",
"40.972 -60.993 OFFCURVE",
"34 -69 OFFCURVE",
"-70 -123 CURVE",
"-28 -230 LINE"
);
},
{
closed = 1;
nodes = (
"315 543 LINE",
"346 680 LINE",
"211 680 LINE",
"179 543 LINE"
);
}
);
width = 243;
}
);
leftKerningGroup = i;
rightKerningGroup = i;
unicode = 006A;
},
{
glyphname = dotlessj;
layers = (
{
layerId = "B420756C-160B-4E3B-8A8F-018354DD19AA";
paths = (
{
closed = 1;
nodes = (
"56 -171 OFFCURVE",
"72 -154 OFFCURVE",
"108 0 CURVE SMOOTH",
"224 500 LINE",
"189 500 LINE",
"73 0 LINE SMOOTH",
"43 -130 OFFCURVE",
"31 -144 OFFCURVE",
"-99 -209 CURVE",
"-87 -239 LINE"
);
}
);
width = 182;
},
{
layerId = "7271F2A9-EB19-499E-973E-7497F9144823";
paths = (
{
closed = 1;
nodes = (
"147 -153 OFFCURVE",
"157 -138 OFFCURVE",
"189 0 CURVE SMOOTH",
"304 500 LINE",
"170 500 LINE",
"55 0 LINE SMOOTH",
"41 -61 OFFCURVE",
"34 -69 OFFCURVE",
"-70 -123 CURVE",
"-28 -230 LINE"
);
}
);
width = 244;
}
);
unicode = 0237;
},
{
glyphname = k;
layers = (
{
layerId = "B420756C-160B-4E3B-8A8F-018354DD19AA";
paths = (
{
closed = 1;
nodes = (
"109 0 LINE",
"169 261 LINE",
"253 261 LINE",
"362 0 LINE",
"401 0 LINE",
"288 274 LINE",
"524 500 LINE",
"478 500 LINE",
"261 293 LINE",
"177 293 LINE",
"278 730 LINE",
"243 730 LINE",
"74 0 LINE {name = hr00;}"
);
}
);
width = 431;
},
{
layerId = "7271F2A9-EB19-499E-973E-7497F9144823";
paths = (
{
closed = 1;
nodes = (
"189 0 LINE",
"235 201 LINE",
"275 207 LINE",
"323 0 LINE",
"460 0 LINE",
"394 259 LINE",
"568 499 LINE",
"421 499 LINE",
"294 318 LINE",
"260 311 LINE",
"350 700 LINE",
"216 700 LINE",
"55 0 LINE {name = hr00;}"
);
}
);
width = 467;
}
);
leftKerningGroup = h;
rightKerningGroup = k;
unicode = 006B;
},
{
glyphname = l;
layers = (
{
layerId = "B420756C-160B-4E3B-8A8F-018354DD19AA";
paths = (
{
closed = 1;
nodes = (
"115 0 LINE",
"284 730 LINE",
"249 730 LINE",
"80 0 LINE {name = hr00;}"
);
}
);
width = 195;
},
{
layerId = "7271F2A9-EB19-499E-973E-7497F9144823";
paths = (
{
closed = 1;
nodes = (
"189 0 LINE",
"350 700 LINE",
"216 700 LINE",
"55 0 LINE {name = hr00;}"
);
}
);
width = 244;
}
);
leftKerningGroup = l;
rightKerningGroup = l;
unicode = 006C;
},
{
glyphname = lcaron;
layers = (
{
components = (
{
name = l;
}
);
layerId = "B420756C-160B-4E3B-8A8F-018354DD19AA";
paths = (
{
closed = 1;
nodes = (
"322 480 LINE",
"373 700 LINE {name = hr00;}",
"341 700 LINE",
"290 480 LINE"
);
}
);
width = 201;
},
{
components = (
{
name = l;
}
);
layerId = "7271F2A9-EB19-499E-973E-7497F9144823";
paths = (
{
closed = 1;
nodes = (
"460 429 LINE",
"520 680 LINE {name = hr00;}",
"398 680 LINE",
"337 429 LINE"
);
}
);
width = 353;
}
);
leftKerningGroup = l;
rightKerningGroup = lcaron;
unicode = 013E;
},
{
glyphname = lslash;
layers = (
{
components = (
{
name = l;
transform = "{1, 0, 0, 1, 27, 0}";
}
);
layerId = "B420756C-160B-4E3B-8A8F-018354DD19AA";
paths = (
{
closed = 1;
nodes = (
"332 411 LINE",
"319 440 LINE {name = hr00;}",
"81 292 LINE",
"96 265 LINE"
);
}
);
width = 256;
},
{
components = (
{
name = l;
transform = "{1, 0, 0, 1, 22, 0}";
}
);
layerId = "7271F2A9-EB19-499E-973E-7497F9144823";
paths = (
{
closed = 1;
nodes = (
"397 389 LINE",
"356 481 LINE {name = hr00;}",
"49 290 LINE",
"90 197 LINE"
);
}
);
width = 292;
}
);
leftKerningGroup = l;
rightKerningGroup = l;
unicode = 0142;
},
{
glyphname = m;
layers = (
{
layerId = "B420756C-160B-4E3B-8A8F-018354DD19AA";
paths = (
{
closed = 1;
nodes = (
"108 0 LINE",
"185 330 LINE",
"229 393 OFFCURVE",
"312 476 OFFCURVE",
"377 476 CURVE SMOOTH",
"431 476 OFFCURVE",
"462 444 OFFCURVE",
"462 390 CURVE SMOOTH",
"462 352 OFFCURVE",
"452 295 OFFCURVE",
"443 258 CURVE SMOOTH",
"383 0 LINE",
"418 0 LINE {name = hr00;}",
"478 257 LINE",
"490 308 OFFCURVE",
"496 349 OFFCURVE",
"496 365 CURVE",
"534 413 OFFCURVE",
"605 476 OFFCURVE",
"662 476 CURVE SMOOTH",
"716 476 OFFCURVE",
"748 444 OFFCURVE",
"748 390 CURVE SMOOTH",
"748 348 OFFCURVE",
"738 295 OFFCURVE",
"729 258 CURVE SMOOTH",
"669 0 LINE",
"704 0 LINE",
"764 257 LINE",
"773 297 OFFCURVE",
"784 346 OFFCURVE",
"784 393 CURVE SMOOTH",
"784 465 OFFCURVE",
"741 509 OFFCURVE",
"669 509 CURVE SMOOTH",
"605 509 OFFCURVE",
"532 451 OFFCURVE",
"495 408 CURVE",
"494 451 OFFCURVE",
"463 509 OFFCURVE",
"383 509 CURVE SMOOTH",
"311 509 OFFCURVE",
"235 439 OFFCURVE",
"198 387 CURVE",
"224 500 LINE",
"189 500 LINE",
"73 0 LINE"
);
}
);
width = 774;
},
{
layerId = "7271F2A9-EB19-499E-973E-7497F9144823";
paths = (
{
closed = 1;
nodes = (
"189 0 LINE",
"266 336 LINE",
"293 362 OFFCURVE",
"337 396 OFFCURVE",
"360 396 CURVE SMOOTH",
"394 396 OFFCURVE",
"401 375 OFFCURVE",
"401 338 CURVE SMOOTH",
"401 315 OFFCURVE",
"389 260 OFFCURVE",
"383 235 CURVE SMOOTH",
"329 0 LINE",
"463 0 LINE {name = hr00;}",
"519 245 LINE",
"525 269 OFFCURVE",
"531 312 OFFCURVE",
"534 338 CURVE",
"560 363 OFFCURVE",
"604 396 OFFCURVE",
"631 396 CURVE SMOOTH",
"661 396 OFFCURVE",
"668 374 OFFCURVE",
"668 334 CURVE SMOOTH",
"668 313 OFFCURVE",
"656 260 OFFCURVE",
"650 235 CURVE SMOOTH",
"594 0 LINE",
"728 0 LINE",
"784 245 LINE",
"791 275 OFFCURVE",
"803 335 OFFCURVE",
"803 371 CURVE SMOOTH",
"803 449 OFFCURVE",
"774 512 OFFCURVE",
"683 512 CURVE SMOOTH",
"627 512 OFFCURVE",
"561 472 OFFCURVE",
"527 441 CURVE",
"519 472 OFFCURVE",
"485 512 OFFCURVE",
"423 512 CURVE SMOOTH",
"370 512 OFFCURVE",
"318 478 OFFCURVE",
"293 452 CURVE",
"298 500 LINE",
"170 500 LINE",
"55 0 LINE"
);
}
);
width = 776;
}
);
leftKerningGroup = n;
rightKerningGroup = n;
unicode = 006D;
userData = {
"-(D) ristretto\012-(D) contrasto 3\012correzione disegno wt1si1\012aste verticali wt1si1 134-132\012curve orizzontali 120  com.typemytype.robofont.guides" = (
{
angle = 0;
isGlobal = 0;
magnetic = 5;
x = 0;
y = 592;
}
);
};
},
{
glyphname = n;
layers = (
{
layerId = "B420756C-160B-4E3B-8A8F-018354DD19AA";
paths = (
{
closed = 1;
nodes = (
"108 0 LINE",
"185 330 LINE",
"229 393 OFFCURVE",
"312 476 OFFCURVE",
"377 476 CURVE SMOOTH",
"433 476 OFFCURVE",
"463 444 OFFCURVE",
"463 390 CURVE SMOOTH",
"463 348 OFFCURVE",
"453 295 OFFCURVE",
"444 258 CURVE",
"384 0 LINE",
"418 0 LINE",
"479 260 LINE SMOOTH",
"488.365 299.916 OFFCURVE",
"498 347 OFFCURVE",
"498 393 CURVE SMOOTH",
"498 465 OFFCURVE",
"455 509 OFFCURVE",
"383 509 CURVE SMOOTH",
"311 509 OFFCURVE",
"235 439 OFFCURVE",
"198 387 CURVE",
"224 500 LINE",
"189 500 LINE",
"73 0 LINE {name = hr00;}"
);
}
);
width = 488;
},
{
layerId = "7271F2A9-EB19-499E-973E-7497F9144823";
paths = (
{
closed = 1;
nodes = (
"189 0 LINE",
"266 336 LINE",
"293 362 OFFCURVE",
"338 396 OFFCURVE",
"361 396 CURVE SMOOTH",
"398 396 OFFCURVE",
"402 375 OFFCURVE",
"402 338 CURVE SMOOTH",
"402 315 OFFCURVE",
"390 260 OFFCURVE",
"384 235 CURVE",
"330 0 LINE",
"464 0 LINE",
"520 245 LINE SMOOTH",
"526.864 275.031 OFFCURVE",
"541 338 OFFCURVE",
"541 371 CURVE SMOOTH",
"541 449 OFFCURVE",
"510 512 OFFCURVE",
"419 512 CURVE SMOOTH",
"371 512 OFFCURVE",
"318 477 OFFCURVE",
"292 451 CURVE",
"298 500 LINE",
"170 500 LINE",
"55 0 LINE {name = hr00;}"
);
}
);
width = 513;
}
);
leftKerningGroup = n;
rightKerningGroup = n;
unicode = 006E;
},
{
glyphname = eng;
layers = (
{
layerId = "B420756C-160B-4E3B-8A8F-018354DD19AA";
paths = (
{
closed = 1;
nodes = (
"348 -161 OFFCURVE",
"387 -122 OFFCURVE",
"414 -5 CURVE",
"475 258 LINE SMOOTH",
"486 304 OFFCURVE",
"499 361 OFFCURVE",
"499 394 CURVE SMOOTH",
"499 481 OFFCURVE",
"466 509 OFFCURVE",
"380 509 CURVE SMOOTH",
"311 509 OFFCURVE",
"237 455 OFFCURVE",
"204 423 CURVE",
"224 500 LINE",
"190 500 LINE",
"73 0 LINE",
"106 0 LINE",
"196 385 LINE",
"236 423 OFFCURVE",
"311 473 OFFCURVE",
"373 473 CURVE SMOOTH",
"439 473 OFFCURVE",
"465 451 OFFCURVE",
"465 394 CURVE SMOOTH",
"465 361 OFFCURVE",
"456 315 OFFCURVE",
"443 258 CURVE",
"387 20 LINE SMOOTH",
"359 -98 OFFCURVE",
"328 -131 OFFCURVE",
"215 -193 CURVE",
"221 -228 LINE"
);
}
);
width = 485;
},
{
layerId = "7271F2A9-EB19-499E-973E-7497F9144823";
paths = (
{
closed = 1;
nodes = (
"378 -180 OFFCURVE",
"421 -125 OFFCURVE",
"453 7 CURVE",
"514 261 LINE SMOOTH",
"526 313 OFFCURVE",
"537 366 OFFCURVE",
"527 422 CURVE SMOOTH",
"517 478 OFFCURVE",
"480 511 OFFCURVE",
"411 511 CURVE SMOOTH",
"362 511 OFFCURVE",
"315 475 OFFCURVE",
"285 452 CURVE",
"297 499 LINE",
"170 499 LINE",
"52 0 LINE",
"179 0 LINE",
"259 342 LINE",
"287 361 OFFCURVE",
"332 386 OFFCURVE",
"355 386 CURVE SMOOTH",
"382 386 OFFCURVE",
"394 371 OFFCURVE",
"397 349 CURVE SMOOTH",
"400 325 OFFCURVE",
"396 293 OFFCURVE",
"388 261 CURVE",
"326 2 LINE SMOOTH",
"310 -66 OFFCURVE",
"295 -81 OFFCURVE",
"194 -132 CURVE",
"226 -246 LINE"
);
}
);
width = 502;
}
);
leftKerningGroup = n;
rightKerningGroup = n;
unicode = 014B;
},
{
glyphname = o;
layers = (
{
layerId = "B420756C-160B-4E3B-8A8F-018354DD19AA";
paths = (
{
closed = 1;
nodes = (
"405 -9 OFFCURVE",
"507 150 OFFCURVE",
"507 352 CURVE SMOOTH",
"507 454 OFFCURVE",
"454 509 OFFCURVE",
"349 509 CURVE SMOOTH {name = hr00;}",
"207 509 OFFCURVE",
"99 346 OFFCURVE",
"99 139 CURVE SMOOTH",
"99 37 OFFCURVE",
"150 -9 OFFCURVE",
"252 -9 CURVE SMOOTH"
);
},
{
closed = 1;
nodes = (
"173 23 OFFCURVE",
"135 64 OFFCURVE",
"135 139 CURVE SMOOTH",
"135 319 OFFCURVE",
"222 477 OFFCURVE",
"349 477 CURVE SMOOTH",
"433 477 OFFCURVE",
"471 425 OFFCURVE",
"471 352 CURVE SMOOTH",
"471 172 OFFCURVE",
"384 23 OFFCURVE",
"252 23 CURVE SMOOTH"
);
}
);
width = 493;
},
{
layerId = "7271F2A9-EB19-499E-973E-7497F9144823";
paths = (
{
closed = 1;
nodes = (
"445 -12 OFFCURVE",
"530 168 OFFCURVE",
"530 322 CURVE SMOOTH",
"530 456 OFFCURVE",
"457 511 OFFCURVE",
"333 511 CURVE SMOOTH {name = hr00;}",
"173 511 OFFCURVE",
"80 331 OFFCURVE",
"80 177 CURVE SMOOTH",
"80 43 OFFCURVE",
"153 -12 OFFCURVE",
"277 -12 CURVE SMOOTH"
);
},
{
closed = 1;
nodes = (
"235 102 OFFCURVE",
"213 129 OFFCURVE",
"213 175 CURVE SMOOTH",
"213 279 OFFCURVE",
"257 397 OFFCURVE",
"333 397 CURVE SMOOTH",
"375 397 OFFCURVE",
"397 370 OFFCURVE",
"397 324 CURVE SMOOTH",
"397 220 OFFCURVE",
"353 102 OFFCURVE",
"277 102 CURVE SMOOTH"
);
}
);
width = 496;
}
);
leftKerningGroup = o;
rightKerningGroup = o;
unicode = 006F;
},
{
glyphname = ocircumflex;
layers = (
{
components = (
{
name = o;
}
);
layerId = "B420756C-160B-4E3B-8A8F-018354DD19AA";
paths = (
{
closed = 1;
nodes = (
"302 595 LINE",
"412 696 LINE",
"476 595 LINE",
"514 595 LINE",
"427 730 LINE",
"405 730 LINE",
"259 595 LINE"
);
}
);
width = 493;
},
{
components = (
{
name = o;
}
);
layerId = "7271F2A9-EB19-499E-973E-7497F9144823";
paths = (
{
closed = 1;
nodes = (
"340 575 LINE",
"398 639 LINE",
"422 575 LINE",
"554 575 LINE",
"468 750 LINE",
"368 750 LINE",
"200 575 LINE"
);
}
);
width = 496;
}
);
leftKerningGroup = o;
rightKerningGroup = o;
unicode = 00F4;
},
{
glyphname = oslash;
layers = (
{
components = (
{
name = o;
transform = "{1, 0, 0, 1, 1, 2}";
}
);
layerId = "B420756C-160B-4E3B-8A8F-018354DD19AA";
paths = (
{
closed = 1;
nodes = (
"311 242 LINE",
"532 592 LINE",
"505 604 LINE",
"288 255 LINE",
"63 -102 LINE",
"90 -113 LINE"
);
}
);
width = 492;
},
{
components = (
{
name = o;
transform = "{1, 0, 0, 1, 1, 2}";
}
);
layerId = "7271F2A9-EB19-499E-973E-7497F9144823";
paths = (
{
closed = 1;
nodes = (
"336 235 LINE",
"554 575 LINE",
"483 606 LINE",
"276 266 LINE",
"56 -76 LINE",
"126 -107 LINE"
);
}
);
width = 496;
}
);
leftKerningGroup = o;
rightKerningGroup = o;
unicode = 00F8;
},
{
glyphname = oslashacute;
layers = (
{
components = (
{
name = o;
},
{
name = acute;
transform = "{1, 0, 0, 1, 9, 0}";
}
);
layerId = "B420756C-160B-4E3B-8A8F-018354DD19AA";
paths = (
{
closed = 1;
nodes = (
"316 242 LINE",
"537 592 LINE",
"510 604 LINE",
"293 255 LINE",
"68 -102 LINE",
"95 -113 LINE"
);
}
);
width = 493;
},
{
components = (
{
name = o;
},
{
name = acute;
transform = "{1, 0, 0, 1, 24, 0}";
}
);
layerId = "7271F2A9-EB19-499E-973E-7497F9144823";
paths = (
{
closed = 1;
nodes = (
"336 235 LINE",
"554 575 LINE",
"483 606 LINE",
"276 266 LINE",
"56 -76 LINE",
"126 -107 LINE"
);
}
);
width = 496;
}
);
leftKerningGroup = o;
rightKerningGroup = o;
unicode = 01FF;
},
{
glyphname = oe;
layers = (
{
layerId = "B420756C-160B-4E3B-8A8F-018354DD19AA";
paths = (
{
closed = 1;
nodes = (
"349 -9 OFFCURVE",
"407 24 OFFCURVE",
"446 98 CURVE",
"454 31 OFFCURVE",
"492 -9 OFFCURVE",
"580 -9 CURVE SMOOTH",
"631 -9 OFFCURVE",
"712 -4 OFFCURVE",
"758 0 CURVE",
"763 36 LINE",
"717 32 OFFCURVE",
"637 27 OFFCURVE",
"589 27 CURVE SMOOTH {name = hr00;}",
"512 27 OFFCURVE",
"481 62 OFFCURVE",
"481 132 CURVE SMOOTH",
"481 161 OFFCURVE",
"488 196 OFFCURVE",
"498 236 CURVE",
"832 234 LINE",
"841 268 LINE",
"851 308 OFFCURVE",
"856 342 OFFCURVE",
"856 372 CURVE SMOOTH",
"856 468 OFFCURVE",
"805 509 OFFCURVE",
"715 509 CURVE SMOOTH",
"629 509 OFFCURVE",
"558 475 OFFCURVE",
"514 389 CURVE",
"508 472 OFFCURVE",
"460 509 OFFCURVE",
"370 509 CURVE SMOOTH",
"224 509 OFFCURVE",
"158 440 OFFCURVE",
"116 261 CURVE SMOOTH",
"103 206 OFFCURVE",
"95 159 OFFCURVE",
"95 113 CURVE SMOOTH",
"95 25 OFFCURVE",
"143 -9 OFFCURVE",
"249 -9 CURVE SMOOTH"
);
},
{
closed = 1;
nodes = (
"165 27 OFFCURVE",
"131 55 OFFCURVE",
"131 122 CURVE SMOOTH",
"131 158 OFFCURVE",
"140 203 OFFCURVE",
"154 261 CURVE SMOOTH",
"191 420 OFFCURVE",
"247 473 OFFCURVE",
"363 473 CURVE SMOOTH",
"425 473 OFFCURVE",
"461 453 OFFCURVE",
"474 404 CURVE SMOOTH",
"486 355 OFFCURVE",
"475 304 OFFCURVE",
"464 259 CURVE SMOOTH",
"428 115 OFFCURVE",
"396 27 OFFCURVE",
"256 27 CURVE SMOOTH"
);
},
{
closed = 1;
nodes = (
"506 270 LINE",
"541 418 OFFCURVE",
"613 473 OFFCURVE",
"708 473 CURVE SMOOTH",
"780 473 OFFCURVE",
"818 444 OFFCURVE",
"818 369 CURVE SMOOTH",
"818 341 OFFCURVE",
"813 308 OFFCURVE",
"803 268 CURVE"
);
}
);
width = 826;
},
{
layerId = "7271F2A9-EB19-499E-973E-7497F9144823";
paths = (
{
closed = 1;
nodes = (
"305 -12 OFFCURVE",
"353 6 OFFCURVE",
"395 37 CURVE",
"420 4 OFFCURVE",
"467 -12 OFFCURVE",
"530 -12 CURVE SMOOTH",
"601 -12 OFFCURVE",
"679 4 OFFCURVE",
"718 16 CURVE",
"741 118 LINE",
"696 114 OFFCURVE",
"618 109 OFFCURVE",
"568 109 CURVE SMOOTH {name = hr00;}",
"525 109 OFFCURVE",
"503 124 OFFCURVE",
"497 149 CURVE SMOOTH",
"494 162 OFFCURVE",
"495 177 OFFCURVE",
"499 194 CURVE",
"767 192 LINE",
"796 284 LINE",
"809 324 OFFCURVE",
"809 361 OFFCURVE",
"806 390 CURVE SMOOTH",
"798 465 OFFCURVE",
"747 511 OFFCURVE",
"650 511 CURVE SMOOTH",
"588 511 OFFCURVE",
"540 493 OFFCURVE",
"498 457 CURVE",
"471 491 OFFCURVE",
"430 511 OFFCURVE",
"362 511 CURVE SMOOTH",
"185 511 OFFCURVE",
"123 389 OFFCURVE",
"88 250 CURVE SMOOTH",
"76 201 OFFCURVE",
"72 152 OFFCURVE",
"80 105 CURVE SMOOTH",
"91 35 OFFCURVE",
"137 -12 OFFCURVE",
"239 -12 CURVE SMOOTH"
);
},
{
closed = 1;
nodes = (
"230 107 OFFCURVE",
"214 122 OFFCURVE",
"208 147 CURVE SMOOTH",
"202 173 OFFCURVE",
"207 209 OFFCURVE",
"217 250 CURVE SMOOTH",
"236 330 OFFCURVE",
"264 392 OFFCURVE",
"334 392 CURVE SMOOTH",
"381 392 OFFCURVE",
"397 370 OFFCURVE",
"397 329 CURVE SMOOTH",
"397 303 OFFCURVE",
"393 279 OFFCURVE",
"387 257 CURVE SMOOTH",
"370 193 OFFCURVE",
"348 107 OFFCURVE",
"266 107 CURVE SMOOTH"
);
},
{
closed = 1;
nodes = (
"522 296 LINE",
"536 356 OFFCURVE",
"564 389 OFFCURVE",
"626 389 CURVE SMOOTH",
"662 389 OFFCURVE",
"677 380 OFFCURVE",
"681 358 CURVE SMOOTH",
"684 343 OFFCURVE",
"681 321 OFFCURVE",
"674 294 CURVE"
);
}
);
width = 759;
}
);
leftKerningGroup = o;
rightKerningGroup = e;
unicode = 0153;
},
{
glyphname = p;
layers = (
{
layerId = "B420756C-160B-4E3B-8A8F-018354DD19AA";
paths = (
{
closed = 1;
nodes = (
"55 -230 LINE",
"110 8 LINE",
"142 1 OFFCURVE",
"203 -9 OFFCURVE",
"253 -9 CURVE SMOOTH",
"412 -9 OFFCURVE",
"501 217 OFFCURVE",
"501 377 CURVE SMOOTH",
"501 465 OFFCURVE",
"464 509 OFFCURVE",
"381 509 CURVE SMOOTH",
"312 509 OFFCURVE",
"236 439 OFFCURVE",
"197 386 CURVE",
"223 500 LINE",
"189 500 LINE",
"20 -230 LINE {name = hr00;}"
);
},
{
closed = 1;
nodes = (
"205 23 OFFCURVE",
"147 32 OFFCURVE",
"117 39 CURVE",
"184 328 LINE",
"230 392 OFFCURVE",
"314 476 OFFCURVE",
"374 476 CURVE SMOOTH",
"437 476 OFFCURVE",
"464 445 OFFCURVE",
"464 377 CURVE SMOOTH",
"464 242 OFFCURVE",
"392 23 OFFCURVE",
"253 23 CURVE SMOOTH"
);
}
);
width = 480;
},
{
layerId = "7271F2A9-EB19-499E-973E-7497F9144823";
paths = (
{
closed = 1;
nodes = (
"139 -210 LINE",
"190 10 LINE",
"222 1 OFFCURVE",
"277 -11 OFFCURVE",
"311 -11 CURVE SMOOTH",
"477 -11 OFFCURVE",
"563 173 OFFCURVE",
"563 342 CURVE SMOOTH",
"563 439 OFFCURVE",
"519 512 OFFCURVE",
"418 512 CURVE SMOOTH",
"370 512 OFFCURVE",
"317 476 OFFCURVE",
"291 448 CURVE",
"301 500 LINE",
"170 500 LINE",
"7 -210 LINE {name = hr00;}"
);
},
{
closed = 1;
nodes = (
"283 103 OFFCURVE",
"240 111 OFFCURVE",
"215 117 CURVE",
"263 326 LINE",
"296 357 OFFCURVE",
"349 398 OFFCURVE",
"376 398 CURVE SMOOTH",
"412 398 OFFCURVE",
"427 370 OFFCURVE",
"427 334 CURVE SMOOTH",
"427 243 OFFCURVE",
"386 103 OFFCURVE",
"311 103 CURVE SMOOTH"
);
}
);
width = 527;
}
);
leftKerningGroup = n;
rightKerningGroup = b;
unicode = 0070;
},
{
glyphname = thorn;
layers = (
{
layerId = "B420756C-160B-4E3B-8A8F-018354DD19AA";
paths = (
{
closed = 1;
nodes = (
"52 -228 LINE",
"107 3 LINE",
"107 1 OFFCURVE",
"167 -9 OFFCURVE",
"221 -9 CURVE SMOOTH",
"364 -9 OFFCURVE",
"435 85 OFFCURVE",
"482 260 CURVE SMOOTH",
"509 358 OFFCURVE",
"510 509 OFFCURVE",
"378 509 CURVE SMOOTH",
"302 509 OFFCURVE",
"222 449 OFFCURVE",
"209 438 CURVE",
"279 728 LINE",
"245 728 LINE",
"19 -228 LINE"
);
},
{
closed = 1;
nodes = (
"114 39 LINE",
"198 395 LINE {name = hr00;}",
"198 393 OFFCURVE",
"287 473 OFFCURVE",
"371 473 CURVE SMOOTH",
"471 473 OFFCURVE",
"470 339 OFFCURVE",
"448 261 CURVE SMOOTH",
"403 102 OFFCURVE",
"349 27 OFFCURVE",
"227 27 CURVE"
);
}
);
width = 475;
},
{
layerId = "7271F2A9-EB19-499E-973E-7497F9144823";
paths = (
{
closed = 1;
nodes = (
"130 -208 LINE",
"177 -7 LINE",
"177 -9 OFFCURVE",
"213 -12 OFFCURVE",
"248 -12 CURVE SMOOTH",
"389 -12 OFFCURVE",
"467 50 OFFCURVE",
"523 255 CURVE SMOOTH",
"553 364 OFFCURVE",
"549 511 OFFCURVE",
"394 511 CURVE SMOOTH",
"343 511 OFFCURVE",
"294 470 OFFCURVE",
"291 469 CURVE",
"344 698 LINE",
"218 698 LINE",
"4 -208 LINE"
);
},
{
closed = 1;
nodes = (
"206 113 LINE",
"262 350 LINE {name = hr00;}",
"262 348 OFFCURVE",
"317 388 OFFCURVE",
"349 388 CURVE SMOOTH",
"416 388 OFFCURVE",
"407 305 OFFCURVE",
"394 255 CURVE SMOOTH",
"371 166 OFFCURVE",
"335 107 OFFCURVE",
"273 107 CURVE"
);
}
);
width = 495;
}
);
leftKerningGroup = b;
rightKerningGroup = b;
unicode = 00FE;
},
{
glyphname = q;
layers = (
{
layerId = "B420756C-160B-4E3B-8A8F-018354DD19AA";
paths = (
{
closed = 1;
nodes = (
"355 -220 LINE",
"519 489 LINE",
"473 498 OFFCURVE",
"392 509 OFFCURVE",
"342 509 CURVE SMOOTH",
"183 509 OFFCURVE",
"94 281 OFFCURVE",
"94 120 CURVE SMOOTH",
"94 39 OFFCURVE",
"132 -9 OFFCURVE",
"213 -9 CURVE SMOOTH {name = hr00;}",
"283 -9 OFFCURVE",
"359 61 OFFCURVE",
"397 113 CURVE",
"321 -220 LINE"
);
},
{
closed = 1;
nodes = (
"157 24 OFFCURVE",
"131 57 OFFCURVE",
"131 122 CURVE SMOOTH",
"131 266 OFFCURVE",
"207 477 OFFCURVE",
"342 477 CURVE SMOOTH",
"392 477 OFFCURVE",
"449 468 OFFCURVE",
"478 462 CURVE",
"411 171 LINE",
"365 108 OFFCURVE",
"282 24 OFFCURVE",
"222 24 CURVE SMOOTH"
);
}
);
width = 479;
},
{
layerId = "7271F2A9-EB19-499E-973E-7497F9144823";
paths = (
{
closed = 1;
nodes = (
"425 -210 LINE",
"583 478 LINE",
"512 492 OFFCURVE",
"394 511 OFFCURVE",
"332 511 CURVE SMOOTH",
"170 511 OFFCURVE",
"80 334 OFFCURVE",
"80 162 CURVE SMOOTH",
"80 54 OFFCURVE",
"129 -12 OFFCURVE",
"224 -12 CURVE SMOOTH {name = hr00;}",
"277 -12 OFFCURVE",
"328 25 OFFCURVE",
"352 53 CURVE",
"291 -210 LINE"
);
},
{
closed = 1;
nodes = (
"231 102 OFFCURVE",
"216 130 OFFCURVE",
"216 166 CURVE SMOOTH",
"216 265 OFFCURVE",
"261 397 OFFCURVE",
"331 397 CURVE SMOOTH",
"359 397 OFFCURVE",
"403 389 OFFCURVE",
"428 383 CURVE",
"380 174 LINE",
"347 143 OFFCURVE",
"294 102 OFFCURVE",
"267 102 CURVE SMOOTH"
);
}
);
width = 526;
}
);
leftKerningGroup = a;
rightKerningGroup = u;
unicode = 0071;
},
{
glyphname = r;
layers = (
{
layerId = "B420756C-160B-4E3B-8A8F-018354DD19AA";
paths = (
{
closed = 1;
nodes = (
"109 0 LINE",
"199 389 LINE",
"252 419 OFFCURVE",
"342 463 OFFCURVE",
"396 475 CURVE",
"404 510 LINE",
"333 493 OFFCURVE",
"250 451 OFFCURVE",
"207 424 CURVE",
"224 500 LINE",
"190 500 LINE",
"73 0 LINE {name = hr00;}"
);
}
);
width = 304;
},
{
layerId = "7271F2A9-EB19-499E-973E-7497F9144823";
paths = (
{
closed = 1;
nodes = (
"189 0 LINE",
"262 315 LINE",
"302 333 OFFCURVE",
"367 361 OFFCURVE",
"403 372 CURVE",
"442 512 LINE",
"387 505 OFFCURVE",
"320 460 OFFCURVE",
"285 428 CURVE",
"303 500 LINE",
"170 500 LINE",
"55 0 LINE {name = hr00;}"
);
}
);
width = 334;
}
);
leftKerningGroup = n;
rightKerningGroup = r;
unicode = 0072;
},
{
glyphname = s;
layers = (
{
layerId = "B420756C-160B-4E3B-8A8F-018354DD19AA";
paths = (
{
closed = 1;
nodes = (
"318 -9 OFFCURVE",
"415 50 OFFCURVE",
"415 168 CURVE SMOOTH",
"415 239 OFFCURVE",
"366.965 254.843 OFFCURVE",
"276 275 CURVE SMOOTH",
"190.965 293.843 OFFCURVE",
"170 307 OFFCURVE",
"170 348 CURVE SMOOTH",
"170 416 OFFCURVE",
"228 477 OFFCURVE",
"317 477 CURVE SMOOTH",
"364 477 OFFCURVE",
"432 470 OFFCURVE",
"470 464 CURVE",
"479 495 LINE {name = hr00;}",
"439 501 OFFCURVE",
"370 509 OFFCURVE",
"324 509 CURVE SMOOTH",
"209 509 OFFCURVE",
"134 434 OFFCURVE",
"134 342 CURVE SMOOTH",
"134 278 OFFCURVE",
"178.036 261.164 OFFCURVE",
"261 243 CURVE SMOOTH",
"347.036 224.164 OFFCURVE",
"379 215 OFFCURVE",
"379 161 CURVE SMOOTH",
"379 65 OFFCURVE",
"298 23 OFFCURVE",
"208 23 CURVE",
"166 23 OFFCURVE",
"100 32 OFFCURVE",
"61 39 CURVE",
"54 7 LINE",
"90 0 OFFCURVE",
"156 -9 OFFCURVE",
"203 -9 CURVE SMOOTH"
);
}
);
width = 427;
},
{
layerId = "7271F2A9-EB19-499E-973E-7497F9144823";
paths = (
{
closed = 1;
nodes = (
"349 -12 OFFCURVE",
"444 48 OFFCURVE",
"444 178 CURVE SMOOTH",
"444 255 OFFCURVE",
"396.027 274.085 OFFCURVE",
"311 301 CURVE SMOOTH",
"257.027 318.085 OFFCURVE",
"240 326 OFFCURVE",
"240 348 CURVE SMOOTH",
"240 375 OFFCURVE",
"261 397 OFFCURVE",
"302 397 CURVE SMOOTH",
"349 397 OFFCURVE",
"426 388 OFFCURVE",
"470 381 CURVE",
"494 480 LINE {name = hr00;}",
"462 493 OFFCURVE",
"391 511 OFFCURVE",
"314 511 CURVE SMOOTH",
"206 511 OFFCURVE",
"106 443 OFFCURVE",
"106 313 CURVE SMOOTH",
"106 241 OFFCURVE",
"160.025 213.087 OFFCURVE",
"245 189 CURVE SMOOTH",
"287.025 177.087 OFFCURVE",
"307 169 OFFCURVE",
"307 151 CURVE SMOOTH",
"307 123 OFFCURVE",
"289 102 OFFCURVE",
"234 102 CURVE",
"185 102 OFFCURVE",
"112 112 OFFCURVE",
"71 120 CURVE",
"46 22 LINE",
"79 7 OFFCURVE",
"148 -12 OFFCURVE",
"219 -12 CURVE SMOOTH"
);
}
);
width = 432;
}
);
leftKerningGroup = s;
rightKerningGroup = s;
unicode = 0073;
},
{
glyphname = germandbls;
layers = (
{
layerId = "B420756C-160B-4E3B-8A8F-018354DD19AA";
paths = (
{
closed = 1;
nodes = (
"443 -9 OFFCURVE",
"524 76 OFFCURVE",
"524 203 CURVE SMOOTH",
"524 272 OFFCURVE",
"500 290 OFFCURVE",
"426 335 CURVE SMOOTH",
"375 366 OFFCURVE",
"366 378 OFFCURVE",
"366 405 CURVE SMOOTH",
"366 431 OFFCURVE",
"388 446 OFFCURVE",
"444 476 CURVE SMOOTH",
"500 506 OFFCURVE",
"544 549 OFFCURVE",
"544 635 CURVE SMOOTH",
"544 701 OFFCURVE",
"501 739 OFFCURVE",
"403 739 CURVE SMOOTH",
"288 739 OFFCURVE",
"233 684 OFFCURVE",
"198 535 CURVE",
"73 0 LINE {name = hr00;}",
"107 0 LINE",
"231 532 LINE SMOOTH",
"260 657 OFFCURVE",
"300 707 OFFCURVE",
"402 707 CURVE SMOOTH",
"480 707 OFFCURVE",
"508 682 OFFCURVE",
"508 630 CURVE SMOOTH",
"508 568 OFFCURVE",
"480 532 OFFCURVE",
"430 505 CURVE SMOOTH",
"352 463 OFFCURVE",
"331 444 OFFCURVE",
"331 400 CURVE SMOOTH",
"331 368 OFFCURVE",
"346 345 OFFCURVE",
"402 311 CURVE SMOOTH",
"472 268 OFFCURVE",
"488 250 OFFCURVE",
"488 202 CURVE SMOOTH",
"488 93 OFFCURVE",
"418 23 OFFCURVE",
"301 23 CURVE SMOOTH",
"273 23 OFFCURVE",
"226 31 OFFCURVE",
"199 37 CURVE",
"194 5 LINE",
"219 -1 OFFCURVE",
"264 -9 OFFCURVE",
"297 -9 CURVE SMOOTH"
);
}
);
width = 522;
},
{
layerId = "7271F2A9-EB19-499E-973E-7497F9144823";
paths = (
{
closed = 1;
nodes = (
"505 -12 OFFCURVE",
"583 62 OFFCURVE",
"583 180 CURVE SMOOTH",
"583 247 OFFCURVE",
"558 264 OFFCURVE",
"507 297 CURVE SMOOTH",
"453 332 OFFCURVE",
"441 341 OFFCURVE",
"441 362 CURVE SMOOTH",
"441 389 OFFCURVE",
"465 401 OFFCURVE",
"531 427 CURVE SMOOTH",
"603 455 OFFCURVE",
"622 502 OFFCURVE",
"622 567 CURVE SMOOTH",
"622 659 OFFCURVE",
"554 712 OFFCURVE",
"424 712 CURVE SMOOTH",
"288 712 OFFCURVE",
"213 670 OFFCURVE",
"177 520 CURVE",
"54 0 LINE {name = hr00;}",
"180 0 LINE",
"298 502 LINE SMOOTH",
"314 571 OFFCURVE",
"347 598 OFFCURVE",
"410 598 CURVE SMOOTH",
"462 598 OFFCURVE",
"486 579 OFFCURVE",
"486 553 CURVE SMOOTH",
"486 525 OFFCURVE",
"475 516 OFFCURVE",
"411 486 CURVE SMOOTH",
"344 455 OFFCURVE",
"305 419 OFFCURVE",
"305 337 CURVE SMOOTH",
"305 285 OFFCURVE",
"325 260 OFFCURVE",
"387 223 CURVE SMOOTH",
"439 192 OFFCURVE",
"447 185 OFFCURVE",
"447 161 CURVE SMOOTH",
"447 132 OFFCURVE",
"423 102 OFFCURVE",
"361 102 CURVE SMOOTH",
"327 102 OFFCURVE",
"275 109 OFFCURVE",
"245 114 CURVE",
"216 16 LINE",
"253 4 OFFCURVE",
"323 -12 OFFCURVE",
"377 -12 CURVE SMOOTH"
);
}
);
width = 564;
}
);
leftKerningGroup = h;
unicode = 00DF;
},
{
glyphname = t;
layers = (
{
layerId = "B420756C-160B-4E3B-8A8F-018354DD19AA";
paths = (
{
closed = 1;
nodes = (
"244 -9 OFFCURVE",
"283 -4 OFFCURVE",
"305 -1 CURVE",
"307 30 LINE",
"282 27 OFFCURVE",
"242 23 OFFCURVE",
"223 23 CURVE SMOOTH",
"178 23 OFFCURVE",
"159 47 OFFCURVE",
"159 82 CURVE SMOOTH",
"159 109 OFFCURVE",
"166 148 OFFCURVE",
"174 182 CURVE SMOOTH",
"241 468 LINE",
"404 468 LINE {name = hr00;}",
"412 500 LINE",
"249 500 LINE",
"289 662 LINE",
"254 662 LINE",
"215 500 LINE",
"141 500 LINE",
"133 468 LINE",
"206 468 LINE",
"139 182 LINE",
"131 150 OFFCURVE",
"122 111 OFFCURVE",
"122 77 CURVE SMOOTH",
"122 18 OFFCURVE",
"159 -9 OFFCURVE",
"218 -9 CURVE SMOOTH"
);
}
);
width = 311;
},
{
layerId = "7271F2A9-EB19-499E-973E-7497F9144823";
paths = (
{
closed = 1;
nodes = (
"255 -12 OFFCURVE",
"301 1 OFFCURVE",
"324 11 CURVE",
"335 107 LINE",
"317 105 OFFCURVE",
"286 102 OFFCURVE",
"267 102 CURVE SMOOTH",
"246 102 OFFCURVE",
"238 111 OFFCURVE",
"238 130 CURVE SMOOTH",
"238 144 OFFCURVE",
"242 169 OFFCURVE",
"246 186 CURVE SMOOTH",
"292 386 LINE",
"396 386 LINE {name = hr00;}",
"424 500 LINE",
"319 500 LINE",
"348 628 LINE",
"214 628 LINE",
"185 500 LINE",
"134 500 LINE",
"104 386 LINE",
"158 386 LINE",
"114 198 LINE",
"106 165 OFFCURVE",
"99 127 OFFCURVE",
"99 96 CURVE SMOOTH",
"99 37 OFFCURVE",
"137 -12 OFFCURVE",
"212 -12 CURVE SMOOTH"
);
}
);
width = 329;
}
);
leftKerningGroup = t;
rightKerningGroup = t;
unicode = 0074;
},
{
glyphname = tbar;
layers = (
{
components = (
{
name = t;
transform = "{1, 0, 0, 1, 3, 0}";
}
);
layerId = "B420756C-160B-4E3B-8A8F-018354DD19AA";
paths = (
{
closed = 1;
nodes = (
"363 291 LINE",
"372 323 LINE",
"119 323 LINE",
"111 291 LINE {name = hr00;}"
);
}
);
width = 316;
},
{
components = (
{
name = t;
transform = "{1, 0, 0, 1, 2, 0}";
}
);
layerId = "7271F2A9-EB19-499E-973E-7497F9144823";
paths = (
{
closed = 1;
nodes = (
"344 200 LINE",
"369 316 LINE",
"91 316 LINE",
"66 200 LINE {name = hr00;}"
);
}
);
width = 332;
}
);
leftKerningGroup = t;
rightKerningGroup = t;
unicode = 0167;
},
{
glyphname = tcaron;
layers = (
{
components = (
{
name = t;
}
);
layerId = "B420756C-160B-4E3B-8A8F-018354DD19AA";
paths = (
{
closed = 1;
nodes = (
"476 480 LINE",
"527 700 LINE {name = hr00;}",
"495 700 LINE",
"444 480 LINE"
);
}
);
width = 362;
},
{
components = (
{
name = t;
}
);
layerId = "7271F2A9-EB19-499E-973E-7497F9144823";
paths = (
{
closed = 1;
nodes = (
"571 429 LINE",
"631 680 LINE {name = hr00;}",
"509 680 LINE",
"448 429 LINE"
);
}
);
width = 464;
}
);
leftKerningGroup = t;
unicode = 0165;
},
{
glyphname = u;
layers = (
{
layerId = "B420756C-160B-4E3B-8A8F-018354DD19AA";
paths = (
{
closed = 1;
nodes = (
"292 -9 OFFCURVE",
"368 61 OFFCURVE",
"405 113 CURVE",
"379 0 LINE",
"414 0 LINE",
"530 500 LINE",
"495 500 LINE {name = hr00;}",
"418 170 LINE",
"374 107 OFFCURVE",
"291 24 OFFCURVE",
"226 24 CURVE SMOOTH",
"172 24 OFFCURVE",
"140 56 OFFCURVE",
"140 110 CURVE SMOOTH",
"140 152 OFFCURVE",
"150 205 OFFCURVE",
"159 242 CURVE SMOOTH",
"219 500 LINE",
"185 500 LINE",
"124 240 LINE",
"115 200 OFFCURVE",
"105 153 OFFCURVE",
"105 107 CURVE SMOOTH",
"105 35 OFFCURVE",
"149 -9 OFFCURVE",
"220 -9 CURVE SMOOTH"
);
}
);
width = 488;
},
{
layerId = "7271F2A9-EB19-499E-973E-7497F9144823";
paths = (
{
closed = 1;
nodes = (
"257 -12 OFFCURVE",
"310 23 OFFCURVE",
"336 49 CURVE",
"330 0 LINE",
"458 0 LINE",
"573 500 LINE",
"439 500 LINE {name = hr00;}",
"362 164 LINE",
"335 138 OFFCURVE",
"290 104 OFFCURVE",
"267 104 CURVE SMOOTH",
"233 104 OFFCURVE",
"226 125 OFFCURVE",
"226 162 CURVE SMOOTH",
"226 185 OFFCURVE",
"238 240 OFFCURVE",
"244 265 CURVE SMOOTH",
"298 500 LINE",
"164 500 LINE",
"108 255 LINE",
"101 226 OFFCURVE",
"87 162 OFFCURVE",
"87 129 CURVE SMOOTH",
"87 51 OFFCURVE",
"118 -12 OFFCURVE",
"209 -12 CURVE SMOOTH"
);
}
);
width = 513;
}
);
leftKerningGroup = u;
rightKerningGroup = u;
unicode = 0075;
},
{
glyphname = ucircumflex;
layers = (
{
components = (
{
name = u;
}
);
layerId = "B420756C-160B-4E3B-8A8F-018354DD19AA";
paths = (
{
closed = 1;
nodes = (
"278 595 LINE",
"388 696 LINE",
"452 595 LINE",
"490 595 LINE",
"403 730 LINE",
"381 730 LINE",
"235 595 LINE"
);
}
);
width = 488;
},
{
components = (
{
name = u;
}
);
layerId = "7271F2A9-EB19-499E-973E-7497F9144823";
paths = (
{
closed = 1;
nodes = (
"337 575 LINE",
"395 639 LINE",
"419 575 LINE",
"551 575 LINE",
"465 750 LINE",
"365 750 LINE",
"197 575 LINE"
);
}
);
width = 513;
}
);
leftKerningGroup = u;
rightKerningGroup = u;
unicode = 00FB;
},
{
glyphname = udieresis;
layers = (
{
components = (
{
name = u;
}
);
layerId = "B420756C-160B-4E3B-8A8F-018354DD19AA";
paths = (
{
closed = 1;
nodes = (
"304 633 LINE",
"319 698 LINE",
"285 698 LINE",
"270 633 LINE"
);
},
{
closed = 1;
nodes = (
"482 633 LINE",
"497 698 LINE",
"463 698 LINE",
"450 633 LINE"
);
}
);
width = 488;
},
{
components = (
{
name = u;
}
);
layerId = "7271F2A9-EB19-499E-973E-7497F9144823";
paths = (
{
closed = 1;
nodes = (
"540 601 LINE",
"572 736 LINE",
"451 736 LINE",
"420 601 LINE"
);
},
{
closed = 1;
nodes = (
"336 601 LINE",
"368 736 LINE",
"247 736 LINE",
"216 601 LINE"
);
}
);
width = 513;
}
);
leftKerningGroup = u;
rightKerningGroup = u;
unicode = 00FC;
},
{
glyphname = uogonek;
layers = (
{
layerId = "B420756C-160B-4E3B-8A8F-018354DD19AA";
paths = (
{
closed = 1;
nodes = (
"292 -9 OFFCURVE",
"368 61 OFFCURVE",
"405 113 CURVE",
"379 0 LINE",
"414 0 LINE",
"530 500 LINE",
"495 500 LINE {name = hr01;}",
"418 170 LINE",
"374 107 OFFCURVE",
"291 24 OFFCURVE",
"226 24 CURVE SMOOTH",
"172 24 OFFCURVE",
"140 56 OFFCURVE",
"140 110 CURVE SMOOTH",
"140 152 OFFCURVE",
"150 205 OFFCURVE",
"159 242 CURVE SMOOTH",
"219 500 LINE",
"185 500 LINE",
"124 240 LINE",
"115 200 OFFCURVE",
"105 153 OFFCURVE",
"105 107 CURVE SMOOTH",
"105 35 OFFCURVE",
"149 -9 OFFCURVE",
"220 -9 CURVE SMOOTH"
);
},
{
closed = 1;
nodes = (
"350 -198 OFFCURVE",
"378 -193 OFFCURVE",
"393 -190 CURVE",
"397 -158 LINE",
"381 -161 OFFCURVE",
"355 -165 OFFCURVE",
"341 -165 CURVE SMOOTH",
"321 -165 OFFCURVE",
"309 -157 OFFCURVE",
"309 -141 CURVE SMOOTH",
"309 -97 OFFCURVE",
"380 -27 OFFCURVE",
"414 0 CURVE",
"382 10 LINE",
"349 -17 OFFCURVE",
"269 -92 OFFCURVE",
"269 -144 CURVE SMOOTH",
"269 -176 OFFCURVE",
"288 -198 OFFCURVE",
"331 -198 CURVE SMOOTH"
);
}
);
width = 488;
},
{
layerId = "7271F2A9-EB19-499E-973E-7497F9144823";
paths = (
{
closed = 1;
nodes = (
"257 -12 OFFCURVE",
"310 23 OFFCURVE",
"336 49 CURVE",
"330 0 LINE",
"458 0 LINE",
"573 500 LINE",
"439 500 LINE {name = hr01;}",
"362 164 LINE",
"335 138 OFFCURVE",
"290 104 OFFCURVE",
"267 104 CURVE SMOOTH",
"233 104 OFFCURVE",
"226 125 OFFCURVE",
"226 162 CURVE SMOOTH",
"226 185 OFFCURVE",
"238 240 OFFCURVE",
"244 265 CURVE SMOOTH",
"298 500 LINE",
"164 500 LINE",
"108 255 LINE",
"101 226 OFFCURVE",
"87 162 OFFCURVE",
"87 129 CURVE SMOOTH",
"87 51 OFFCURVE",
"118 -12 OFFCURVE",
"209 -12 CURVE SMOOTH"
);
},
{
closed = 1;
nodes = (
"352 -214 OFFCURVE",
"395 -208 OFFCURVE",
"420 -203 CURVE",
"433 -93 LINE",
"420 -94 OFFCURVE",
"401 -96 OFFCURVE",
"396 -96 CURVE SMOOTH",
"386 -96 OFFCURVE",
"383 -89 OFFCURVE",
"383 -82 CURVE SMOOTH",
"383 -58 OFFCURVE",
"432 -14 OFFCURVE",
"458 0 CURVE",
"349 15 LINE",
"314 -9 OFFCURVE",
"239 -76 OFFCURVE",
"239 -137 CURVE SMOOTH",
"239 -188 OFFCURVE",
"271 -214 OFFCURVE",
"322 -214 CURVE SMOOTH"
);
}
);
width = 513;
}
);
leftKerningGroup = u;
rightKerningGroup = u;
unicode = 0173;
},
{
glyphname = v;
layers = (
{
layerId = "B420756C-160B-4E3B-8A8F-018354DD19AA";
paths = (
{
closed = 1;
nodes = (
"266 0 LINE",
"532 500 LINE",
"494 500 LINE",
"246 32 LINE",
"206 32 LINE",
"183 500 LINE",
"147 500 LINE {name = hr00;}",
"172 0 LINE"
);
}
);
width = 448;
},
{
layerId = "7271F2A9-EB19-499E-973E-7497F9144823";
paths = (
{
closed = 1;
nodes = (
"332 0 LINE",
"567 500 LINE",
"432 500 LINE",
"261 111 LINE",
"243 111 LINE",
"257 500 LINE",
"126 500 LINE {name = hr00;}",
"122 0 LINE"
);
}
);
width = 463;
}
);
unicode = 0076;
},
{
glyphname = w;
layers = (
{
layerId = "B420756C-160B-4E3B-8A8F-018354DD19AA";
paths = (
{
closed = 1;
nodes = (
"229 0 LINE",
"456 447 LINE",
"473 0 LINE",
"547 0 LINE",
"789 500 LINE",
"752 500 LINE",
"525 32 LINE",
"508 32 LINE",
"488 490 LINE",
"443 490 LINE",
"207 32 LINE",
"191 32 LINE",
"185 500 LINE",
"150 500 LINE {name = hr00;}",
"157 0 LINE"
);
}
);
width = 710;
},
{
layerId = "7271F2A9-EB19-499E-973E-7497F9144823";
paths = (
{
closed = 1;
nodes = (
"325 0 LINE",
"451 311 LINE",
"432 0 LINE",
"655 0 LINE",
"859 500 LINE",
"724 500 LINE",
"575 114 LINE",
"552 114 LINE",
"572 490 LINE",
"420 490 LINE",
"261 114 LINE",
"238 114 LINE",
"270 500 LINE",
"135 500 LINE {name = hr00;}",
"106 0 LINE"
);
}
);
width = 762;
}
);
leftKerningGroup = w;
rightKerningGroup = w;
unicode = 0077;
},
{
glyphname = x;
layers = (
{
layerId = "B420756C-160B-4E3B-8A8F-018354DD19AA";
paths = (
{
closed = 1;
nodes = (
"70 0 LINE",
"258 223 LINE",
"341 0 LINE",
"380 0 LINE",
"286 247 LINE",
"502 500 LINE",
"459 500 LINE",
"269 273 LINE",
"183 500 LINE",
"145 500 LINE",
"240 250 LINE",
"27 0 LINE"
);
}
);
width = 411;
},
{
layerId = "7271F2A9-EB19-499E-973E-7497F9144823";
paths = (
{
closed = 1;
nodes = (
"145 0 LINE",
"247 147 LINE",
"286 0 LINE",
"422 0 LINE",
"342 240 LINE",
"539 500 LINE",
"403 500 LINE",
"299 347 LINE",
"260 500 LINE",
"124 500 LINE",
"202 250 LINE",
"6 0 LINE"
);
}
);
width = 430;
}
);
unicode = 0078;
},
{
glyphname = y;
layers = (
{
layerId = "B420756C-160B-4E3B-8A8F-018354DD19AA";
paths = (
{
closed = 1;
nodes = (
"145 -228 LINE",
"532 500 LINE",
"494 500 LINE",
"246 32 LINE",
"206 32 LINE",
"183 500 LINE",
"147 500 LINE {name = hr00;}",
"172 0 LINE",
"230 0 LINE",
"107 -228 LINE"
);
}
);
width = 448;
},
{
layerId = "7271F2A9-EB19-499E-973E-7497F9144823";
paths = (
{
closed = 1;
nodes = (
"235 -210 LINE",
"567 500 LINE",
"432 500 LINE",
"258 111 LINE",
"243 111 LINE",
"257 500 LINE",
"126 500 LINE {name = hr00;}",
"122 0 LINE",
"205 0 LINE",
"102 -210 LINE"
);
}
);
width = 464;
}
);
leftKerningGroup = y;
rightKerningGroup = y;
unicode = 0079;
},
{
glyphname = ydieresis;
layers = (
{
components = (
{
name = y;
}
);
layerId = "B420756C-160B-4E3B-8A8F-018354DD19AA";
paths = (
{
closed = 1;
nodes = (
"282 633 LINE",
"297 698 LINE",
"263 698 LINE",
"248 633 LINE"
);
},
{
closed = 1;
nodes = (
"460 633 LINE",
"475 698 LINE",
"441 698 LINE",
"428 633 LINE"
);
}
);
width = 448;
},
{
components = (
{
name = y;
}
);
layerId = "7271F2A9-EB19-499E-973E-7497F9144823";
paths = (
{
closed = 1;
nodes = (
"522 601 LINE",
"554 736 LINE",
"433 736 LINE",
"402 601 LINE"
);
},
{
closed = 1;
nodes = (
"318 601 LINE",
"350 736 LINE",
"229 736 LINE",
"198 601 LINE"
);
}
);
width = 464;
}
);
leftKerningGroup = y;
rightKerningGroup = y;
unicode = 00FF;
},
{
glyphname = z;
layers = (
{
layerId = "B420756C-160B-4E3B-8A8F-018354DD19AA";
paths = (
{
closed = 1;
nodes = (
"380 0 LINE",
"387 32 LINE",
"90 32 LINE",
"490 468 LINE",
"495 500 LINE",
"156 500 LINE {name = hr00;}",
"148 468 LINE",
"444 468 LINE",
"44 32 LINE",
"41 0 LINE"
);
}
);
width = 420;
},
{
layerId = "7271F2A9-EB19-499E-973E-7497F9144823";
paths = (
{
closed = 1;
nodes = (
"379 0 LINE",
"408 114 LINE",
"216 114 LINE",
"468 389 LINE",
"496 500 LINE",
"151 500 LINE {name = hr00;}",
"122 386 LINE",
"310 386 LINE",
"59 112 LINE",
"34 0 LINE"
);
}
);
width = 414;
}
);
leftKerningGroup = z;
rightKerningGroup = z;
unicode = 007A;
},
{
glyphname = ordfeminine;
layers = (
{
layerId = "B420756C-160B-4E3B-8A8F-018354DD19AA";
paths = (
{
closed = 1;
nodes = (
"398 415 LINE",
"384 418 OFFCURVE",
"371 424 OFFCURVE",
"366 437 CURVE {name = hr00;}",
"398 570 LINE SMOOTH",
"413 633 OFFCURVE",
"391 660 OFFCURVE",
"333 660 CURVE SMOOTH",
"307 660 OFFCURVE",
"257 655 OFFCURVE",
"226 652 CURVE",
"226 622 LINE",
"256 625 OFFCURVE",
"304 630 OFFCURVE",
"331 630 CURVE SMOOTH",
"370 630 OFFCURVE",
"378 619 OFFCURVE",
"368 574 CURVE SMOOTH",
"336 433 LINE",
"345 407 OFFCURVE",
"356 393 OFFCURVE",
"388 386 CURVE"
);
},
{
closed = 1;
nodes = (
"263 387 OFFCURVE",
"321 400 OFFCURVE",
"352 410 CURVE",
"346 440 LINE",
"317 431 OFFCURVE",
"263 417 OFFCURVE",
"221 417 CURVE SMOOTH",
"199 417 OFFCURVE",
"189 433 OFFCURVE",
"196 464 CURVE SMOOTH",
"203 497 OFFCURVE",
"220 511 OFFCURVE",
"255 513 CURVE SMOOTH",
"357 520 LINE",
"362 550 LINE",
"257 543 LINE SMOOTH",
"206 540 OFFCURVE",
"178 517 OFFCURVE",
"167 470 CURVE SMOOTH",
"155 420 OFFCURVE",
"178 387 OFFCURVE",
"220 387 CURVE SMOOTH"
);
}
);
width = 354;
},
{
layerId = "7271F2A9-EB19-499E-973E-7497F9144823";
paths = (
{
closed = 1;
nodes = (
"415 394 LINE",
"408 395 OFFCURVE",
"403 395 OFFCURVE",
"399 399 CURVE",
"436 538 LINE",
"456 625 OFFCURVE",
"408 659 OFFCURVE",
"307 659 CURVE",
"258 659 OFFCURVE",
"211 652 OFFCURVE",
"160 635 CURVE",
"156 558 LINE",
"198 561 OFFCURVE",
"264 564 OFFCURVE",
"293 564 CURVE",
"317 566 OFFCURVE",
"327 566 OFFCURVE",
"325 556 CURVE",
"283 375 LINE",
"271 325 OFFCURVE",
"326 313 OFFCURVE",
"405 313 CURVE"
);
},
{
closed = 1;
nodes = (
"229 314 OFFCURVE",
"271 329 OFFCURVE",
"313 364 CURVE",
"374 450 LINE",
"264 415 OFFCURVE",
"260 402 OFFCURVE",
"231 402 CURVE SMOOTH",
"215 402 OFFCURVE",
"211 405 OFFCURVE",
"213 415 CURVE SMOOTH",
"218 438 OFFCURVE",
"238 452 OFFCURVE",
"259 454 CURVE SMOOTH",
"348 461 LINE",
"364 530 LINE",
"245 525 LINE SMOOTH",
"159 521 OFFCURVE",
"116 494 OFFCURVE",
"103 434 CURVE SMOOTH",
"88 364 OFFCURVE",
"119 314 OFFCURVE",
"190 314 CURVE SMOOTH"
);
}
);
width = 329;
}
);
unicode = 00AA;
userData = {
"[LA] versione BOLD  com.typemytype.robofont.guides" = (
{
angle = 0;
isGlobal = 0;
magnetic = 5;
x = 0;
y = 475;
},
{
angle = 90;
isGlobal = 0;
magnetic = 5;
x = 211;
y = 0;
}
);
};
},
{
glyphname = ordmasculine;
layers = (
{
layerId = "B420756C-160B-4E3B-8A8F-018354DD19AA";
paths = (
{
closed = 1;
nodes = (
"335 383 OFFCURVE",
"379 428 OFFCURVE",
"398 515 CURVE SMOOTH",
"403 538 OFFCURVE",
"406 556 OFFCURVE",
"406 580 CURVE SMOOTH",
"406 634 OFFCURVE",
"376 658 OFFCURVE",
"321 658 CURVE SMOOTH",
"243 658 OFFCURVE",
"202 619 OFFCURVE",
"178 522 CURVE SMOOTH",
"173 501 OFFCURVE",
"171 482 OFFCURVE",
"171 466 CURVE SMOOTH",
"171 411 OFFCURVE",
"202 383 OFFCURVE",
"257 383 CURVE SMOOTH"
);
},
{
closed = 1;
nodes = (
"225 419 OFFCURVE",
"206 435 OFFCURVE",
"206 472 CURVE SMOOTH",
"206 486 OFFCURVE",
"208 502 OFFCURVE",
"213 522 CURVE SMOOTH",
"231 596 OFFCURVE",
"260 622 OFFCURVE",
"314 622 CURVE SMOOTH",
"353 622 OFFCURVE",
"370 609 OFFCURVE",
"370 573 CURVE SMOOTH",
"370 560 OFFCURVE",
"369 543 OFFCURVE",
"364 522 CURVE SMOOTH",
"346 447 OFFCURVE",
"318 419 OFFCURVE",
"264 419 CURVE SMOOTH"
);
}
);
width = 339;
},
{
layerId = "7271F2A9-EB19-499E-973E-7497F9144823";
paths = (
{
closed = 1;
nodes = (
"358 314 OFFCURVE",
"421 357 OFFCURVE",
"454 494 CURVE SMOOTH",
"461 523 OFFCURVE",
"465 557 OFFCURVE",
"457 591 CURVE SMOOTH",
"445 641 OFFCURVE",
"377 660 OFFCURVE",
"321 660 CURVE SMOOTH",
"213 660 OFFCURVE",
"147 617 OFFCURVE",
"117 495 CURVE SMOOTH",
"112 475 OFFCURVE",
"109 457 OFFCURVE",
"108 440 CURVE SMOOTH",
"103 362 OFFCURVE",
"153 314 OFFCURVE",
"239 314 CURVE SMOOTH"
);
},
{
closed = 1;
nodes = (
"233 410 OFFCURVE",
"224 422 OFFCURVE",
"224 449 CURVE SMOOTH",
"224 464 OFFCURVE",
"227 479 OFFCURVE",
"232 498 CURVE SMOOTH",
"245 550 OFFCURVE",
"264 568 OFFCURVE",
"301 568 CURVE SMOOTH",
"330 568 OFFCURVE",
"344 556 OFFCURVE",
"344 528 CURVE SMOOTH",
"344 515 OFFCURVE",
"342 504 OFFCURVE",
"339 492 CURVE SMOOTH",
"321 428 OFFCURVE",
"301 410 OFFCURVE",
"263 410 CURVE SMOOTH"
);
}
);
width = 343;
}
);
unicode = 00BA;
userData = {
"[LA] versione BOLD  com.typemytype.robofont.guides" = (
{
angle = 90;
isGlobal = 0;
magnetic = 5;
x = 262;
y = 0;
}
);
};
},
{
glyphname = pi;
layers = (
{
layerId = "B420756C-160B-4E3B-8A8F-018354DD19AA";
paths = (
{
closed = 1;
nodes = (
"583 32 LINE",
"506 32 OFFCURVE",
"484 51 OFFCURVE",
"484 154 CURVE SMOOTH",
"484 475 LINE",
"449 476 LINE",
"449 154 LINE SMOOTH {name = hr00;}",
"449 30 OFFCURVE",
"482 0 OFFCURVE",
"583 0 CURVE"
);
},
{
closed = 1;
nodes = (
"216 0 LINE",
"245 475 LINE",
"211 475 LINE",
"180 0 LINE"
);
},
{
closed = 1;
nodes = (
"106 461 OFFCURVE",
"157 468 OFFCURVE",
"234 467 CURVE",
"240 468 LINE",
"453 468 LINE",
"460 469 LINE",
"532 468 OFFCURVE",
"579 477 OFFCURVE",
"595 484 CURVE",
"595 516 LINE",
"568 509 OFFCURVE",
"511 500 OFFCURVE",
"450 500 CURVE SMOOTH",
"226 500 LINE",
"167 500 OFFCURVE",
"113 493 OFFCURVE",
"89 487 CURVE",
"89 455 LINE"
);
}
);
width = 560;
},
{
layerId = "7271F2A9-EB19-499E-973E-7497F9144823";
paths = (
{
closed = 1;
nodes = (
"587 104 LINE",
"529 104 OFFCURVE",
"518 121 OFFCURVE",
"518 154 CURVE SMOOTH",
"518 420 LINE",
"384 415 LINE",
"384 154 LINE SMOOTH {name = hr00;}",
"384 20 OFFCURVE",
"406 -10 OFFCURVE",
"587 -10 CURVE"
);
},
{
closed = 1;
nodes = (
"273 0 LINE",
"301 411 LINE",
"172 410 LINE",
"138 0 LINE"
);
},
{
closed = 1;
nodes = (
"134 385 OFFCURVE",
"199 394 OFFCURVE",
"188 375 CURVE",
"234 386 LINE",
"393 386 LINE",
"414 393 LINE",
"502 381 OFFCURVE",
"567 391 OFFCURVE",
"592 402 CURVE",
"592 512 LINE",
"570 507 OFFCURVE",
"525 500 OFFCURVE",
"483 500 CURVE SMOOTH",
"232 500 LINE",
"169 500 OFFCURVE",
"110 490 OFFCURVE",
"82 482 CURVE",
"82 373 LINE"
);
}
);
width = 560;
},
{
associatedMasterId = "B420756C-160B-4E3B-8A8F-018354DD19AA";
layerId = "78F9E385-466E-4596-AA11-4D5887190DC9";
name = "Dec 24 17, 00:59";
paths = (
{
closed = 1;
nodes = (
"216 0 LINE",
"245 468 LINE",
"449 468 LINE",
"449 154 LINE {name = hr00;}",
"449 30 OFFCURVE",
"482 0 OFFCURVE",
"583 0 CURVE",
"583 32 LINE",
"506 32 OFFCURVE",
"484 51 OFFCURVE",
"484 154 CURVE SMOOTH",
"484 469 LINE",
"542 470 OFFCURVE",
"582 478 OFFCURVE",
"595 484 CURVE",
"595 516 LINE",
"568 509 OFFCURVE",
"511 500 OFFCURVE",
"450 500 CURVE SMOOTH",
"226 500 LINE",
"167 500 OFFCURVE",
"113 493 OFFCURVE",
"89 487 CURVE",
"89 455 LINE",
"104 460 OFFCURVE",
"146 466 OFFCURVE",
"210 467 CURVE",
"180 0 LINE"
);
}
);
width = 560;
},
{
associatedMasterId = "7271F2A9-EB19-499E-973E-7497F9144823";
layerId = "B79472C6-3853-4412-911E-739D7849E5C8";
name = "Dec 24 17, 00:59";
paths = (
{
closed = 1;
nodes = (
"587 104 LINE",
"529 104 OFFCURVE",
"518 121 OFFCURVE",
"518 154 CURVE SMOOTH",
"518 388 LINE",
"555 390 OFFCURVE",
"582 397 OFFCURVE",
"592 402 CURVE",
"592 512 LINE",
"570 507 OFFCURVE",
"525 500 OFFCURVE",
"483 500 CURVE SMOOTH",
"232 500 LINE",
"169 500 OFFCURVE",
"110 490 OFFCURVE",
"82 482 CURVE",
"82 373 LINE",
"107 379 OFFCURVE",
"147 386 OFFCURVE",
"170 386 CURVE",
"138 0 LINE",
"273 0 LINE",
"299 386 LINE",
"384 386 LINE",
"384 154 LINE {name = hr00;}",
"384 20 OFFCURVE",
"406 -10 OFFCURVE",
"587 -10 CURVE"
);
}
);
width = 560;
}
);
unicode = 03C0;
},
{
glyphname = "hamza-ar";
layers = (
{
anchors = (
{
name = bottom;
position = "{325, -100}";
},
{
name = top;
position = "{175, 549}";
}
);
background = {
anchors = (
{
name = bottom;
position = "{325, -100}";
},
{
name = top;
position = "{175, 549}";
}
);
paths = (
{
closed = 1;
nodes = (
"227 29 LINE",
"155 95 OFFCURVE",
"120 159 OFFCURVE",
"120 227 CURVE SMOOTH",
"120 306 OFFCURVE",
"175 358 OFFCURVE",
"262 358 CURVE SMOOTH",
"304 358 OFFCURVE",
"339 348 OFFCURVE",
"375 328 CURVE",
"389 358 LINE",
"349 381 OFFCURVE",
"305 392 OFFCURVE",
"260 392 CURVE SMOOTH",
"159 392 OFFCURVE",
"86 329 OFFCURVE",
"86 230 CURVE SMOOTH",
"86 153 OFFCURVE",
"121 79 OFFCURVE",
"206 4 CURVE"
);
},
{
closed = 1;
nodes = (
"506 0 LINE",
"498 34 LINE",
"90 34 LINE",
"98 0 LINE"
);
}
);
};
layerId = "B420756C-160B-4E3B-8A8F-018354DD19AA";
paths = (
{
closed = 1;
nodes = (
"227 29 LINE",
"155 95 OFFCURVE",
"120 160 OFFCURVE",
"120 226 CURVE SMOOTH",
"120 307 OFFCURVE",
"174 358 OFFCURVE",
"263 358 CURVE SMOOTH",
"303 358 OFFCURVE",
"339 348 OFFCURVE",
"375 328 CURVE",
"389 358 LINE",
"349 381 OFFCURVE",
"305 392 OFFCURVE",
"261 392 CURVE SMOOTH",
"159 392 OFFCURVE",
"86 331 OFFCURVE",
"86 227 CURVE SMOOTH",
"86 151 OFFCURVE",
"125 75 OFFCURVE",
"206 4 CURVE"
);
},
{
closed = 1;
nodes = (
"506 0 LINE",
"498 34 LINE",
"90 34 LINE",
"98 0 LINE"
);
}
);
width = 498;
},
{
anchors = (
{
name = bottom;
position = "{389, -100}";
},
{
name = top;
position = "{239, 549}";
}
);
background = {
anchors = (
{
name = bottom;
position = "{389, -100}";
},
{
name = top;
position = "{239, 549}";
}
);
paths = (
{
closed = 1;
nodes = (
"324 110 LINE",
"281 150 OFFCURVE",
"252 189 OFFCURVE",
"241 238 CURVE SMOOTH",
"238 250 OFFCURVE",
"237 261 OFFCURVE",
"237 271 CURVE SMOOTH",
"237 324 OFFCURVE",
"272 357 OFFCURVE",
"332 357 CURVE SMOOTH",
"363 357 OFFCURVE",
"387 348 OFFCURVE",
"416 332 CURVE",
"471 439 LINE",
"425 466 OFFCURVE",
"371 477 OFFCURVE",
"322 477 CURVE SMOOTH",
"192 477 OFFCURVE",
"105 393 OFFCURVE",
"105 274 CURVE SMOOTH",
"105 255 OFFCURVE",
"107 235 OFFCURVE",
"112 214 CURVE SMOOTH",
"128 148 OFFCURVE",
"166 86 OFFCURVE",
"240 20 CURVE"
);
},
{
closed = 1;
nodes = (
"633 0 LINE",
"605 120 LINE",
"70 120 LINE",
"98 0 LINE"
);
}
);
};
layerId = "7271F2A9-EB19-499E-973E-7497F9144823";
paths = (
{
closed = 1;
nodes = (
"324 110 LINE",
"269 162 OFFCURVE",
"237 215 OFFCURVE",
"237 269 CURVE SMOOTH",
"237 325 OFFCURVE",
"272 357 OFFCURVE",
"332 357 CURVE SMOOTH",
"363 357 OFFCURVE",
"387 348 OFFCURVE",
"416 332 CURVE",
"471 439 LINE",
"425 466 OFFCURVE",
"371 477 OFFCURVE",
"323 477 CURVE SMOOTH",
"192 477 OFFCURVE",
"105 394 OFFCURVE",
"105 273 CURVE SMOOTH",
"105 194 OFFCURVE",
"142 107 OFFCURVE",
"240 20 CURVE"
);
},
{
closed = 1;
nodes = (
"633 0 LINE",
"605 120 LINE",
"70 120 LINE",
"98 0 LINE"
);
}
);
width = 605;
},
{
anchors = (
{
name = bottom;
position = "{327, -100}";
},
{
name = top;
position = "{327, 575}";
}
);
associatedMasterId = "B420756C-160B-4E3B-8A8F-018354DD19AA";
layerId = "2D07D9D6-DD7A-4EF1-82E8-8B18836F0AAC";
paths = (
{
closed = 1;
nodes = (
"344 161 LINE",
"322 185 OFFCURVE",
"313 207 OFFCURVE",
"313 234 CURVE SMOOTH",
"313 282 OFFCURVE",
"348 317 OFFCURVE",
"395 317 CURVE SMOOTH",
"413 317 OFFCURVE",
"428 313 OFFCURVE",
"443 303 CURVE",
"565 461 LINE",
"524 487 OFFCURVE",
"454 505 OFFCURVE",
"395 505 CURVE SMOOTH",
"226 505 OFFCURVE",
"89 387 OFFCURVE",
"89 234 CURVE SMOOTH",
"89 159 OFFCURVE",
"115 105 OFFCURVE",
"176 37 CURVE"
);
},
{
closed = 1;
nodes = (
"613 0 LINE",
"613 188 LINE",
"40 188 LINE",
"40 0 LINE"
);
}
);
width = 633;
},
{
associatedMasterId = "7271F2A9-EB19-499E-973E-7497F9144823";
layerId = "85EC8C13-5D7F-4A2F-8D94-211E32F0E5BF";
name = "Dec 8 17, 12:11";
paths = (
{
closed = 1;
nodes = (
"251 85 LINE",
"215 125 OFFCURVE",
"199 163 OFFCURVE",
"199 206 CURVE SMOOTH",
"199 283 OFFCURVE",
"252 337 OFFCURVE",
"326 337 CURVE SMOOTH",
"355 337 OFFCURVE",
"375 331 OFFCURVE",
"400 315 CURVE",
"389 296 LINE",
"463 484 LINE",
"473 415 LINE",
"432 442 OFFCURVE",
"378 457 OFFCURVE",
"326 457 CURVE SMOOTH",
"178 457 OFFCURVE",
"65 349 OFFCURVE",
"65 206 CURVE SMOOTH",
"65 134 OFFCURVE",
"93 71 OFFCURVE",
"151 5 CURVE"
);
},
{
closed = 1;
nodes = (
"547 40 LINE",
"529 159 LINE",
"11 88 LINE",
"29 -31 LINE"
);
}
);
width = 600;
},
{
associatedMasterId = "B420756C-160B-4E3B-8A8F-018354DD19AA";
layerId = "EDD92DD2-E463-4FD0-8CD5-31D0D54ED287";
name = "Dec 8 17, 12:20";
paths = (
{
closed = 1;
nodes = (
"237 128 OFFCURVE",
"222 166 OFFCURVE",
"222 206 CURVE SMOOTH",
"222 278 OFFCURVE",
"264 325 OFFCURVE",
"326 325 CURVE SMOOTH",
"350 325 OFFCURVE",
"363 321 OFFCURVE",
"387 305 CURVE",
"510 462 LINE",
"463 493 OFFCURVE",
"390 513 OFFCURVE",
"326 513 CURVE SMOOTH",
"141 513 OFFCURVE",
"-2 380 OFFCURVE",
"-2 206 CURVE SMOOTH",
"-2 122 OFFCURVE",
"30 48 OFFCURVE",
"101 -32 CURVE",
"269 92 LINE"
);
},
{
closed = 1;
nodes = (
"-52 99 LINE",
"-22 -87 LINE",
"582 -5 LINE",
"552 181 LINE"
);
}
);
width = 600;
},
{
anchors = (
{
name = bottom;
position = "{252, -60}";
},
{
name = top;
position = "{252, 549}";
}
);
associatedMasterId = "B420756C-160B-4E3B-8A8F-018354DD19AA";
layerId = "F4462189-C93F-4859-AE6A-E07AAA5B505F";
name = "Dec 8 17, 22:07";
paths = (
{
closed = 1;
nodes = (
"184 60 LINE",
"140 109 OFFCURVE",
"121 154 OFFCURVE",
"121 206 CURVE SMOOTH",
"121 304 OFFCURVE",
"194 375 OFFCURVE",
"293 375 CURVE SMOOTH",
"330 375 OFFCURVE",
"362 366 OFFCURVE",
"392 346 CURVE",
"411 375 LINE",
"377 397 OFFCURVE",
"337 409 OFFCURVE",
"293 409 CURVE SMOOTH",
"180 409 OFFCURVE",
"86 328 OFFCURVE",
"86 206 CURVE SMOOTH",
"86 144 OFFCURVE",
"110 91 OFFCURVE",
"158 37 CURVE"
);
},
{
closed = 1;
nodes = (
"481 81 LINE",
"476 115 LINE",
"40 55 LINE",
"45 21 LINE"
);
}
);
width = 531;
},
{
anchors = (
{
name = bottom;
position = "{296, -60}";
},
{
name = top;
position = "{298, 549}";
}
);
associatedMasterId = "7271F2A9-EB19-499E-973E-7497F9144823";
layerId = "35409207-D918-4AB3-8953-A329D212CDF1";
name = "Dec 8 17, 22:07";
paths = (
{
closed = 1;
nodes = (
"280 105 LINE",
"244 145 OFFCURVE",
"228 183 OFFCURVE",
"228 226 CURVE SMOOTH",
"228 303 OFFCURVE",
"280 357 OFFCURVE",
"357 357 CURVE SMOOTH",
"383 357 OFFCURVE",
"404 351 OFFCURVE",
"429 335 CURVE",
"502 435 LINE",
"461 462 OFFCURVE",
"408 477 OFFCURVE",
"354 477 CURVE SMOOTH",
"208 477 OFFCURVE",
"94 369 OFFCURVE",
"94 226 CURVE SMOOTH",
"94 154 OFFCURVE",
"122 91 OFFCURVE",
"180 25 CURVE"
);
},
{
closed = 1;
nodes = (
"576 60 LINE",
"558 179 LINE",
"40 108 LINE",
"58 -11 LINE"
);
}
);
width = 606;
},
{
anchors = (
{
name = bottom;
position = "{354, -134}";
},
{
name = top;
position = "{354, 575}";
}
);
associatedMasterId = "B420756C-160B-4E3B-8A8F-018354DD19AA";
layerId = "6D89B558-E4BE-494E-B3A5-4566FE22BD61";
name = "Dec 8 17, 22:07";
paths = (
{
closed = 1;
nodes = (
"674 0 LINE",
"644 186 LINE",
"40 104 LINE",
"70 -82 LINE"
);
},
{
closed = 1;
nodes = (
"329 123 OFFCURVE",
"314 160 OFFCURVE",
"314 203 CURVE SMOOTH",
"314 273 OFFCURVE",
"355 320 OFFCURVE",
"422 320 CURVE SMOOTH",
"441 320 OFFCURVE",
"455 316 OFFCURVE",
"479 300 CURVE",
"602 457 LINE",
"555 488 OFFCURVE",
"484 508 OFFCURVE",
"414 508 CURVE SMOOTH",
"234 508 OFFCURVE",
"90 375 OFFCURVE",
"90 200 CURVE SMOOTH",
"90 117 OFFCURVE",
"122 43 OFFCURVE",
"193 -37 CURVE",
"361 87 LINE"
);
}
);
width = 697;
}
);
unicode = 0621;
},
{
glyphname = "alef-ar";
layers = (
{
anchors = (
{
name = bottom;
position = "{184, -37}";
},
{
name = top;
position = "{0, 763}";
}
);
layerId = "B420756C-160B-4E3B-8A8F-018354DD19AA";
paths = (
{
closed = 1;
nodes = (
"193 0 LINE {name = hr00;}",
"24 730 LINE",
"-11 730 LINE",
"158 0 LINE"
);
}
);
width = 235;
},
{
anchors = (
{
name = bottom;
position = "{223, -37}";
},
{
name = top;
position = "{44, 739}";
}
);
layerId = "7271F2A9-EB19-499E-973E-7497F9144823";
paths = (
{
closed = 1;
nodes = (
"282 0 LINE {name = hr00;}",
"120 700 LINE",
"-14 700 LINE",
"148 0 LINE"
);
}
);
width = 314;
},
{
anchors = (
{
name = bottom;
position = "{192, -70}";
},
{
name = top;
position = "{192, 725}";
}
);
associatedMasterId = "B420756C-160B-4E3B-8A8F-018354DD19AA";
layerId = "2D07D9D6-DD7A-4EF1-82E8-8B18836F0AAC";
paths = (
{
closed = 1;
nodes = (
"304 0 LINE",
"304 690 LINE",
"80 690 LINE",
"80 0 LINE {name = hr00;}"
);
}
);
width = 384;
}
);
unicode = 0627;
},
{
glyphname = "alef-ar.fina";
layers = (
{
components = (
{
name = "alef-ar";
},
{
name = connection_r;
transform = "{1, 0, 0, 1, 185, 0}";
}
);
layerId = "B420756C-160B-4E3B-8A8F-018354DD19AA";
paths = (
{
closed = 1;
nodes = (
"293 0 LINE",
"285 34 LINE",
"185 34 LINE",
"193 0 LINE"
);
}
);
width = 235;
},
{
components = (
{
name = "alef-ar";
},
{
name = connection_r;
transform = "{1, 0, 0, 1, 323, 0}";
}
);
layerId = "7271F2A9-EB19-499E-973E-7497F9144823";
paths = (
{
closed = 1;
nodes = (
"431 0 LINE",
"403 120 LINE",
"254 120 LINE",
"282 0 LINE"
);
}
);
width = 373;
},
{
associatedMasterId = "B420756C-160B-4E3B-8A8F-018354DD19AA";
components = (
{
name = "alef-ar";
},
{
name = connection_r;
transform = "{1, 0, 0, 1, 355, 0}";
}
);
layerId = "2D07D9D6-DD7A-4EF1-82E8-8B18836F0AAC";
paths = (
{
closed = 1;
nodes = (
"405 0 LINE",
"405 188 LINE",
"304 188 LINE",
"304 0 LINE"
);
}
);
width = 405;
}
);
unicode = FE8E;
},
{
glyphname = "alef-ar.short";
layers = (
{
anchors = (
{
name = bottom;
position = "{184, -37}";
},
{
name = top;
position = "{21, 668}";
}
);
layerId = "B420756C-160B-4E3B-8A8F-018354DD19AA";
paths = (
{
closed = 1;
nodes = (
"193 0 LINE {name = hr00;}",
"46 635 LINE",
"11 635 LINE",
"158 0 LINE"
);
}
);
width = 235;
},
{
anchors = (
{
name = bottom;
position = "{223, -37}";
},
{
name = top;
position = "{68, 634}";
}
);
layerId = "7271F2A9-EB19-499E-973E-7497F9144823";
paths = (
{
closed = 1;
nodes = (
"282 0 LINE {name = hr00;}",
"144 595 LINE",
"10 595 LINE",
"148 0 LINE"
);
}
);
width = 314;
},
{
anchors = (
{
name = bottom;
position = "{192, -70}";
},
{
name = top;
position = "{192, 618}";
}
);
associatedMasterId = "B420756C-160B-4E3B-8A8F-018354DD19AA";
layerId = "2D07D9D6-DD7A-4EF1-82E8-8B18836F0AAC";
paths = (
{
closed = 1;
nodes = (
"304 0 LINE",
"304 583 LINE",
"80 583 LINE",
"80 0 LINE {name = hr00;}"
);
}
);
width = 384;
}
);
},
{
glyphname = "alef-ar.fina.short";
layers = (
{
components = (
{
name = "alef-ar.short";
},
{
name = connection_r;
transform = "{1, 0, 0, 1, 185, 0}";
}
);
layerId = "B420756C-160B-4E3B-8A8F-018354DD19AA";
paths = (
{
closed = 1;
nodes = (
"293 0 LINE",
"285 34 LINE",
"185 34 LINE",
"193 0 LINE"
);
}
);
width = 235;
},
{
components = (
{
name = "alef-ar.short";
},
{
name = connection_r;
transform = "{1, 0, 0, 1, 323, 0}";
}
);
layerId = "7271F2A9-EB19-499E-973E-7497F9144823";
paths = (
{
closed = 1;
nodes = (
"431 0 LINE",
"403 120 LINE",
"254 120 LINE",
"282 0 LINE"
);
}
);
width = 373;
},
{
associatedMasterId = "B420756C-160B-4E3B-8A8F-018354DD19AA";
components = (
{
name = connection_r;
transform = "{1, 0, 0, 1, 355, 0}";
},
{
name = "alef-ar.short";
}
);
layerId = "2D07D9D6-DD7A-4EF1-82E8-8B18836F0AAC";
paths = (
{
closed = 1;
nodes = (
"405 0 LINE",
"405 188 LINE",
"304 188 LINE",
"304 0 LINE"
);
}
);
width = 405;
}
);
},
{
glyphname = "behDotless-ar";
layers = (
{
anchors = (
{
name = bottom;
position = "{428, -60}";
},
{
name = top;
position = "{303, 480}";
}
);
background = {
anchors = (
{
name = bottom;
position = "{428, -60}";
},
{
name = top;
position = "{303, 480}";
}
);
paths = (
{
closed = 1;
nodes = (
"729 0 LINE",
"613 500 LINE",
"578 500 LINE",
"689 20 LINE",
"700 34 LINE",
"388 34 LINE SMOOTH",
"119 34 OFFCURVE",
"74 150 OFFCURVE",
"69 365 CURVE SMOOTH",
"69 376 OFFCURVE",
"68 386 OFFCURVE",
"68 394 CURVE",
"84 383 LINE",
"17 395 LINE",
"33 397 LINE",
"33 389 OFFCURVE",
"34 379 OFFCURVE",
"34 368 CURVE SMOOTH",
"40 129 OFFCURVE",
"99 0 OFFCURVE",
"393 0 CURVE SMOOTH"
);
}
);
};
layerId = "B420756C-160B-4E3B-8A8F-018354DD19AA";
paths = (
{
closed = 1;
nodes = (
"729 0 LINE",
"613 500 LINE",
"578 500 LINE",
"689 20 LINE",
"700 34 LINE",
"388 34 LINE SMOOTH",
"117 34 OFFCURVE",
"77 147 OFFCURVE",
"69 365 CURVE SMOOTH",
"69 367 OFFCURVE",
"68 391 OFFCURVE",
"68 394 CURVE",
"84 383 LINE",
"17 395 LINE",
"33 397 LINE",
"33 394 OFFCURVE",
"34 370 OFFCURVE",
"34 368 CURVE SMOOTH",
"43 126 OFFCURVE",
"97 0 OFFCURVE",
"393 0 CURVE SMOOTH"
);
}
);
width = 761;
},
{
anchors = (
{
name = bottom;
position = "{471, -60}";
},
{
name = top;
position = "{339, 510}";
}
);
background = {
anchors = (
{
name = bottom;
position = "{471, -60}";
},
{
name = top;
position = "{339, 510}";
}
);
paths = (
{
closed = 1;
nodes = (
"816 0 LINE",
"700 500 LINE",
"566 500 LINE",
"664 70 LINE",
"717 120 LINE",
"372 120 LINE SMOOTH",
"237 120 OFFCURVE",
"197 149 OFFCURVE",
"180 224 CURVE SMOOTH",
"171 263 OFFCURVE",
"170 313 OFFCURVE",
"169 353 CURVE SMOOTH",
"169 373 OFFCURVE",
"168 390 OFFCURVE",
"167 401 CURVE",
"232 355 LINE",
"-29 403 LINE",
"34 408 LINE",
"35 399 OFFCURVE",
"36 384 OFFCURVE",
"36 365 CURVE SMOOTH",
"37 322 OFFCURVE",
"38 258 OFFCURVE",
"51 201 CURVE SMOOTH",
"84 61 OFFCURVE",
"191 0 OFFCURVE",
"390 0 CURVE SMOOTH"
);
}
);
};
layerId = "7271F2A9-EB19-499E-973E-7497F9144823";
paths = (
{
closed = 1;
nodes = (
"816 0 LINE",
"700 500 LINE",
"566 500 LINE",
"664 70 LINE",
"717 120 LINE",
"372 120 LINE SMOOTH",
"184 120 OFFCURVE",
"171 183 OFFCURVE",
"169 353 CURVE SMOOTH",
"169 375 OFFCURVE",
"168 390 OFFCURVE",
"167 401 CURVE",
"232 355 LINE",
"-29 403 LINE",
"34 408 LINE",
"36 390 OFFCURVE",
"36 374 OFFCURVE",
"36 365 CURVE SMOOTH",
"40 122 OFFCURVE",
"98 0 OFFCURVE",
"390 0 CURVE SMOOTH"
);
}
);
width = 828;
},
{
associatedMasterId = "B420756C-160B-4E3B-8A8F-018354DD19AA";
layerId = "CDF3B9A1-6672-473C-BE0E-276160DE5FE7";
name = "Dec 7 17, 13:12";
paths = (
{
closed = 1;
nodes = (
"617 66 LINE",
"763 188 LINE",
"429 188 LINE SMOOTH",
"298 188 OFFCURVE",
"278 208 OFFCURVE",
"278 279 CURVE SMOOTH",
"278 350 OFFCURVE",
"308 456 OFFCURVE",
"306 466 CURVE",
"400 331 LINE",
"-18 411 LINE",
"84 500 LINE",
"88 486 OFFCURVE",
"54 371 OFFCURVE",
"54 279 CURVE SMOOTH",
"54 96 OFFCURVE",
"187 0 OFFCURVE",
"429 0 CURVE SMOOTH",
"841 0 LINE",
"841 505 LINE",
"617 505 LINE"
);
},
{
closed = 1;
nodes = (
"1709 0 LINE",
"1709 500 LINE",
"1537 500 LINE",
"1537 112 LINE",
"1582 157 LINE",
"1250 157 LINE SMOOTH",
"1177 157 OFFCURVE",
"1105 166 OFFCURVE",
"1105 255 CURVE SMOOTH",
"1105 287 OFFCURVE",
"1114 330 OFFCURVE",
"1120 356 CURVE",
"952 390 LINE",
"946 361 OFFCURVE",
"933 303 OFFCURVE",
"933 255 CURVE SMOOTH",
"933 93 OFFCURVE",
"1050 0 OFFCURVE",
"1250 0 CURVE SMOOTH"
);
}
);
width = 901;
},
{
associatedMasterId = "B420756C-160B-4E3B-8A8F-018354DD19AA";
layerId = "A7C8D09F-59B9-42E0-9CA0-2AB795DBF9E8";
name = "Dec 7 17, 13:14";
paths = (
{
closed = 1;
nodes = (
"617 66 LINE",
"763 188 LINE",
"429 188 LINE SMOOTH",
"300 188 OFFCURVE",
"278 208 OFFCURVE",
"278 275 CURVE SMOOTH",
"278 354 OFFCURVE",
"308 455 OFFCURVE",
"306 466 CURVE",
"400 331 LINE",
"-18 411 LINE",
"133 500 LINE",
"80 411 OFFCURVE",
"54 356 OFFCURVE",
"54 277 CURVE SMOOTH",
"54 98 OFFCURVE",
"187 0 OFFCURVE",
"429 0 CURVE SMOOTH",
"841 0 LINE",
"841 505 LINE",
"617 505 LINE"
);
},
{
closed = 1;
nodes = (
"1709 0 LINE",
"1709 500 LINE",
"1537 500 LINE",
"1537 112 LINE",
"1582 157 LINE",
"1250 157 LINE SMOOTH",
"1177 157 OFFCURVE",
"1105 166 OFFCURVE",
"1105 255 CURVE SMOOTH",
"1105 287 OFFCURVE",
"1114 330 OFFCURVE",
"1120 356 CURVE",
"952 390 LINE",
"946 361 OFFCURVE",
"933 303 OFFCURVE",
"933 255 CURVE SMOOTH",
"933 93 OFFCURVE",
"1050 0 OFFCURVE",
"1250 0 CURVE SMOOTH"
);
}
);
width = 901;
},
{
associatedMasterId = "B420756C-160B-4E3B-8A8F-018354DD19AA";
layerId = "D3C23D65-89CE-4AAA-9B0C-721EBAE077D1";
name = "Dec 7 17, 13:15";
paths = (
{
closed = 1;
nodes = (
"1709 0 LINE",
"1709 500 LINE",
"1537 500 LINE",
"1537 112 LINE",
"1582 157 LINE",
"1250 157 LINE SMOOTH",
"1177 157 OFFCURVE",
"1105 166 OFFCURVE",
"1105 255 CURVE SMOOTH",
"1105 287 OFFCURVE",
"1114 330 OFFCURVE",
"1120 356 CURVE",
"952 390 LINE",
"946 361 OFFCURVE",
"933 303 OFFCURVE",
"933 255 CURVE SMOOTH",
"933 93 OFFCURVE",
"1050 0 OFFCURVE",
"1250 0 CURVE SMOOTH"
);
},
{
closed = 1;
nodes = (
"351 188 OFFCURVE",
"278 197 OFFCURVE",
"278 288 CURVE SMOOTH",
"278 320 OFFCURVE",
"287 364 OFFCURVE",
"293 390 CURVE",
"337 338 LINE",
"-81 418 LINE",
"73 398 LINE",
"67 369 OFFCURVE",
"54 309 OFFCURVE",
"54 260 CURVE SMOOTH",
"54 95 OFFCURVE",
"173 0 OFFCURVE",
"378 0 CURVE SMOOTH",
"841 0 LINE",
"841 505 LINE",
"617 505 LINE",
"617 66 LINE",
"763 188 LINE",
"425 188 LINE SMOOTH"
);
}
);
width = 901;
},
{
associatedMasterId = "B420756C-160B-4E3B-8A8F-018354DD19AA";
layerId = "B5ABC5B7-2902-4378-B91B-A4D885587DD0";
name = "Dec 7 17, 13:17";
paths = (
{
closed = 1;
nodes = (
"617 66 LINE",
"763 188 LINE",
"429 188 LINE SMOOTH",
"300 188 OFFCURVE",
"278 208 OFFCURVE",
"278 275 CURVE SMOOTH",
"278 354 OFFCURVE",
"308 455 OFFCURVE",
"306 466 CURVE",
"400 331 LINE",
"-18 411 LINE",
"133 500 LINE",
"80 411 OFFCURVE",
"54 311 OFFCURVE",
"54 232 CURVE SMOOTH",
"54 53 OFFCURVE",
"187 0 OFFCURVE",
"429 0 CURVE SMOOTH",
"841 0 LINE",
"841 505 LINE",
"617 505 LINE"
);
}
);
width = 901;
},
{
associatedMasterId = "B420756C-160B-4E3B-8A8F-018354DD19AA";
layerId = "FBB2D381-BE21-4A28-A9EC-E9BC4D4FB7F5";
name = "Dec 7 17, 13:21";
paths = (
{
closed = 1;
nodes = (
"617 66 LINE",
"763 188 LINE",
"429 188 LINE SMOOTH",
"298 188 OFFCURVE",
"278 208 OFFCURVE",
"278 279 CURVE SMOOTH",
"278 350 OFFCURVE",
"308 456 OFFCURVE",
"306 466 CURVE",
"400 392 LINE",
"-18 472 LINE",
"84 500 LINE",
"88 486 OFFCURVE",
"54 371 OFFCURVE",
"54 279 CURVE SMOOTH",
"54 96 OFFCURVE",
"187 0 OFFCURVE",
"429 0 CURVE SMOOTH",
"841 0 LINE",
"841 505 LINE",
"617 505 LINE"
);
}
);
width = 901;
},
{
anchors = (
{
name = bottom;
position = "{478, -60}";
},
{
name = top;
position = "{478, 573}";
}
);
associatedMasterId = "B420756C-160B-4E3B-8A8F-018354DD19AA";
layerId = "16E4699C-8768-4F06-95EC-3CF60E53C799";
name = "Dec 8 17, 01:29";
paths = (
{
closed = 1;
nodes = (
"677 66 LINE",
"823 188 LINE",
"429 188 LINE SMOOTH",
"300 188 OFFCURVE",
"278 208 OFFCURVE",
"278 275 CURVE SMOOTH",
"278 354 OFFCURVE",
"308 455 OFFCURVE",
"306 466 CURVE",
"400 392 LINE",
"-18 472 LINE",
"84 500 LINE",
"88 486 OFFCURVE",
"54 371 OFFCURVE",
"54 279 CURVE SMOOTH",
"54 96 OFFCURVE",
"189 0 OFFCURVE",
"383 0 CURVE SMOOTH",
"901 0 LINE",
"901 505 LINE",
"677 505 LINE"
);
}
);
width = 931;
},
{
anchors = (
{
name = bottom;
position = "{428, -60}";
},
{
name = top;
position = "{303, 480}";
}
);
associatedMasterId = "B420756C-160B-4E3B-8A8F-018354DD19AA";
layerId = "3AE905BD-3C76-48ED-A7A7-15F97D8D263A";
name = "Dec 16 17, 03:33";
paths = (
{
closed = 1;
nodes = (
"729 0 LINE",
"613 500 LINE",
"578 500 LINE",
"689 20 LINE",
"700 34 LINE",
"388 34 LINE SMOOTH",
"205 34 OFFCURVE",
"112 92 OFFCURVE",
"83 216 CURVE SMOOTH",
"69 276 OFFCURVE",
"70 355 OFFCURVE",
"68 394 CURVE",
"84 383 LINE",
"17 395 LINE",
"33 397 LINE",
"35 358 OFFCURVE",
"34 277 OFFCURVE",
"49 210 CURVE SMOOTH",
"83 65 OFFCURVE",
"194 0 OFFCURVE",
"393 0 CURVE SMOOTH"
);
}
);
width = 761;
}
);
unicode = 066E;
},
{
glyphname = "behDotless-ar.fina";
layers = (
{
components = (
{
name = "behDotless-ar";
},
{
name = connection_r;
transform = "{1, 0, 0, 1, 721, 0}";
}
);
layerId = "B420756C-160B-4E3B-8A8F-018354DD19AA";
paths = (
{
closed = 1;
nodes = (
"829 0 LINE",
"821 34 LINE",
"721 34 LINE",
"729 0 LINE"
);
}
);
width = 771;
},
{
components = (
{
name = "behDotless-ar";
},
{
name = connection_r;
transform = "{1, 0, 0, 1, 827, 0}";
}
);
layerId = "7271F2A9-EB19-499E-973E-7497F9144823";
paths = (
{
closed = 1;
nodes = (
"935 0 LINE",
"907 120 LINE",
"788 120 LINE",
"816 0 LINE"
);
}
);
width = 877;
},
{
associatedMasterId = "B420756C-160B-4E3B-8A8F-018354DD19AA";
components = (
{
name = "behDotless-ar";
},
{
name = connection_r;
transform = "{1, 0, 0, 1, 908, 0}";
}
);
layerId = "2D07D9D6-DD7A-4EF1-82E8-8B18836F0AAC";
paths = (
{
closed = 1;
nodes = (
"958 0 LINE",
"958 188 LINE",
"887 188 LINE",
"887 0 LINE"
);
}
);
width = 958;
}
);
},
{
glyphname = "behDotless-ar.medi";
layers = (
{
components = (
{
name = "behDotless-ar.init";
},
{
name = connection_r;
transform = "{1, 0, 0, 1, 185, 0}";
}
);
layerId = "B420756C-160B-4E3B-8A8F-018354DD19AA";
paths = (
{
closed = 1;
nodes = (
"293 0 LINE",
"285 34 LINE",
"185 34 LINE",
"193 0 LINE"
);
}
);
width = 235;
},
{
components = (
{
name = "behDotless-ar.init";
},
{
name = connection_r;
transform = "{1, 0, 0, 1, 322, 0}";
}
);
layerId = "7271F2A9-EB19-499E-973E-7497F9144823";
paths = (
{
closed = 1;
nodes = (
"430 0 LINE",
"402 120 LINE",
"283 120 LINE",
"311 0 LINE"
);
}
);
width = 372;
},
{
associatedMasterId = "B420756C-160B-4E3B-8A8F-018354DD19AA";
components = (
{
name = "behDotless-ar.init";
},
{
name = connection_r;
transform = "{1, 0, 0, 1, 476, 0}";
}
);
layerId = "2D07D9D6-DD7A-4EF1-82E8-8B18836F0AAC";
paths = (
{
closed = 1;
nodes = (
"526 0 LINE",
"526 188 LINE",
"375 188 LINE",
"375 0 LINE"
);
}
);
width = 526;
}
);
},
{
glyphname = "behDotless-ar.init";
layers = (
{
anchors = (
{
name = bottom;
position = "{190, -60}";
},
{
name = top;
position = "{43, 573}";
}
);
components = (
{
name = connection_l;
}
);
layerId = "B420756C-160B-4E3B-8A8F-018354DD19AA";
paths = (
{
closed = 1;
nodes = (
"193 0 LINE",
"77 500 LINE",
"42 500 LINE",
"153 20 LINE",
"164 34 LINE",
"50 34 LINE",
"58 0 LINE"
);
}
);
width = 225;
},
{
anchors = (
{
name = bottom;
position = "{258, -60}";
},
{
name = top;
position = "{111, 573}";
}
);
components = (
{
name = connection_l;
}
);
layerId = "7271F2A9-EB19-499E-973E-7497F9144823";
paths = (
{
closed = 1;
nodes = (
"311 0 LINE",
"195 500 LINE",
"61 500 LINE",
"159 70 LINE",
"212 120 LINE",
"30 120 LINE",
"58 0 LINE"
);
}
);
width = 323;
},
{
anchors = (
{
name = bottom;
position = "{263, -60}";
},
{
name = top;
position = "{263, 573}";
}
);
associatedMasterId = "B420756C-160B-4E3B-8A8F-018354DD19AA";
components = (
{
name = connection_l;
}
);
layerId = "2D07D9D6-DD7A-4EF1-82E8-8B18836F0AAC";
paths = (
{
closed = 1;
nodes = (
"375 0 LINE",
"375 505 LINE",
"151 505 LINE",
"151 66 LINE",
"297 188 LINE",
"0 188 LINE",
"0 0 LINE"
);
}
);
width = 435;
}
);
},
{
glyphname = "jeem-ar";
layers = (
{
anchors = (
{
name = bottom;
position = "{431, -400}";
},
{
name = top;
position = "{206, 573}";
}
);
components = (
{
name = "hah-ar";
},
{
name = "dotcenter-ar";
transform = "{1, 0, 0, 1, 422, -484}";
}
);
layerId = "B420756C-160B-4E3B-8A8F-018354DD19AA";
width = 569;
},
{
anchors = (
{
name = bottom;
position = "{420, -400}";
},
{
name = top;
position = "{195, 573}";
}
);
components = (
{
name = "hah-ar";
},
{
name = "dotcenter-ar";
transform = "{0.75131, 0, 0, 0.75131, 391, -362}";
}
);
layerId = "7271F2A9-EB19-499E-973E-7497F9144823";
width = 595;
},
{
anchors = (
{
name = bottom;
position = "{377, -397}";
},
{
name = center;
position = "{465, -122}";
},
{
name = top;
position = "{269, 570}";
}
);
associatedMasterId = "B420756C-160B-4E3B-8A8F-018354DD19AA";
components = (
{
name = "dotcenter-ar";
transform = "{1, 0, 0, 1, 355, -482}";
}
);
layerId = "2D07D9D6-DD7A-4EF1-82E8-8B18836F0AAC";
paths = (
{
closed = 1;
nodes = (
"601 0 LINE",
"601 209 LINE SMOOTH",
"601 390 OFFCURVE",
"452 505 OFFCURVE",
"269 505 CURVE SMOOTH",
"189 505 OFFCURVE",
"110 483 OFFCURVE",
"-8 450 CURVE",
"102 573 LINE",
"136 267 LINE",
"102 305 LINE",
"166 314 OFFCURVE",
"206 317 OFFCURVE",
"235 317 CURVE SMOOTH",
"338 317 OFFCURVE",
"377 277 OFFCURVE",
"377 209 CURVE SMOOTH",
"377 0 LINE"
);
},
{
closed = 1;
nodes = (
"343 -70 LINE",
"362 -144 LINE",
"291 -144 OFFCURVE",
"264 -123 OFFCURVE",
"264 -72 CURVE SMOOTH",
"264 -21 OFFCURVE",
"291 0 OFFCURVE",
"362 0 CURVE SMOOTH",
"491 0 LINE",
"491 188 LINE",
"362 188 LINE SMOOTH",
"173 188 OFFCURVE",
"40 87 OFFCURVE",
"40 -72 CURVE SMOOTH",
"40 -231 OFFCURVE",
"173 -332 OFFCURVE",
"362 -332 CURVE",
"343 -445 LINE"
);
}
);
width = 661;
},
{
anchors = (
{
name = bottom;
position = "{377, -400}";
},
{
name = center;
position = "{465, -122}";
},
{
name = top;
position = "{269, 570}";
}
);
associatedMasterId = "B420756C-160B-4E3B-8A8F-018354DD19AA";
components = (
{
name = "dotcenter-ar";
transform = "{1, 0, 0, 1, 355, -468}";
}
);
layerId = "A18A8E64-01C9-4249-988B-835E443B64CF";
name = "Dec 9 17, 18:03";
paths = (
{
closed = 1;
nodes = (
"324 -103 LINE",
"584 -122 LINE",
"478 -138 OFFCURVE",
"406 -144 OFFCURVE",
"362 -144 CURVE SMOOTH",
"291 -144 OFFCURVE",
"264 -123 OFFCURVE",
"264 -72 CURVE SMOOTH",
"264 -21 OFFCURVE",
"291 0 OFFCURVE",
"362 0 CURVE SMOOTH",
"491 0 LINE",
"491 188 LINE",
"362 188 LINE SMOOTH",
"173 188 OFFCURVE",
"40 87 OFFCURVE",
"40 -72 CURVE SMOOTH",
"40 -231 OFFCURVE",
"173 -332 OFFCURVE",
"362 -332 CURVE SMOOTH",
"460 -332 OFFCURVE",
"557 -309 OFFCURVE",
"656 -279 CURVE",
"377 -397 LINE"
);
},
{
closed = 1;
nodes = (
"601 0 LINE",
"601 209 LINE SMOOTH",
"601 390 OFFCURVE",
"452 505 OFFCURVE",
"269 505 CURVE SMOOTH",
"189 505 OFFCURVE",
"110 483 OFFCURVE",
"-8 450 CURVE",
"102 573 LINE",
"136 267 LINE",
"102 305 LINE",
"166 314 OFFCURVE",
"206 317 OFFCURVE",
"235 317 CURVE SMOOTH",
"338 317 OFFCURVE",
"377 277 OFFCURVE",
"377 209 CURVE SMOOTH",
"377 0 LINE"
);
}
);
width = 661;
}
);
unicode = 062C;
},
{
glyphname = "jeem-ar.fina";
layers = (
{
anchors = (
{
name = bottom;
position = "{431, -400}";
},
{
name = top;
position = "{206, 573}";
}
);
components = (
{
name = "hah-ar.fina";
},
{
name = "dotcenter-ar";
transform = "{1, 0, 0, 1, 422, -484}";
}
);
layerId = "B420756C-160B-4E3B-8A8F-018354DD19AA";
width = 609;
},
{
anchors = (
{
name = bottom;
position = "{420, -400}";
},
{
name = top;
position = "{195, 573}";
}
);
components = (
{
name = "hah-ar.fina";
},
{
name = "dotcenter-ar";
transform = "{0.75131, 0, 0, 0.75131, 391, -362}";
}
);
layerId = "7271F2A9-EB19-499E-973E-7497F9144823";
width = 654;
},
{
associatedMasterId = "B420756C-160B-4E3B-8A8F-018354DD19AA";
components = (
{
name = connection_r;
transform = "{1, 0, 0, 1, 652, 0}";
},
{
name = "jeem-ar";
}
);
layerId = "2D07D9D6-DD7A-4EF1-82E8-8B18836F0AAC";
paths = (
{
closed = 1;
nodes = (
"702 0 LINE",
"702 188 LINE",
"601 188 LINE",
"601 0 LINE"
);
}
);
width = 702;
}
);
unicode = FE9E;
},
{
glyphname = "tcheh-ar";
layers = (
{
components = (
{
alignment = -1;
name = "hah-ar";
},
{
alignment = -1;
name = "threedotsdowncenter-ar";
transform = "{1, 0, 0, 1, 434, -392}";
}
);
layerId = "B420756C-160B-4E3B-8A8F-018354DD19AA";
width = 569;
},
{
components = (
{
name = "hah-ar";
},
{
alignment = -1;
name = "threedotsdowncenter-ar";
transform = "{0.41973, 0, 0, 0.41973, 414, -215}";
}
);
layerId = "7271F2A9-EB19-499E-973E-7497F9144823";
width = 595;
},
{
associatedMasterId = "B420756C-160B-4E3B-8A8F-018354DD19AA";
components = (
{
alignment = -1;
name = "threedotsdowncenter-ar";
transform = "{0.54439, 0, 0, 0.54439, 343, -276}";
}
);
layerId = "2D07D9D6-DD7A-4EF1-82E8-8B18836F0AAC";
paths = (
{
closed = 1;
nodes = (
"601 0 LINE",
"601 209 LINE SMOOTH",
"601 390 OFFCURVE",
"452 505 OFFCURVE",
"269 505 CURVE SMOOTH",
"189 505 OFFCURVE",
"110 483 OFFCURVE",
"-8 450 CURVE",
"102 573 LINE",
"136 267 LINE",
"102 305 LINE",
"166 314 OFFCURVE",
"206 317 OFFCURVE",
"235 317 CURVE SMOOTH",
"338 317 OFFCURVE",
"377 277 OFFCURVE",
"377 209 CURVE SMOOTH",
"377 0 LINE"
);
},
{
closed = 1;
nodes = (
"343 -70 LINE",
"362 -144 LINE",
"291 -144 OFFCURVE",
"264 -123 OFFCURVE",
"264 -72 CURVE SMOOTH",
"264 -21 OFFCURVE",
"291 0 OFFCURVE",
"362 0 CURVE SMOOTH",
"491 0 LINE",
"491 188 LINE",
"362 188 LINE SMOOTH",
"173 188 OFFCURVE",
"40 87 OFFCURVE",
"40 -72 CURVE SMOOTH",
"40 -231 OFFCURVE",
"173 -332 OFFCURVE",
"362 -332 CURVE",
"343 -445 LINE"
);
}
);
width = 661;
}
);
unicode = 0686;
},
{
glyphname = "tcheh-ar.fina";
layers = (
{
components = (
{
name = "tcheh-ar";
},
{
name = connection_r;
transform = "{1, 0, 0, 1, 559, 0}";
}
);
layerId = "B420756C-160B-4E3B-8A8F-018354DD19AA";
paths = (
{
closed = 1;
nodes = (
"667 0 LINE",
"659 34 LINE",
"559 34 LINE",
"567 0 LINE"
);
}
);
width = 609;
},
{
components = (
{
name = "tcheh-ar";
},
{
name = connection_r;
transform = "{1, 0, 0, 1, 604, 0}";
}
);
layerId = "7271F2A9-EB19-499E-973E-7497F9144823";
paths = (
{
closed = 1;
nodes = (
"712 0 LINE",
"684 120 LINE",
"565 120 LINE",
"593 0 LINE"
);
}
);
width = 654;
},
{
associatedMasterId = "B420756C-160B-4E3B-8A8F-018354DD19AA";
components = (
{
name = "tcheh-ar";
},
{
name = connection_r;
transform = "{1, 0, 0, 1, 702, 0}";
}
);
layerId = "2D07D9D6-DD7A-4EF1-82E8-8B18836F0AAC";
paths = (
{
closed = 1;
nodes = (
"752 0 LINE",
"752 188 LINE",
"601 188 LINE",
"601 0 LINE"
);
}
);
width = 752;
}
);
unicode = FB7B;
},
{
glyphname = "hah-ar";
layers = (
{
anchors = (
{
name = bottom;
position = "{431, -400}";
},
{
name = center;
position = "{438, -137}";
},
{
name = top;
position = "{206, 573}";
}
);
background = {
anchors = (
{
name = bottom;
position = "{431, -400}";
},
{
name = center;
position = "{438, -137}";
},
{
name = top;
position = "{206, 573}";
}
);
paths = (
{
closed = 1;
nodes = (
"567 0 LINE",
"493 319 LINE SMOOTH",
"465 439 OFFCURVE",
"372 500 OFFCURVE",
"226 500 CURVE SMOOTH",
"158 500 OFFCURVE",
"87 487 OFFCURVE",
"38 475 CURVE",
"53 429 LINE",
"42 446 LINE",
"135 459 OFFCURVE",
"189 465 OFFCURVE",
"231 465 CURVE SMOOTH",
"359 465 OFFCURVE",
"436 414 OFFCURVE",
"459 315 CURVE SMOOTH",
"532 0 LINE"
);
},
{
closed = 1;
nodes = (
"432 -308 OFFCURVE",
"486 -299 OFFCURVE",
"524 -290 CURVE",
"511 -257 LINE",
"515 -261 LINE",
"450 -270 OFFCURVE",
"407 -274 OFFCURVE",
"375 -274 CURVE SMOOTH",
"255 -274 OFFCURVE",
"185 -225 OFFCURVE",
"164 -134 CURVE SMOOTH",
"161 -120 OFFCURVE",
"159 -107 OFFCURVE",
"159 -95 CURVE SMOOTH",
"159 -31 OFFCURVE",
"208 0 OFFCURVE",
"309 0 CURVE SMOOTH",
"532 0 LINE",
"524 34 LINE",
"304 34 LINE SMOOTH",
"187 34 OFFCURVE",
"124 -10 OFFCURVE",
"124 -93 CURVE SMOOTH",
"124 -108 OFFCURVE",
"126 -123 OFFCURVE",
"130 -140 CURVE SMOOTH",
"156 -251 OFFCURVE",
"244 -308 OFFCURVE",
"378 -308 CURVE SMOOTH"
);
}
);
};
layerId = "B420756C-160B-4E3B-8A8F-018354DD19AA";
paths = (
{
closed = 1;
nodes = (
"567 0 LINE",
"493 319 LINE SMOOTH",
"465 439 OFFCURVE",
"372 500 OFFCURVE",
"226 500 CURVE SMOOTH",
"158 500 OFFCURVE",
"87 487 OFFCURVE",
"38 475 CURVE",
"53 429 LINE",
"42 446 LINE",
"135 459 OFFCURVE",
"189 465 OFFCURVE",
"232 465 CURVE SMOOTH",
"359 465 OFFCURVE",
"436 414 OFFCURVE",
"459 315 CURVE SMOOTH",
"532 0 LINE"
);
},
{
closed = 1;
nodes = (
"431 -308 OFFCURVE",
"486 -299 OFFCURVE",
"524 -290 CURVE",
"511 -257 LINE",
"515 -261 LINE",
"450 -270 OFFCURVE",
"407 -274 OFFCURVE",
"375 -274 CURVE SMOOTH",
"225 -274 OFFCURVE",
"159 -188 OFFCURVE",
"159 -102 CURVE SMOOTH",
"159 -31 OFFCURVE",
"203 0 OFFCURVE",
"309 0 CURVE SMOOTH",
"532 0 LINE",
"525 34 LINE",
"304 34 LINE SMOOTH",
"183 34 OFFCURVE",
"124 -10 OFFCURVE",
"124 -100 CURVE SMOOTH",
"124 -205 OFFCURVE",
"205 -308 OFFCURVE",
"379 -308 CURVE SMOOTH"
);
}
);
width = 569;
},
{
anchors = (
{
name = bottom;
position = "{420, -400}";
},
{
name = center;
position = "{440, -102}";
},
{
name = top;
position = "{195, 573}";
}
);
background = {
anchors = (
{
name = bottom;
position = "{420, -400}";
},
{
name = center;
position = "{440, -102}";
},
{
name = top;
position = "{195, 573}";
}
);
paths = (
{
closed = 1;
nodes = (
"593 0 LINE",
"528 279 LINE SMOOTH",
"495 421 OFFCURVE",
"373 500 OFFCURVE",
"223 500 CURVE SMOOTH",
"161 500 OFFCURVE",
"105 488 OFFCURVE",
"50 472 CURVE",
"89 351 LINE",
"50 363 LINE",
"146 374 OFFCURVE",
"195 380 OFFCURVE",
"230 380 CURVE SMOOTH",
"324 380 OFFCURVE",
"381 338 OFFCURVE",
"397 267 CURVE SMOOTH",
"459 0 LINE"
);
},
{
closed = 1;
nodes = (
"479 -332 OFFCURVE",
"522 -326 OFFCURVE",
"609 -305 CURVE",
"548 -146 LINE",
"639 -188 LINE",
"536 -207 OFFCURVE",
"465 -212 OFFCURVE",
"429 -212 CURVE SMOOTH",
"323 -212 OFFCURVE",
"270 -168 OFFCURVE",
"253 -94 CURVE SMOOTH",
"251 -84 OFFCURVE",
"249 -74 OFFCURVE",
"249 -66 CURVE SMOOTH",
"249 -22 OFFCURVE",
"281 0 OFFCURVE",
"365 0 CURVE SMOOTH",
"459 0 LINE",
"431 120 LINE",
"347 120 LINE SMOOTH",
"204 120 OFFCURVE",
"118 53 OFFCURVE",
"118 -58 CURVE SMOOTH",
"118 -77 OFFCURVE",
"120 -96 OFFCURVE",
"125 -117 CURVE SMOOTH",
"156 -253 OFFCURVE",
"275 -332 OFFCURVE",
"434 -332 CURVE SMOOTH"
);
}
);
};
layerId = "7271F2A9-EB19-499E-973E-7497F9144823";
paths = (
{
closed = 1;
nodes = (
"593 0 LINE",
"528 279 LINE SMOOTH",
"495 421 OFFCURVE",
"374 500 OFFCURVE",
"221 500 CURVE SMOOTH",
"162 500 OFFCURVE",
"105 488 OFFCURVE",
"50 472 CURVE",
"89 351 LINE",
"50 363 LINE",
"146 374 OFFCURVE",
"195 380 OFFCURVE",
"230 380 CURVE SMOOTH",
"324 380 OFFCURVE",
"381 338 OFFCURVE",
"397 267 CURVE SMOOTH",
"459 0 LINE"
);
},
{
closed = 1;
nodes = (
"479 -332 OFFCURVE",
"522 -326 OFFCURVE",
"609 -305 CURVE",
"548 -146 LINE",
"639 -188 LINE",
"536 -207 OFFCURVE",
"465 -212 OFFCURVE",
"430 -212 CURVE SMOOTH",
"275 -212 OFFCURVE",
"249 -111 OFFCURVE",
"249 -68 CURVE SMOOTH",
"249 -22 OFFCURVE",
"279 0 OFFCURVE",
"365 0 CURVE SMOOTH",
"459 0 LINE",
"432 120 LINE",
"347 120 LINE SMOOTH",
"204 120 OFFCURVE",
"118 56 OFFCURVE",
"118 -63 CURVE SMOOTH",
"118 -198 OFFCURVE",
"227 -332 OFFCURVE",
"435 -332 CURVE SMOOTH"
);
}
);
width = 595;
},
{
anchors = (
{
name = bottom;
position = "{377, -400}";
},
{
name = center;
position = "{465, -122}";
},
{
name = top;
position = "{269, 573}";
}
);
associatedMasterId = "B420756C-160B-4E3B-8A8F-018354DD19AA";
layerId = "2D07D9D6-DD7A-4EF1-82E8-8B18836F0AAC";
paths = (
{
closed = 1;
nodes = (
"493 -103 LINE",
"584 -122 LINE",
"478 -138 OFFCURVE",
"406 -144 OFFCURVE",
"362 -144 CURVE SMOOTH",
"291 -144 OFFCURVE",
"264 -123 OFFCURVE",
"264 -72 CURVE SMOOTH",
"264 -21 OFFCURVE",
"291 0 OFFCURVE",
"362 0 CURVE SMOOTH",
"491 0 LINE",
"491 188 LINE",
"362 188 LINE SMOOTH",
"173 188 OFFCURVE",
"40 87 OFFCURVE",
"40 -72 CURVE SMOOTH",
"40 -231 OFFCURVE",
"173 -332 OFFCURVE",
"362 -332 CURVE SMOOTH",
"460 -332 OFFCURVE",
"557 -309 OFFCURVE",
"656 -279 CURVE",
"546 -397 LINE"
);
},
{
closed = 1;
nodes = (
"601 0 LINE",
"601 209 LINE SMOOTH",
"601 390 OFFCURVE",
"452 505 OFFCURVE",
"269 505 CURVE SMOOTH",
"189 505 OFFCURVE",
"110 483 OFFCURVE",
"-8 450 CURVE",
"102 573 LINE",
"136 267 LINE",
"102 305 LINE",
"166 314 OFFCURVE",
"206 317 OFFCURVE",
"235 317 CURVE SMOOTH",
"338 317 OFFCURVE",
"377 277 OFFCURVE",
"377 209 CURVE SMOOTH",
"377 0 LINE"
);
}
);
width = 661;
},
{
anchors = (
{
name = bottom;
position = "{255, -400}";
},
{
name = center;
position = "{323, -137}";
},
{
name = top;
position = "{255, 576}";
}
);
associatedMasterId = "B420756C-160B-4E3B-8A8F-018354DD19AA";
layerId = "C69C6146-E100-4800-A3FC-02E1E2237B18";
name = "Dec 9 17, 14:25";
paths = (
{
closed = 1;
nodes = (
"483 0 LINE",
"483 317 LINE SMOOTH",
"483 437 OFFCURVE",
"402 500 OFFCURVE",
"255 500 CURVE SMOOTH",
"188 500 OFFCURVE",
"114 487 OFFCURVE",
"62 475 CURVE",
"68 429 LINE",
"62 446 LINE",
"159 459 OFFCURVE",
"214 465 OFFCURVE",
"258 465 CURVE SMOOTH",
"384 465 OFFCURVE",
"448 416 OFFCURVE",
"448 317 CURVE SMOOTH",
"448 0 LINE"
);
},
{
closed = 1;
nodes = (
"307 -308 OFFCURVE",
"359 -298 OFFCURVE",
"401 -291 CURVE",
"395 -257 LINE",
"400 -261 LINE",
"330 -270 OFFCURVE",
"286 -274 OFFCURVE",
"251 -274 CURVE SMOOTH",
"133 -274 OFFCURVE",
"75 -227 OFFCURVE",
"75 -137 CURVE SMOOTH",
"75 -46 OFFCURVE",
"133 0 OFFCURVE",
"253 0 CURVE SMOOTH",
"448 0 LINE",
"448 34 LINE",
"253 34 LINE SMOOTH",
"116 34 OFFCURVE",
"40 -25 OFFCURVE",
"40 -137 CURVE SMOOTH",
"40 -249 OFFCURVE",
"117 -308 OFFCURVE",
"252 -308 CURVE SMOOTH"
);
}
);
width = 543;
},
{
anchors = (
{
name = bottom;
position = "{431, -400}";
},
{
name = center;
position = "{438, -137}";
},
{
name = top;
position = "{206, 573}";
}
);
associatedMasterId = "B420756C-160B-4E3B-8A8F-018354DD19AA";
background = {
anchors = (
{
name = bottom;
position = "{431, -400}";
},
{
name = center;
position = "{438, -137}";
},
{
name = top;
position = "{206, 573}";
}
);
paths = (
{
closed = 1;
nodes = (
"567 0 LINE",
"493 319 LINE SMOOTH",
"465 439 OFFCURVE",
"372 500 OFFCURVE",
"226 500 CURVE SMOOTH",
"158 500 OFFCURVE",
"87 487 OFFCURVE",
"38 475 CURVE",
"53 429 LINE",
"42 446 LINE",
"135 459 OFFCURVE",
"189 465 OFFCURVE",
"231 465 CURVE SMOOTH",
"359 465 OFFCURVE",
"436 414 OFFCURVE",
"459 315 CURVE SMOOTH",
"532 0 LINE"
);
},
{
closed = 1;
nodes = (
"432 -308 OFFCURVE",
"486 -299 OFFCURVE",
"524 -290 CURVE",
"511 -257 LINE",
"515 -261 LINE",
"450 -270 OFFCURVE",
"407 -274 OFFCURVE",
"375 -274 CURVE SMOOTH",
"255 -274 OFFCURVE",
"185 -225 OFFCURVE",
"164 -134 CURVE SMOOTH",
"161 -120 OFFCURVE",
"159 -107 OFFCURVE",
"159 -95 CURVE SMOOTH",
"159 -31 OFFCURVE",
"208 0 OFFCURVE",
"309 0 CURVE SMOOTH",
"532 0 LINE",
"524 34 LINE",
"304 34 LINE SMOOTH",
"187 34 OFFCURVE",
"124 -10 OFFCURVE",
"124 -93 CURVE SMOOTH",
"124 -108 OFFCURVE",
"126 -123 OFFCURVE",
"130 -140 CURVE SMOOTH",
"156 -251 OFFCURVE",
"244 -308 OFFCURVE",
"378 -308 CURVE SMOOTH"
);
}
);
};
layerId = "86B20C03-5672-424B-9D5E-6B9E9A705E5F";
name = "Dec 31 17, 00:52";
paths = (
{
closed = 1;
nodes = (
"567 0 LINE",
"493 319 LINE SMOOTH",
"465 439 OFFCURVE",
"372 500 OFFCURVE",
"226 500 CURVE SMOOTH",
"158 500 OFFCURVE",
"87 487 OFFCURVE",
"38 475 CURVE",
"53 429 LINE",
"42 446 LINE",
"135 459 OFFCURVE",
"189 465 OFFCURVE",
"232 465 CURVE SMOOTH",
"359 465 OFFCURVE",
"436 414 OFFCURVE",
"459 315 CURVE SMOOTH",
"532 0 LINE"
);
},
{
closed = 1;
nodes = (
"431 -308 OFFCURVE",
"486 -299 OFFCURVE",
"524 -290 CURVE",
"511 -257 LINE",
"515 -261 LINE",
"450 -270 OFFCURVE",
"407 -274 OFFCURVE",
"375 -274 CURVE SMOOTH",
"225 -274 OFFCURVE",
"159 -188 OFFCURVE",
"159 -102 CURVE SMOOTH",
"159 -31 OFFCURVE",
"203 0 OFFCURVE",
"309 0 CURVE SMOOTH",
"532 0 LINE",
"525 34 LINE",
"304 34 LINE SMOOTH",
"183 34 OFFCURVE",
"124 -10 OFFCURVE",
"124 -100 CURVE SMOOTH",
"124 -205 OFFCURVE",
"205 -308 OFFCURVE",
"379 -308 CURVE SMOOTH"
);
}
);
width = 569;
},
{
anchors = (
{
name = bottom;
position = "{420, -400}";
},
{
name = center;
position = "{440, -102}";
},
{
name = top;
position = "{195, 573}";
}
);
associatedMasterId = "7271F2A9-EB19-499E-973E-7497F9144823";
background = {
anchors = (
{
name = bottom;
position = "{420, -400}";
},
{
name = center;
position = "{440, -102}";
},
{
name = top;
position = "{195, 573}";
}
);
paths = (
{
closed = 1;
nodes = (
"593 0 LINE",
"528 279 LINE SMOOTH",
"495 421 OFFCURVE",
"373 500 OFFCURVE",
"223 500 CURVE SMOOTH",
"161 500 OFFCURVE",
"105 488 OFFCURVE",
"50 472 CURVE",
"89 351 LINE",
"50 363 LINE",
"146 374 OFFCURVE",
"195 380 OFFCURVE",
"230 380 CURVE SMOOTH",
"324 380 OFFCURVE",
"381 338 OFFCURVE",
"397 267 CURVE SMOOTH",
"459 0 LINE"
);
},
{
closed = 1;
nodes = (
"479 -332 OFFCURVE",
"522 -326 OFFCURVE",
"609 -305 CURVE",
"548 -146 LINE",
"639 -188 LINE",
"536 -207 OFFCURVE",
"465 -212 OFFCURVE",
"429 -212 CURVE SMOOTH",
"323 -212 OFFCURVE",
"270 -168 OFFCURVE",
"253 -94 CURVE SMOOTH",
"251 -84 OFFCURVE",
"249 -74 OFFCURVE",
"249 -66 CURVE SMOOTH",
"249 -22 OFFCURVE",
"281 0 OFFCURVE",
"365 0 CURVE SMOOTH",
"459 0 LINE",
"431 120 LINE",
"347 120 LINE SMOOTH",
"204 120 OFFCURVE",
"118 53 OFFCURVE",
"118 -58 CURVE SMOOTH",
"118 -77 OFFCURVE",
"120 -96 OFFCURVE",
"125 -117 CURVE SMOOTH",
"156 -253 OFFCURVE",
"275 -332 OFFCURVE",
"434 -332 CURVE SMOOTH"
);
}
);
};
layerId = "69FCFFA8-3887-4396-B139-6E18BBC76478";
name = "Dec 31 17, 00:52";
paths = (
{
closed = 1;
nodes = (
"593 0 LINE",
"528 279 LINE SMOOTH",
"495 421 OFFCURVE",
"374 500 OFFCURVE",
"221 500 CURVE SMOOTH",
"162 500 OFFCURVE",
"105 488 OFFCURVE",
"50 472 CURVE",
"89 351 LINE",
"50 363 LINE",
"146 374 OFFCURVE",
"195 380 OFFCURVE",
"230 380 CURVE SMOOTH",
"324 380 OFFCURVE",
"381 338 OFFCURVE",
"397 267 CURVE SMOOTH",
"459 0 LINE"
);
},
{
closed = 1;
nodes = (
"479 -332 OFFCURVE",
"522 -326 OFFCURVE",
"609 -305 CURVE",
"548 -146 LINE",
"639 -188 LINE",
"536 -207 OFFCURVE",
"465 -212 OFFCURVE",
"430 -212 CURVE SMOOTH",
"275 -212 OFFCURVE",
"249 -111 OFFCURVE",
"249 -68 CURVE SMOOTH",
"249 -22 OFFCURVE",
"279 0 OFFCURVE",
"365 0 CURVE SMOOTH",
"459 0 LINE",
"432 120 LINE",
"347 120 LINE SMOOTH",
"204 120 OFFCURVE",
"118 56 OFFCURVE",
"118 -63 CURVE SMOOTH",
"118 -198 OFFCURVE",
"227 -332 OFFCURVE",
"435 -332 CURVE SMOOTH"
);
}
);
width = 595;
}
);
unicode = 062D;
},
{
glyphname = "hah-ar.fina";
layers = (
{
components = (
{
name = "hah-ar";
},
{
name = connection_r;
transform = "{1, 0, 0, 1, 559, 0}";
}
);
layerId = "B420756C-160B-4E3B-8A8F-018354DD19AA";
paths = (
{
closed = 1;
nodes = (
"667 0 LINE",
"659 34 LINE",
"559 34 LINE",
"567 0 LINE"
);
}
);
width = 609;
},
{
components = (
{
name = "hah-ar";
},
{
name = connection_r;
transform = "{1, 0, 0, 1, 604, 0}";
}
);
layerId = "7271F2A9-EB19-499E-973E-7497F9144823";
paths = (
{
closed = 1;
nodes = (
"712 0 LINE",
"684 120 LINE",
"565 120 LINE",
"593 0 LINE"
);
}
);
width = 654;
},
{
associatedMasterId = "B420756C-160B-4E3B-8A8F-018354DD19AA";
components = (
{
name = "hah-ar";
},
{
name = connection_r;
transform = "{1, 0, 0, 1, 652, 0}";
}
);
layerId = "2D07D9D6-DD7A-4EF1-82E8-8B18836F0AAC";
paths = (
{
closed = 1;
nodes = (
"702 0 LINE",
"702 188 LINE",
"601 188 LINE",
"601 0 LINE"
);
}
);
width = 702;
}
);
unicode = FEA2;
},
{
glyphname = "hah-ar.medi";
layers = (
{
components = (
{
name = "hah-ar.init";
},
{
name = connection_r;
transform = "{1, 0, 0, 1, 533, 0}";
}
);
layerId = "B420756C-160B-4E3B-8A8F-018354DD19AA";
paths = (
{
closed = 1;
nodes = (
"641 0 LINE",
"633 34 LINE",
"533 34 LINE",
"541 0 LINE"
);
}
);
width = 583;
},
{
components = (
{
name = "hah-ar.init";
},
{
name = connection_r;
transform = "{1, 0, 0, 1, 580, 0}";
}
);
layerId = "7271F2A9-EB19-499E-973E-7497F9144823";
paths = (
{
closed = 1;
nodes = (
"688 0 LINE",
"660 120 LINE",
"541 120 LINE",
"569 0 LINE"
);
}
);
width = 630;
},
{
associatedMasterId = "B420756C-160B-4E3B-8A8F-018354DD19AA";
components = (
{
name = "hah-ar.init";
},
{
name = connection_r;
transform = "{1, 0, 0, 1, 607, 0}";
}
);
layerId = "2D07D9D6-DD7A-4EF1-82E8-8B18836F0AAC";
paths = (
{
closed = 1;
nodes = (
"657 0 LINE",
"657 188 LINE",
"556 188 LINE",
"556 0 LINE"
);
}
);
width = 657;
}
);
unicode = FEA4;
},
{
glyphname = "hah-ar.init";
layers = (
{
anchors = (
{
name = bottom;
position = "{327, -60}";
},
{
name = top;
position = "{180, 573}";
}
);
components = (
{
name = connection_l;
}
);
layerId = "B420756C-160B-4E3B-8A8F-018354DD19AA";
paths = (
{
closed = 1;
nodes = (
"541 0 LINE",
"467 319 LINE SMOOTH",
"439 439 OFFCURVE",
"346 500 OFFCURVE",
"200 500 CURVE SMOOTH",
"132 500 OFFCURVE",
"61 487 OFFCURVE",
"12 475 CURVE",
"27 429 LINE",
"16 446 LINE",
"109 459 OFFCURVE",
"163 465 OFFCURVE",
"205 465 CURVE SMOOTH",
"333 465 OFFCURVE",
"410 414 OFFCURVE",
"433 315 CURVE SMOOTH",
"501 20 LINE",
"512 34 LINE",
"50 34 LINE",
"58 0 LINE"
);
}
);
width = 543;
},
{
anchors = (
{
name = bottom;
position = "{318, -62}";
},
{
name = top;
position = "{174, 563}";
}
);
components = (
{
name = connection_l;
}
);
layerId = "7271F2A9-EB19-499E-973E-7497F9144823";
paths = (
{
closed = 1;
nodes = (
"569 0 LINE",
"504 279 LINE SMOOTH",
"471 421 OFFCURVE",
"349 500 OFFCURVE",
"199 500 CURVE SMOOTH",
"137 500 OFFCURVE",
"81 487 OFFCURVE",
"26 472 CURVE",
"65 351 LINE",
"26 363 LINE",
"122 374 OFFCURVE",
"171 380 OFFCURVE",
"206 380 CURVE SMOOTH",
"300 380 OFFCURVE",
"357 338 OFFCURVE",
"373 267 CURVE SMOOTH",
"412 90 LINE",
"439 120 LINE",
"30 120 LINE",
"58 0 LINE"
);
}
);
width = 571;
},
{
anchors = (
{
name = bottom;
position = "{224, -60}";
},
{
name = top;
position = "{224, 570}";
}
);
associatedMasterId = "B420756C-160B-4E3B-8A8F-018354DD19AA";
components = (
{
name = connection_l;
}
);
layerId = "2D07D9D6-DD7A-4EF1-82E8-8B18836F0AAC";
paths = (
{
closed = 1;
nodes = (
"556 0 LINE",
"556 209 LINE SMOOTH",
"556 390 OFFCURVE",
"407 505 OFFCURVE",
"224 505 CURVE SMOOTH",
"144 505 OFFCURVE",
"65 483 OFFCURVE",
"-53 450 CURVE",
"57 573 LINE",
"91 267 LINE",
"57 305 LINE",
"121 314 OFFCURVE",
"161 317 OFFCURVE",
"190 317 CURVE SMOOTH",
"293 317 OFFCURVE",
"332 277 OFFCURVE",
"332 209 CURVE SMOOTH",
"332 127 LINE",
"411 188 LINE",
"0 188 LINE",
"0 0 LINE"
);
}
);
width = 616;
},
{
associatedMasterId = "B420756C-160B-4E3B-8A8F-018354DD19AA";
layerId = "3E30764C-9E97-4B15-89BF-50A5FCB846DD";
name = "Dec 9 17, 01:37";
paths = (
{
closed = 1;
nodes = (
"143 468 OFFCURVE",
"204 476 OFFCURVE",
"255 476 CURVE SMOOTH",
"384 476 OFFCURVE",
"448 426 OFFCURVE",
"448 327 CURVE SMOOTH",
"448 0 LINE",
"483 34 LINE",
"0 34 LINE",
"0 0 LINE",
"483 0 LINE",
"483 327 LINE SMOOTH",
"483 447 OFFCURVE",
"402 510 OFFCURVE",
"254 510 CURVE SMOOTH",
"187 510 OFFCURVE",
"114 497 OFFCURVE",
"62 486 CURVE",
"69 453 LINE"
);
}
);
width = 600;
},
{
associatedMasterId = "B420756C-160B-4E3B-8A8F-018354DD19AA";
components = (
{
name = connection_l;
}
);
layerId = "90511519-2A2D-45DD-8A48-AE5D43C2ADB7";
name = "Dec 9 17, 02:08";
paths = (
{
closed = 1;
nodes = (
"159 311 OFFCURVE",
"192 317 OFFCURVE",
"226 317 CURVE SMOOTH",
"294 317 OFFCURVE",
"312 297 OFFCURVE",
"312 240 CURVE SMOOTH",
"312 38 LINE",
"491 188 LINE",
"0 188 LINE",
"0 0 LINE",
"536 0 LINE",
"536 240 LINE SMOOTH",
"536 399 OFFCURVE",
"411 505 OFFCURVE",
"226 505 CURVE SMOOTH",
"173 505 OFFCURVE",
"113 496 OFFCURVE",
"41 477 CURVE",
"96 295 LINE"
);
}
);
width = 600;
},
{
associatedMasterId = "B420756C-160B-4E3B-8A8F-018354DD19AA";
components = (
{
name = connection_l;
}
);
layerId = "A305B462-A977-458B-81E0-F58352F6C6F3";
name = "Dec 9 17, 02:15";
paths = (
{
closed = 1;
nodes = (
"536 0 LINE",
"536 238 LINE SMOOTH",
"536 400 OFFCURVE",
"401 505 OFFCURVE",
"239 505 CURVE SMOOTH",
"172 505 OFFCURVE",
"107 487 OFFCURVE",
"-12 451 CURVE",
"60 578 LINE",
"98 285 LINE",
"52 300 LINE",
"150 309 OFFCURVE",
"200 317 OFFCURVE",
"233 317 CURVE SMOOTH",
"290 317 OFFCURVE",
"312 294 OFFCURVE",
"312 247 CURVE SMOOTH",
"312 154 LINE",
"364 188 LINE",
"0 188 LINE",
"0 0 LINE"
);
}
);
width = 600;
}
);
unicode = FEA3;
},
{
glyphname = "dal-ar";
layers = (
{
anchors = (
{
name = bottom;
position = "{317, -100}";
},
{
name = top;
position = "{77, 573}";
}
);
layerId = "B420756C-160B-4E3B-8A8F-018354DD19AA";
paths = (
{
closed = 1;
nodes = (
"485 0 LINE",
"431 234 LINE SMOOTH",
"384 435 OFFCURVE",
"277 500 OFFCURVE",
"117 500 CURVE SMOOTH",
"34 500 LINE",
"42 466 LINE",
"122 466 LINE SMOOTH",
"278 466 OFFCURVE",
"358 397 OFFCURVE",
"397 230 CURVE SMOOTH",
"447 10 LINE",
"466 34 LINE",
"90 34 LINE",
"98 0 LINE"
);
}
);
width = 487;
},
{
anchors = (
{
name = bottom;
position = "{322, -100}";
},
{
name = top;
position = "{83, 573}";
}
);
layerId = "7271F2A9-EB19-499E-973E-7497F9144823";
paths = (
{
closed = 1;
nodes = (
"485 0 LINE",
"430 238 LINE SMOOTH",
"383 439 OFFCURVE",
"280 500 OFFCURVE",
"120 500 CURVE SMOOTH",
"34 500 LINE",
"62 380 LINE",
"138 380 LINE SMOOTH",
"233 380 OFFCURVE",
"270 349 OFFCURVE",
"299 226 CURVE SMOOTH",
"344 20 LINE",
"435 120 LINE",
"70 120 LINE",
"98 0 LINE"
);
}
);
width = 477;
},
{
anchors = (
{
name = bottom;
position = "{241, -100}";
},
{
name = top;
position = "{175, 573}";
}
);
associatedMasterId = "B420756C-160B-4E3B-8A8F-018354DD19AA";
layerId = "2D07D9D6-DD7A-4EF1-82E8-8B18836F0AAC";
paths = (
{
closed = 1;
nodes = (
"477 0 LINE",
"477 162 LINE SMOOTH",
"477 389 OFFCURVE",
"359 505 OFFCURVE",
"133 505 CURVE SMOOTH",
"92 505 LINE",
"92 317 LINE",
"133 317 LINE SMOOTH",
"227 317 OFFCURVE",
"253 291 OFFCURVE",
"253 162 CURVE SMOOTH",
"253 75 LINE",
"387 188 LINE",
"40 188 LINE",
"40 0 LINE"
);
}
);
width = 517;
},
{
associatedMasterId = "B420756C-160B-4E3B-8A8F-018354DD19AA";
layerId = "44EA7D5D-F5AC-405E-BD65-A0BA83591E15";
name = "Dec 9 17, 19:07";
paths = (
{
closed = 1;
nodes = (
"173 466 LINE SMOOTH",
"311 466 OFFCURVE",
"392 361 OFFCURVE",
"392 177 CURVE SMOOTH",
"392 20 LINE",
"407 34 LINE",
"40 34 LINE",
"40 0 LINE",
"427 0 LINE",
"427 177 LINE SMOOTH",
"427 378 OFFCURVE",
"333 500 OFFCURVE",
"173 500 CURVE SMOOTH",
"92 500 LINE",
"92 466 LINE"
);
}
);
width = 487;
},
{
associatedMasterId = "7271F2A9-EB19-499E-973E-7497F9144823";
layerId = "8B18F09E-8E92-4EA4-9A1C-AB7F386541DC";
name = "Dec 9 17, 19:07";
paths = (
{
closed = 1;
nodes = (
"193 380 LINE SMOOTH",
"268 380 OFFCURVE",
"313 315 OFFCURVE",
"313 177 CURVE SMOOTH",
"313 70 LINE",
"357 120 LINE",
"40 120 LINE",
"40 0 LINE",
"447 0 LINE",
"447 177 LINE SMOOTH",
"447 378 OFFCURVE",
"353 500 OFFCURVE",
"193 500 CURVE SMOOTH",
"92 500 LINE",
"92 380 LINE"
);
}
);
width = 507;
},
{
associatedMasterId = "B420756C-160B-4E3B-8A8F-018354DD19AA";
layerId = "D520B00F-D466-4443-AE82-E8B8D3D84C60";
name = "Dec 9 17, 19:07";
paths = (
{
closed = 1;
nodes = (
"133 317 LINE SMOOTH",
"204 317 OFFCURVE",
"245 257 OFFCURVE",
"245 145 CURVE SMOOTH",
"245 132 LINE",
"312 188 LINE",
"40 188 LINE",
"40 0 LINE",
"469 0 LINE",
"469 139 LINE SMOOTH",
"469 362 OFFCURVE",
"336 505 OFFCURVE",
"133 505 CURVE SMOOTH",
"76 505 LINE",
"76 317 LINE"
);
}
);
width = 529;
},
{
anchors = (
{
name = bottom;
position = "{241, -100}";
},
{
name = top;
position = "{158, 563}";
}
);
associatedMasterId = "B420756C-160B-4E3B-8A8F-018354DD19AA";
layerId = "53EFED94-6F78-4938-847E-D5BF781B7976";
name = "Dec 9 17, 19:25";
paths = (
{
closed = 1;
nodes = (
"133 317 LINE SMOOTH",
"227 317 OFFCURVE",
"253 291 OFFCURVE",
"253 162 CURVE SMOOTH",
"253 75 LINE",
"387 188 LINE",
"40 188 LINE",
"40 0 LINE",
"477 0 LINE",
"477 162 LINE SMOOTH",
"477 389 OFFCURVE",
"359 505 OFFCURVE",
"133 505 CURVE SMOOTH",
"92 505 LINE",
"92 317 LINE"
);
}
);
width = 517;
}
);
unicode = 062F;
},
{
glyphname = "dal-ar.fina";
layers = (
{
components = (
{
name = "dal-ar";
},
{
name = connection_r;
transform = "{1, 0, 0, 1, 477, 0}";
}
);
layerId = "B420756C-160B-4E3B-8A8F-018354DD19AA";
paths = (
{
closed = 1;
nodes = (
"585 0 LINE",
"577 34 LINE",
"477 34 LINE",
"485 0 LINE"
);
}
);
width = 527;
},
{
components = (
{
name = "dal-ar";
},
{
name = connection_r;
transform = "{1, 0, 0, 1, 496, 0}";
}
);
layerId = "7271F2A9-EB19-499E-973E-7497F9144823";
paths = (
{
closed = 1;
nodes = (
"604 0 LINE",
"576 120 LINE",
"457 120 LINE",
"485 0 LINE"
);
}
);
width = 546;
},
{
associatedMasterId = "B420756C-160B-4E3B-8A8F-018354DD19AA";
components = (
{
name = "dal-ar";
},
{
name = connection_r;
transform = "{1, 0, 0, 1, 528, 0}";
}
);
layerId = "2D07D9D6-DD7A-4EF1-82E8-8B18836F0AAC";
paths = (
{
closed = 1;
nodes = (
"578 0 LINE",
"578 188 LINE",
"477 188 LINE",
"477 0 LINE"
);
}
);
width = 578;
}
);
unicode = FEAA;
},
{
glyphname = "reh-ar";
layers = (
{
anchors = (
{
name = bottom;
position = "{248, -350}";
},
{
name = top;
position = "{87, 573}";
}
);
background = {
anchors = (
{
name = bottom;
position = "{248, -350}";
},
{
name = top;
position = "{87, 573}";
}
);
paths = (
{
closed = 1;
nodes = (
"198 -247 OFFCURVE",
"253 -189 OFFCURVE",
"253 -99 CURVE SMOOTH",
"253 -81 OFFCURVE",
"251 -61 OFFCURVE",
"246 -40 CURVE SMOOTH",
"121 500 LINE",
"86 500 LINE",
"212 -44 LINE SMOOTH",
"216 -63 OFFCURVE",
"219 -81 OFFCURVE",
"219 -97 CURVE SMOOTH",
"219 -169 OFFCURVE",
"177 -213 OFFCURVE",
"106 -213 CURVE SMOOTH",
"89 -213 OFFCURVE",
"70 -211 OFFCURVE",
"51 -209 CURVE",
"53 -243 LINE",
"71 -245 OFFCURVE",
"92 -247 OFFCURVE",
"108 -247 CURVE SMOOTH"
);
}
);
};
layerId = "B420756C-160B-4E3B-8A8F-018354DD19AA";
paths = (
{
closed = 1;
nodes = (
"198 -247 OFFCURVE",
"253 -189 OFFCURVE",
"253 -99 CURVE SMOOTH",
"253 -81 OFFCURVE",
"251 -61 OFFCURVE",
"246 -40 CURVE SMOOTH",
"121 500 LINE",
"86 500 LINE",
"212 -44 LINE SMOOTH",
"216 -63 OFFCURVE",
"219 -81 OFFCURVE",
"219 -97 CURVE SMOOTH",
"219 -169 OFFCURVE",
"177 -213 OFFCURVE",
"106 -213 CURVE SMOOTH",
"89 -213 OFFCURVE",
"70 -211 OFFCURVE",
"51 -209 CURVE",
"53 -243 LINE",
"71 -245 OFFCURVE",
"92 -247 OFFCURVE",
"108 -247 CURVE SMOOTH"
);
}
);
width = 259;
},
{
anchors = (
{
name = bottom;
position = "{229, -350}";
},
{
name = top;
position = "{67, 573}";
}
);
background = {
anchors = (
{
name = bottom;
position = "{229, -350}";
},
{
name = top;
position = "{67, 573}";
}
);
paths = (
{
closed = 1;
nodes = (
"225 -247 OFFCURVE",
"282 -186 OFFCURVE",
"282 -94 CURVE SMOOTH",
"282 -76 OFFCURVE",
"280 -56 OFFCURVE",
"275 -36 CURVE SMOOTH",
"151 500 LINE",
"17 500 LINE",
"144 -48 LINE SMOOTH",
"148 -66 OFFCURVE",
"150 -80 OFFCURVE",
"150 -91 CURVE SMOOTH",
"150 -117 OFFCURVE",
"140 -127 OFFCURVE",
"123 -127 CURVE SMOOTH",
"110 -127 OFFCURVE",
"98 -125 OFFCURVE",
"76 -123 CURVE",
"80 -244 LINE",
"97 -246 OFFCURVE",
"119 -247 OFFCURVE",
"130 -247 CURVE SMOOTH"
);
}
);
};
layerId = "7271F2A9-EB19-499E-973E-7497F9144823";
paths = (
{
closed = 1;
nodes = (
"225 -247 OFFCURVE",
"282 -186 OFFCURVE",
"282 -94 CURVE SMOOTH",
"282 -76 OFFCURVE",
"280 -56 OFFCURVE",
"275 -36 CURVE SMOOTH",
"151 500 LINE",
"17 500 LINE",
"144 -48 LINE SMOOTH",
"148 -66 OFFCURVE",
"150 -80 OFFCURVE",
"150 -91 CURVE SMOOTH",
"150 -117 OFFCURVE",
"140 -127 OFFCURVE",
"123 -127 CURVE SMOOTH",
"110 -127 OFFCURVE",
"98 -125 OFFCURVE",
"76 -123 CURVE",
"80 -244 LINE",
"97 -246 OFFCURVE",
"119 -247 OFFCURVE",
"130 -247 CURVE SMOOTH"
);
}
);
width = 269;
},
{
anchors = (
{
name = bottom;
position = "{126, -350}";
},
{
name = top;
position = "{178, 573}";
}
);
associatedMasterId = "B420756C-160B-4E3B-8A8F-018354DD19AA";
layerId = "2D07D9D6-DD7A-4EF1-82E8-8B18836F0AAC";
paths = (
{
closed = 1;
nodes = (
"176 -293 OFFCURVE",
"289 -177 OFFCURVE",
"289 -13 CURVE SMOOTH",
"289 505 LINE",
"65 505 LINE",
"65 -13 LINE SMOOTH",
"65 -76 OFFCURVE",
"43 -105 OFFCURVE",
"16 -105 CURVE SMOOTH",
"8 -105 OFFCURVE",
"-4 -104 OFFCURVE",
"-25 -102 CURVE",
"-50 -289 LINE",
"-24 -292 OFFCURVE",
"-1 -293 OFFCURVE",
"16 -293 CURVE SMOOTH"
);
}
);
width = 349;
}
);
unicode = 0631;
},
{
glyphname = "reh-ar.fina";
layers = (
{
components = (
{
name = "reh-ar";
},
{
name = connection_r;
transform = "{1, 0, 0, 1, 229, 0}";
}
);
layerId = "B420756C-160B-4E3B-8A8F-018354DD19AA";
paths = (
{
closed = 1;
nodes = (
"337 0 LINE",
"329 34 LINE",
"228 34 LINE",
"236 0 LINE"
);
}
);
width = 279;
},
{
components = (
{
name = "reh-ar";
},
{
name = connection_r;
transform = "{1, 0, 0, 1, 278, 0}";
}
);
layerId = "7271F2A9-EB19-499E-973E-7497F9144823";
paths = (
{
closed = 1;
nodes = (
"386 0 LINE",
"358 120 LINE",
"238 120 LINE",
"266 0 LINE"
);
}
);
width = 328;
},
{
associatedMasterId = "B420756C-160B-4E3B-8A8F-018354DD19AA";
components = (
{
name = "reh-ar";
},
{
name = connection_r;
transform = "{1, 0, 0, 1, 340, 0}";
}
);
layerId = "2D07D9D6-DD7A-4EF1-82E8-8B18836F0AAC";
paths = (
{
closed = 1;
nodes = (
"390 0 LINE",
"390 188 LINE",
"289 188 LINE",
"289 0 LINE"
);
}
);
width = 390;
}
);
unicode = FEAE;
},
{
glyphname = "seen-ar";
layers = (
{
anchors = (
{
name = bottom;
position = "{881, -100}";
},
{
name = top;
position = "{725, 573}";
}
);
layerId = "B420756C-160B-4E3B-8A8F-018354DD19AA";
paths = (
{
closed = 1;
nodes = (
"548 -248 OFFCURVE",
"654 -177 OFFCURVE",
"622 -38 CURVE SMOOTH",
"509 450 LINE",
"474 450 LINE",
"587 -42 LINE SMOOTH",
"612 -147 OFFCURVE",
"543 -214 OFFCURVE",
"413 -214 CURVE SMOOTH",
"125 -214 OFFCURVE",
"127 -6 OFFCURVE",
"109 284 CURVE",
"126 268 LINE",
"59 272 LINE",
"74 281 LINE",
"92 -16 OFFCURVE",
"100 -248 OFFCURVE",
"415 -248 CURVE SMOOTH"
);
},
{
closed = 1;
nodes = (
"747 0 LINE SMOOTH",
"814 0 OFFCURVE",
"848 19 OFFCURVE",
"848 86 CURVE SMOOTH",
"848 111 OFFCURVE",
"843 142 OFFCURVE",
"834 180 CURVE SMOOTH",
"772 450 LINE",
"737 450 LINE",
"800 176 LINE SMOOTH",
"809 138 OFFCURVE",
"814 110 OFFCURVE",
"814 89 CURVE SMOOTH",
"814 44 OFFCURVE",
"792 34 OFFCURVE",
"742 34 CURVE SMOOTH",
"605 34 LINE",
"613 0 LINE"
);
},
{
closed = 1;
nodes = (
"1139 0 LINE",
"1074 280 LINE SMOOTH",
"1062 333 OFFCURVE",
"1022 434 OFFCURVE",
"991 502 CURVE",
"959 491 LINE",
"996 409 OFFCURVE",
"1030 318 OFFCURVE",
"1040 276 CURVE SMOOTH",
"1103 0 LINE",
"1130 34 LINE",
"935 34 LINE SMOOTH",
"900 34 OFFCURVE",
"866 48 OFFCURVE",
"826 77 CURVE",
"808 50 LINE",
"855 14 OFFCURVE",
"899 0 OFFCURVE",
"940 0 CURVE SMOOTH"
);
}
);
width = 1161;
},
{
anchors = (
{
name = bottom;
position = "{940, -100}";
},
{
name = top;
position = "{784, 573}";
}
);
layerId = "7271F2A9-EB19-499E-973E-7497F9144823";
paths = (
{
closed = 1;
nodes = (
"628 -248 OFFCURVE",
"728 -144 OFFCURVE",
"695 1 CURVE SMOOTH",
"592 450 LINE",
"458 450 LINE",
"564 -11 LINE SMOOTH",
"582 -87 OFFCURVE",
"541 -128 OFFCURVE",
"443 -128 CURVE SMOOTH",
"197 -128 OFFCURVE",
"220 61 OFFCURVE",
"195 336 CURVE",
"261 277 LINE",
"7 290 LINE",
"64 338 LINE",
"90 2 OFFCURVE",
"93 -248 OFFCURVE",
"450 -248 CURVE SMOOTH"
);
},
{
closed = 1;
nodes = (
"772 0 LINE SMOOTH",
"885 0 OFFCURVE",
"939 49 OFFCURVE",
"939 151 CURVE SMOOTH",
"939 181 OFFCURVE",
"934 216 OFFCURVE",
"925 256 CURVE SMOOTH",
"880 450 LINE",
"746 450 LINE",
"793 244 LINE SMOOTH",
"803 202 OFFCURVE",
"808 174 OFFCURVE",
"808 156 CURVE SMOOTH",
"808 124 OFFCURVE",
"792 120 OFFCURVE",
"754 120 CURVE SMOOTH",
"667 120 LINE",
"694 0 LINE"
);
},
{
closed = 1;
nodes = (
"1274 0 LINE",
"1208 283 LINE SMOOTH",
"1199 323 OFFCURVE",
"1158 434 OFFCURVE",
"1130 506 CURVE",
"1004 474 LINE",
"1039 386 OFFCURVE",
"1071 297 OFFCURVE",
"1077 271 CURVE SMOOTH",
"1117 91 LINE",
"1134 120 LINE",
"988 120 LINE SMOOTH",
"974 120 OFFCURVE",
"959 129 OFFCURVE",
"929 151 CURVE",
"857 53 LINE",
"905 16 OFFCURVE",
"956 0 OFFCURVE",
"1006 0 CURVE SMOOTH"
);
}
);
width = 1276;
},
{
anchors = (
{
name = bottom;
position = "{910, -100}";
},
{
name = top;
position = "{910, 573}";
}
);
associatedMasterId = "B420756C-160B-4E3B-8A8F-018354DD19AA";
layerId = "2D07D9D6-DD7A-4EF1-82E8-8B18836F0AAC";
paths = (
{
closed = 1;
nodes = (
"574 -248 OFFCURVE",
"693 -131 OFFCURVE",
"693 18 CURVE SMOOTH",
"693 450 LINE",
"469 450 LINE",
"469 18 LINE SMOOTH",
"469 -39 OFFCURVE",
"449 -60 OFFCURVE",
"373 -60 CURVE SMOOTH",
"296 -60 OFFCURVE",
"264 -30 OFFCURVE",
"264 25 CURVE SMOOTH",
"264 60 OFFCURVE",
"274 147 OFFCURVE",
"294 278 CURVE",
"73 306 LINE",
"56 195 OFFCURVE",
"40 78 OFFCURVE",
"40 25 CURVE SMOOTH",
"40 -130 OFFCURVE",
"179 -248 OFFCURVE",
"373 -248 CURVE SMOOTH"
);
},
{
closed = 1;
nodes = (
"724 0 LINE SMOOTH",
"923 0 OFFCURVE",
"1021 109 OFFCURVE",
"1021 325 CURVE SMOOTH",
"1021 450 LINE",
"797 450 LINE",
"797 325 LINE SMOOTH",
"797 202 OFFCURVE",
"781 188 OFFCURVE",
"724 188 CURVE SMOOTH",
"693 188 LINE",
"693 0 LINE"
);
},
{
closed = 1;
nodes = (
"1349 0 LINE",
"1349 270 LINE SMOOTH",
"1349 314 OFFCURVE",
"1332 430 OFFCURVE",
"1319 505 CURVE",
"1098 474 LINE",
"1113 386 OFFCURVE",
"1125 296 OFFCURVE",
"1125 270 CURVE SMOOTH",
"1125 75 LINE",
"1259 188 LINE",
"1056 188 LINE SMOOTH",
"1032 188 OFFCURVE",
"1007 197 OFFCURVE",
"989 213 CURVE",
"857 76 LINE",
"911 28 OFFCURVE",
"985 0 OFFCURVE",
"1056 0 CURVE SMOOTH"
);
}
);
width = 1399;
}
);
unicode = 0633;
},
{
glyphname = "seen-ar.fina";
layers = (
{
components = (
{
name = "seen-ar";
},
{
name = connection_r;
transform = "{1, 0, 0, 1, 1131, 0}";
}
);
layerId = "B420756C-160B-4E3B-8A8F-018354DD19AA";
paths = (
{
closed = 1;
nodes = (
"1239 0 LINE",
"1231 34 LINE",
"1131 34 LINE",
"1139 0 LINE"
);
}
);
width = 1181;
},
{
components = (
{
name = "seen-ar";
},
{
name = connection_r;
transform = "{1, 0, 0, 1, 1285, 0}";
}
);
layerId = "7271F2A9-EB19-499E-973E-7497F9144823";
paths = (
{
closed = 1;
nodes = (
"1393 0 LINE",
"1365 120 LINE",
"1246 120 LINE",
"1274 0 LINE"
);
}
);
width = 1335;
},
{
associatedMasterId = "B420756C-160B-4E3B-8A8F-018354DD19AA";
components = (
{
name = "seen-ar";
},
{
name = connection_r;
transform = "{1, 0, 0, 1, 1400, 0}";
}
);
layerId = "2D07D9D6-DD7A-4EF1-82E8-8B18836F0AAC";
paths = (
{
closed = 1;
nodes = (
"1450 0 LINE",
"1450 188 LINE",
"1349 188 LINE",
"1349 0 LINE"
);
}
);
width = 1450;
}
);
unicode = FEB2;
},
{
glyphname = "seen-ar.medi";
layers = (
{
components = (
{
name = "seen-ar.init";
},
{
name = connection_r;
transform = "{1, 0, 0, 1, 731, 0}";
}
);
layerId = "B420756C-160B-4E3B-8A8F-018354DD19AA";
paths = (
{
closed = 1;
nodes = (
"839 0 LINE",
"831 34 LINE",
"731 34 LINE",
"739 0 LINE"
);
}
);
width = 781;
},
{
components = (
{
name = "seen-ar.init";
},
{
name = connection_r;
transform = "{1, 0, 0, 1, 914, 0}";
}
);
layerId = "7271F2A9-EB19-499E-973E-7497F9144823";
paths = (
{
closed = 1;
nodes = (
"1022 0 LINE",
"994 120 LINE",
"875 120 LINE",
"903 0 LINE"
);
}
);
width = 964;
},
{
associatedMasterId = "B420756C-160B-4E3B-8A8F-018354DD19AA";
components = (
{
name = "seen-ar.init";
},
{
name = connection_r;
transform = "{1, 0, 0, 1, 1032, 0}";
}
);
layerId = "2D07D9D6-DD7A-4EF1-82E8-8B18836F0AAC";
paths = (
{
closed = 1;
nodes = (
"1082 0 LINE",
"1082 188 LINE",
"981 188 LINE",
"981 0 LINE"
);
}
);
width = 1082;
}
);
unicode = FEB4;
},
{
glyphname = "seen-ar.init";
layers = (
{
anchors = (
{
name = bottom;
position = "{481, -100}";
},
{
name = top;
position = "{325, 573}";
}
);
background = {
anchors = (
{
name = bottom;
position = "{481, -100}";
},
{
name = top;
position = "{325, 573}";
}
);
components = (
{
name = connection_l;
}
);
paths = (
{
closed = 1;
nodes = (
"739 0 LINE",
"674 280 LINE SMOOTH",
"662 333 OFFCURVE",
"622 434 OFFCURVE",
"591 502 CURVE",
"559 491 LINE",
"596 409 OFFCURVE",
"630 318 OFFCURVE",
"640 276 CURVE SMOOTH",
"703 0 LINE",
"730 34 LINE",
"535 34 LINE SMOOTH",
"500 34 OFFCURVE",
"466 48 OFFCURVE",
"426 77 CURVE",
"408 50 LINE",
"455 14 OFFCURVE",
"499 0 OFFCURVE",
"540 0 CURVE SMOOTH"
);
},
{
closed = 1;
nodes = (
"213 0 LINE",
"109 450 LINE",
"74 450 LINE",
"173 20 LINE",
"184 34 LINE",
"50 34 LINE",
"58 0 LINE"
);
},
{
closed = 1;
nodes = (
"347 0 LINE SMOOTH",
"414 0 OFFCURVE",
"448 19 OFFCURVE",
"448 86 CURVE SMOOTH",
"448 111 OFFCURVE",
"443 142 OFFCURVE",
"434 180 CURVE SMOOTH",
"372 450 LINE",
"337 450 LINE",
"400 176 LINE SMOOTH",
"409 138 OFFCURVE",
"414 110 OFFCURVE",
"414 89 CURVE SMOOTH",
"414 44 OFFCURVE",
"392 34 OFFCURVE",
"342 34 CURVE SMOOTH",
"205 34 LINE",
"213 0 LINE"
);
}
);
};
components = (
{
name = connection_l;
}
);
layerId = "B420756C-160B-4E3B-8A8F-018354DD19AA";
paths = (
{
closed = 1;
nodes = (
"739 0 LINE",
"674 280 LINE SMOOTH",
"662 333 OFFCURVE",
"622 434 OFFCURVE",
"591 502 CURVE",
"559 491 LINE",
"596 409 OFFCURVE",
"630 318 OFFCURVE",
"640 276 CURVE SMOOTH",
"703 0 LINE",
"730 34 LINE",
"535 34 LINE SMOOTH",
"500 34 OFFCURVE",
"466 48 OFFCURVE",
"426 77 CURVE",
"408 50 LINE",
"455 14 OFFCURVE",
"499 0 OFFCURVE",
"540 0 CURVE SMOOTH"
);
},
{
closed = 1;
nodes = (
"213 0 LINE",
"109 450 LINE",
"74 450 LINE",
"173 20 LINE",
"184 34 LINE",
"50 34 LINE",
"58 0 LINE"
);
},
{
closed = 1;
nodes = (
"347 0 LINE SMOOTH",
"414 0 OFFCURVE",
"448 19 OFFCURVE",
"448 86 CURVE SMOOTH",
"448 111 OFFCURVE",
"443 142 OFFCURVE",
"434 180 CURVE SMOOTH",
"372 450 LINE",
"337 450 LINE",
"400 176 LINE SMOOTH",
"409 138 OFFCURVE",
"414 110 OFFCURVE",
"414 89 CURVE SMOOTH",
"414 44 OFFCURVE",
"392 34 OFFCURVE",
"342 34 CURVE SMOOTH",
"205 34 LINE",
"213 0 LINE"
);
}
);
width = 761;
},
{
anchors = (
{
name = bottom;
position = "{569, -100}";
},
{
name = top;
position = "{413, 573}";
}
);
background = {
anchors = (
{
name = bottom;
position = "{569, -100}";
},
{
name = top;
position = "{413, 573}";
}
);
components = (
{
name = connection_l;
}
);
paths = (
{
closed = 1;
nodes = (
"903 0 LINE",
"837 283 LINE SMOOTH",
"828 323 OFFCURVE",
"787 434 OFFCURVE",
"759 506 CURVE",
"633 474 LINE",
"668 386 OFFCURVE",
"700 297 OFFCURVE",
"706 271 CURVE SMOOTH",
"746 91 LINE",
"763 120 LINE",
"617 120 LINE SMOOTH",
"603 120 OFFCURVE",
"588 129 OFFCURVE",
"558 151 CURVE",
"486 53 LINE",
"534 16 OFFCURVE",
"585 0 OFFCURVE",
"635 0 CURVE SMOOTH"
);
},
{
closed = 1;
nodes = (
"325 0 LINE",
"221 450 LINE",
"87 450 LINE",
"168 91 LINE",
"188 120 LINE",
"30 120 LINE",
"58 0 LINE"
);
},
{
closed = 1;
nodes = (
"401 0 LINE SMOOTH",
"514 0 OFFCURVE",
"568 49 OFFCURVE",
"568 151 CURVE SMOOTH",
"568 181 OFFCURVE",
"563 216 OFFCURVE",
"554 256 CURVE SMOOTH",
"509 450 LINE",
"375 450 LINE",
"422 244 LINE SMOOTH",
"432 202 OFFCURVE",
"437 174 OFFCURVE",
"437 156 CURVE SMOOTH",
"437 124 OFFCURVE",
"421 120 OFFCURVE",
"383 120 CURVE SMOOTH",
"297 120 LINE",
"325 0 LINE"
);
}
);
};
components = (
{
name = connection_l;
}
);
layerId = "7271F2A9-EB19-499E-973E-7497F9144823";
paths = (
{
closed = 1;
nodes = (
"903 0 LINE",
"837 283 LINE SMOOTH",
"828 323 OFFCURVE",
"787 434 OFFCURVE",
"759 506 CURVE",
"633 474 LINE",
"668 386 OFFCURVE",
"700 297 OFFCURVE",
"706 271 CURVE SMOOTH",
"746 91 LINE",
"763 120 LINE",
"617 120 LINE SMOOTH",
"603 120 OFFCURVE",
"588 129 OFFCURVE",
"558 151 CURVE",
"486 53 LINE",
"534 16 OFFCURVE",
"585 0 OFFCURVE",
"635 0 CURVE SMOOTH"
);
},
{
closed = 1;
nodes = (
"325 0 LINE",
"221 450 LINE",
"87 450 LINE",
"168 91 LINE",
"188 120 LINE",
"30 120 LINE",
"58 0 LINE"
);
},
{
closed = 1;
nodes = (
"401 0 LINE SMOOTH",
"514 0 OFFCURVE",
"568 49 OFFCURVE",
"568 151 CURVE SMOOTH",
"568 181 OFFCURVE",
"563 216 OFFCURVE",
"554 256 CURVE SMOOTH",
"509 450 LINE",
"375 450 LINE",
"422 244 LINE SMOOTH",
"432 202 OFFCURVE",
"437 174 OFFCURVE",
"437 156 CURVE SMOOTH",
"437 124 OFFCURVE",
"421 120 OFFCURVE",
"383 120 CURVE SMOOTH",
"297 120 LINE",
"325 0 LINE"
);
}
);
width = 915;
},
{
anchors = (
{
name = bottom;
position = "{542, -100}";
},
{
name = top;
position = "{542, 573}";
}
);
associatedMasterId = "B420756C-160B-4E3B-8A8F-018354DD19AA";
components = (
{
name = connection_l;
}
);
layerId = "2D07D9D6-DD7A-4EF1-82E8-8B18836F0AAC";
paths = (
{
closed = 1;
nodes = (
"981 0 LINE",
"981 270 LINE SMOOTH",
"981 314 OFFCURVE",
"964 430 OFFCURVE",
"951 505 CURVE",
"730 474 LINE",
"745 386 OFFCURVE",
"757 296 OFFCURVE",
"757 270 CURVE SMOOTH",
"757 75 LINE",
"891 188 LINE",
"688 188 LINE SMOOTH",
"664 188 OFFCURVE",
"639 197 OFFCURVE",
"621 213 CURVE",
"489 76 LINE",
"543 28 OFFCURVE",
"617 0 OFFCURVE",
"688 0 CURVE SMOOTH"
);
},
{
closed = 1;
nodes = (
"325 0 LINE",
"325 450 LINE",
"101 450 LINE",
"101 140 LINE",
"145 188 LINE",
"0 188 LINE",
"0 0 LINE"
);
},
{
closed = 1;
nodes = (
"356 0 LINE SMOOTH",
"555 0 OFFCURVE",
"653 109 OFFCURVE",
"653 325 CURVE SMOOTH",
"653 450 LINE",
"429 450 LINE",
"429 325 LINE SMOOTH",
"429 202 OFFCURVE",
"413 188 OFFCURVE",
"356 188 CURVE SMOOTH",
"325 188 LINE",
"325 0 LINE"
);
}
);
width = 1041;
},
{
associatedMasterId = "B420756C-160B-4E3B-8A8F-018354DD19AA";
components = (
{
name = connection_l;
}
);
layerId = "A2510FCF-5D5A-4BF7-803B-5C318AFAE5FB";
name = "Dec 9 17, 21:11";
paths = (
{
closed = 1;
nodes = (
"662 411 OFFCURVE",
"675 320 OFFCURVE",
"675 278 CURVE SMOOTH",
"675 0 LINE",
"710 34 LINE",
"524 34 LINE SMOOTH",
"489 34 OFFCURVE",
"458 47 OFFCURVE",
"425 76 CURVE",
"402 51 LINE",
"442 15 OFFCURVE",
"483 0 OFFCURVE",
"524 0 CURVE SMOOTH",
"710 0 LINE",
"710 278 LINE SMOOTH",
"710 331 OFFCURVE",
"693 432 OFFCURVE",
"678 500 CURVE",
"644 493 LINE"
);
},
{
closed = 1;
nodes = (
"423 209 LINE SMOOTH",
"423 92 OFFCURVE",
"386 34 OFFCURVE",
"318 34 CURVE SMOOTH",
"195 34 LINE",
"195 0 LINE",
"318 0 LINE SMOOTH",
"426 0 OFFCURVE",
"458 103 OFFCURVE",
"458 209 CURVE SMOOTH",
"458 450 LINE",
"423 450 LINE"
);
},
{
closed = 1;
nodes = (
"160 20 LINE",
"175 34 LINE",
"0 34 LINE",
"0 0 LINE",
"195 0 LINE",
"195 450 LINE",
"160 450 LINE"
);
}
);
width = 600;
},
{
associatedMasterId = "7271F2A9-EB19-499E-973E-7497F9144823";
components = (
{
name = connection_l;
}
);
layerId = "CF0BEE47-D992-49A4-94A8-C14262DE469A";
name = "Dec 9 17, 21:30";
paths = (
{
closed = 1;
nodes = (
"720 392 OFFCURVE",
"731 303 OFFCURVE",
"731 277 CURVE SMOOTH",
"731 91 LINE",
"755 120 LINE",
"602 120 LINE SMOOTH",
"588 120 OFFCURVE",
"576 125 OFFCURVE",
"551 147 CURVE",
"462 57 LINE",
"504 20 OFFCURVE",
"552 0 OFFCURVE",
"602 0 CURVE SMOOTH",
"865 0 LINE",
"865 277 LINE SMOOTH",
"865 317 OFFCURVE",
"849 428 OFFCURVE",
"837 500 CURVE",
"705 480 LINE"
);
},
{
closed = 1;
nodes = (
"442 252 LINE SMOOTH",
"442 151 OFFCURVE",
"420 120 OFFCURVE",
"396 120 CURVE SMOOTH",
"287 120 LINE",
"287 0 LINE",
"396 0 LINE SMOOTH",
"512 0 OFFCURVE",
"576 91 OFFCURVE",
"576 252 CURVE SMOOTH",
"576 450 LINE",
"442 450 LINE"
);
},
{
closed = 1;
nodes = (
"153 91 LINE",
"180 120 LINE",
"0 120 LINE",
"0 0 LINE",
"287 0 LINE",
"287 450 LINE",
"153 450 LINE"
);
}
);
width = 935;
},
{
associatedMasterId = "B420756C-160B-4E3B-8A8F-018354DD19AA";
components = (
{
name = connection_l;
}
);
layerId = "6AE20E7C-CE71-4FC4-AA81-36AB1E552D1F";
name = "Dec 9 17, 21:34";
paths = (
{
closed = 1;
nodes = (
"673 411 OFFCURVE",
"686 320 OFFCURVE",
"686 278 CURVE SMOOTH",
"686 0 LINE",
"721 34 LINE",
"524 34 LINE SMOOTH",
"489 34 OFFCURVE",
"458 47 OFFCURVE",
"425 76 CURVE",
"402 51 LINE",
"442 15 OFFCURVE",
"483 0 OFFCURVE",
"524 0 CURVE SMOOTH",
"721 0 LINE",
"721 278 LINE SMOOTH",
"721 331 OFFCURVE",
"704 432 OFFCURVE",
"689 500 CURVE",
"655 493 LINE"
);
},
{
closed = 1;
nodes = (
"423 209 LINE SMOOTH",
"423 92 OFFCURVE",
"386 34 OFFCURVE",
"318 34 CURVE SMOOTH",
"195 34 LINE",
"195 0 LINE",
"318 0 LINE SMOOTH",
"426 0 OFFCURVE",
"458 103 OFFCURVE",
"458 209 CURVE SMOOTH",
"458 450 LINE",
"423 450 LINE"
);
},
{
closed = 1;
nodes = (
"160 20 LINE",
"175 34 LINE",
"0 34 LINE",
"0 0 LINE",
"195 0 LINE",
"195 450 LINE",
"160 450 LINE"
);
}
);
width = 801;
},
{
associatedMasterId = "B420756C-160B-4E3B-8A8F-018354DD19AA";
layerId = "6756C715-8051-4DD6-99D3-313F4C01DAB7";
name = "Dec 9 17, 22:01";
paths = (
{
closed = 1;
nodes = (
"63 140 LINE",
"107 188 LINE",
"0 188 LINE",
"0 0 LINE",
"287 0 LINE",
"287 450 LINE",
"63 450 LINE"
);
},
{
closed = 1;
nodes = (
"471 76 LINE",
"525 28 OFFCURVE",
"599 0 OFFCURVE",
"670 0 CURVE SMOOTH",
"983 0 LINE",
"983 270 LINE SMOOTH",
"983 314 OFFCURVE",
"966 430 OFFCURVE",
"953 505 CURVE",
"732 474 LINE",
"747 386 OFFCURVE",
"759 296 OFFCURVE",
"759 270 CURVE SMOOTH",
"759 75 LINE",
"893 188 LINE",
"670 188 LINE SMOOTH",
"646 188 OFFCURVE",
"621 197 OFFCURVE",
"603 213 CURVE"
);
},
{
closed = 1;
nodes = (
"411 325 LINE SMOOTH",
"411 202 OFFCURVE",
"395 188 OFFCURVE",
"338 188 CURVE SMOOTH",
"287 188 LINE",
"287 0 LINE",
"338 0 LINE SMOOTH",
"537 0 OFFCURVE",
"635 109 OFFCURVE",
"635 325 CURVE SMOOTH",
"635 450 LINE",
"411 450 LINE"
);
}
);
width = 1031;
},
{
associatedMasterId = "B420756C-160B-4E3B-8A8F-018354DD19AA";
layerId = "99EF8209-0805-4159-8C30-E01879A72B52";
name = "Dec 9 17, 22:01";
paths = (
{
closed = 1;
nodes = (
"63 140 LINE",
"107 188 LINE",
"0 188 LINE",
"0 0 LINE",
"287 0 LINE",
"287 450 LINE",
"63 450 LINE"
);
},
{
closed = 1;
nodes = (
"747 386 OFFCURVE",
"759 296 OFFCURVE",
"759 270 CURVE SMOOTH",
"759 75 LINE",
"893 188 LINE",
"670 188 LINE SMOOTH",
"646 188 OFFCURVE",
"631 195 OFFCURVE",
"583 237 CURVE",
"471 76 LINE",
"525 28 OFFCURVE",
"599 0 OFFCURVE",
"670 0 CURVE SMOOTH",
"983 0 LINE",
"983 270 LINE SMOOTH",
"983 314 OFFCURVE",
"966 430 OFFCURVE",
"953 505 CURVE",
"732 474 LINE"
);
},
{
closed = 1;
nodes = (
"411 325 LINE SMOOTH",
"411 202 OFFCURVE",
"395 188 OFFCURVE",
"338 188 CURVE SMOOTH",
"287 188 LINE",
"287 0 LINE",
"338 0 LINE SMOOTH",
"537 0 OFFCURVE",
"635 109 OFFCURVE",
"635 325 CURVE SMOOTH",
"635 450 LINE",
"411 450 LINE"
);
}
);
width = 1031;
}
);
unicode = FEB3;
},
{
glyphname = "sad-ar";
layers = (
{
anchors = (
{
name = bottom;
position = "{892, -100}";
},
{
name = top;
position = "{736, 573}";
}
);
layerId = "B420756C-160B-4E3B-8A8F-018354DD19AA";
paths = (
{
closed = 1;
nodes = (
"548 -248 OFFCURVE",
"654 -177 OFFCURVE",
"622 -38 CURVE SMOOTH",
"497 500 LINE",
"462 500 LINE",
"587 -42 LINE SMOOTH",
"612 -147 OFFCURVE",
"543 -214 OFFCURVE",
"413 -214 CURVE SMOOTH",
"125 -214 OFFCURVE",
"127 -6 OFFCURVE",
"109 284 CURVE",
"126 268 LINE",
"59 272 LINE",
"74 281 LINE",
"92 -16 OFFCURVE",
"100 -248 OFFCURVE",
"415 -248 CURVE SMOOTH"
);
},
{
closed = 1;
nodes = (
"1148 0 LINE",
"1092 243 LINE SMOOTH",
"1066 355 OFFCURVE",
"991 500 OFFCURVE",
"802 500 CURVE SMOOTH",
"635 500 OFFCURVE",
"580 387 OFFCURVE",
"521 284 CURVE",
"550 265 LINE",
"612 372 OFFCURVE",
"662 466 OFFCURVE",
"803 466 CURVE SMOOTH",
"937 466 OFFCURVE",
"1024 383 OFFCURVE",
"1057 239 CURVE SMOOTH",
"1110 10 LINE",
"1129 34 LINE",
"605 34 LINE",
"613 0 LINE"
);
}
);
width = 1170;
},
{
anchors = (
{
name = bottom;
position = "{924, -100}";
},
{
name = top;
position = "{768, 573}";
}
);
layerId = "7271F2A9-EB19-499E-973E-7497F9144823";
paths = (
{
closed = 1;
nodes = (
"628 -248 OFFCURVE",
"729 -144 OFFCURVE",
"695 1 CURVE SMOOTH",
"580 500 LINE",
"446 500 LINE",
"564 -11 LINE SMOOTH",
"582 -87 OFFCURVE",
"541 -128 OFFCURVE",
"443 -128 CURVE SMOOTH",
"197 -128 OFFCURVE",
"220 61 OFFCURVE",
"195 336 CURVE",
"261 277 LINE",
"7 290 LINE",
"64 338 LINE",
"90 2 OFFCURVE",
"93 -248 OFFCURVE",
"450 -248 CURVE SMOOTH"
);
},
{
closed = 1;
nodes = (
"1207 0 LINE",
"1150 247 LINE SMOOTH",
"1124 359 OFFCURVE",
"1053 500 OFFCURVE",
"869 500 CURVE SMOOTH",
"697 500 OFFCURVE",
"642 383 OFFCURVE",
"583 280 CURVE",
"628 153 LINE",
"654 199 OFFCURVE",
"732 380 OFFCURVE",
"876 380 CURVE SMOOTH",
"949 380 OFFCURVE",
"995 336 OFFCURVE",
"1019 235 CURVE SMOOTH",
"1071 0 LINE",
"1177 120 LINE",
"667 120 LINE",
"694 0 LINE"
);
}
);
width = 1219;
},
{
anchors = (
{
name = bottom;
position = "{847, -100}";
},
{
name = top;
position = "{847, 573}";
}
);
associatedMasterId = "B420756C-160B-4E3B-8A8F-018354DD19AA";
layerId = "2D07D9D6-DD7A-4EF1-82E8-8B18836F0AAC";
paths = (
{
closed = 1;
nodes = (
"574 -248 OFFCURVE",
"693 -131 OFFCURVE",
"693 18 CURVE SMOOTH",
"693 505 LINE",
"469 505 LINE",
"469 18 LINE SMOOTH",
"469 -39 OFFCURVE",
"449 -60 OFFCURVE",
"373 -60 CURVE SMOOTH",
"296 -60 OFFCURVE",
"264 -30 OFFCURVE",
"264 25 CURVE SMOOTH",
"264 60 OFFCURVE",
"274 147 OFFCURVE",
"294 278 CURVE",
"73 306 LINE",
"56 195 OFFCURVE",
"40 78 OFFCURVE",
"40 25 CURVE SMOOTH",
"40 -130 OFFCURVE",
"179 -248 OFFCURVE",
"373 -248 CURVE SMOOTH"
);
},
{
closed = 1;
nodes = (
"1196 0 LINE",
"1196 208 LINE SMOOTH",
"1196 394 OFFCURVE",
"1088 505 OFFCURVE",
"928 505 CURVE SMOOTH",
"722 505 OFFCURVE",
"646 321 OFFCURVE",
"554 208 CURVE",
"592 71 LINE",
"625 111 OFFCURVE",
"753 317 OFFCURVE",
"892 317 CURVE SMOOTH",
"933 317 OFFCURVE",
"972 299 OFFCURVE",
"972 208 CURVE SMOOTH",
"972 38 LINE",
"1151 188 LINE",
"693 188 LINE",
"693 0 LINE"
);
}
);
width = 1256;
}
);
unicode = 0635;
},
{
glyphname = "sad-ar.fina";
layers = (
{
components = (
{
name = "sad-ar";
},
{
name = connection_r;
transform = "{1, 0, 0, 1, 1140, 0}";
}
);
layerId = "B420756C-160B-4E3B-8A8F-018354DD19AA";
paths = (
{
closed = 1;
nodes = (
"1248 0 LINE",
"1240 34 LINE",
"1140 34 LINE",
"1148 0 LINE"
);
}
);
width = 1190;
},
{
components = (
{
name = "sad-ar";
},
{
name = connection_r;
transform = "{1, 0, 0, 1, 1218, 0}";
}
);
layerId = "7271F2A9-EB19-499E-973E-7497F9144823";
paths = (
{
closed = 1;
nodes = (
"1326 0 LINE",
"1298 120 LINE",
"1179 120 LINE",
"1207 0 LINE"
);
}
);
width = 1268;
},
{
associatedMasterId = "B420756C-160B-4E3B-8A8F-018354DD19AA";
components = (
{
name = "sad-ar";
},
{
name = connection_r;
transform = "{1, 0, 0, 1, 1247, 0}";
}
);
layerId = "2D07D9D6-DD7A-4EF1-82E8-8B18836F0AAC";
paths = (
{
closed = 1;
nodes = (
"1297 0 LINE",
"1297 188 LINE",
"1196 188 LINE",
"1196 0 LINE"
);
}
);
width = 1297;
}
);
unicode = FEBA;
},
{
glyphname = "sad-ar.medi";
layers = (
{
components = (
{
name = "sad-ar.init";
},
{
name = connection_r;
transform = "{1, 0, 0, 1, 770, 0}";
}
);
layerId = "B420756C-160B-4E3B-8A8F-018354DD19AA";
paths = (
{
closed = 1;
nodes = (
"878 0 LINE",
"870 34 LINE",
"770 34 LINE",
"778 0 LINE"
);
}
);
width = 820;
},
{
components = (
{
name = "sad-ar.init";
},
{
name = connection_r;
transform = "{1, 0, 0, 1, 846, 0}";
}
);
layerId = "7271F2A9-EB19-499E-973E-7497F9144823";
paths = (
{
closed = 1;
nodes = (
"954 0 LINE",
"926 120 LINE",
"807 120 LINE",
"835 0 LINE"
);
}
);
width = 896;
},
{
associatedMasterId = "B420756C-160B-4E3B-8A8F-018354DD19AA";
components = (
{
name = "sad-ar.init";
},
{
name = connection_r;
transform = "{1, 0, 0, 1, 831, 0}";
}
);
layerId = "2D07D9D6-DD7A-4EF1-82E8-8B18836F0AAC";
paths = (
{
closed = 1;
nodes = (
"881 0 LINE",
"881 188 LINE",
"780 188 LINE",
"780 0 LINE"
);
}
);
width = 881;
}
);
unicode = FEBC;
},
{
glyphname = "sad-ar.init";
layers = (
{
anchors = (
{
name = bottom;
position = "{522, -100}";
},
{
name = top;
position = "{366, 573}";
}
);
components = (
{
name = connection_l;
}
);
layerId = "B420756C-160B-4E3B-8A8F-018354DD19AA";
paths = (
{
closed = 1;
nodes = (
"778 0 LINE",
"722 243 LINE SMOOTH",
"696 355 OFFCURVE",
"621 500 OFFCURVE",
"432 500 CURVE SMOOTH",
"265 500 OFFCURVE",
"210 387 OFFCURVE",
"151 284 CURVE",
"180 265 LINE",
"244 376 OFFCURVE",
"294 466 OFFCURVE",
"433 466 CURVE SMOOTH",
"568 466 OFFCURVE",
"654 382 OFFCURVE",
"687 239 CURVE SMOOTH",
"740 10 LINE",
"759 34 LINE",
"50 34 LINE",
"58 0 LINE"
);
},
{
closed = 1;
nodes = (
"235 34 LINE",
"127 500 LINE",
"92 500 LINE",
"200 34 LINE"
);
}
);
width = 800;
},
{
anchors = (
{
name = bottom;
position = "{552, -100}";
},
{
name = top;
position = "{396, 573}";
}
);
components = (
{
name = connection_l;
}
);
layerId = "7271F2A9-EB19-499E-973E-7497F9144823";
paths = (
{
closed = 1;
nodes = (
"835 0 LINE",
"778 247 LINE SMOOTH",
"752 359 OFFCURVE",
"682 500 OFFCURVE",
"496 500 CURVE SMOOTH",
"327 500 OFFCURVE",
"270 384 OFFCURVE",
"211 280 CURVE",
"256 153 LINE",
"282 199 OFFCURVE",
"360 380 OFFCURVE",
"504 380 CURVE SMOOTH",
"571 380 OFFCURVE",
"623 341 OFFCURVE",
"647 235 CURVE SMOOTH",
"699 0 LINE",
"805 120 LINE",
"30 120 LINE",
"58 0 LINE"
);
},
{
closed = 1;
nodes = (
"296 120 LINE",
"208 500 LINE",
"74 500 LINE",
"162 120 LINE"
);
}
);
width = 847;
},
{
anchors = (
{
name = bottom;
position = "{431, -100}";
},
{
name = top;
position = "{431, 573}";
}
);
associatedMasterId = "B420756C-160B-4E3B-8A8F-018354DD19AA";
components = (
{
name = connection_l;
}
);
layerId = "2D07D9D6-DD7A-4EF1-82E8-8B18836F0AAC";
paths = (
{
closed = 1;
nodes = (
"780 0 LINE",
"780 208 LINE SMOOTH",
"780 394 OFFCURVE",
"672 505 OFFCURVE",
"512 505 CURVE SMOOTH",
"306 505 OFFCURVE",
"230 321 OFFCURVE",
"138 208 CURVE",
"176 71 LINE",
"209 111 OFFCURVE",
"337 317 OFFCURVE",
"476 317 CURVE SMOOTH",
"517 317 OFFCURVE",
"556 299 OFFCURVE",
"556 208 CURVE SMOOTH",
"556 38 LINE",
"735 188 LINE",
"0 188 LINE",
"0 0 LINE"
);
},
{
closed = 1;
nodes = (
"277 188 LINE",
"277 505 LINE",
"53 505 LINE",
"53 188 LINE"
);
}
);
width = 840;
}
);
unicode = FEBB;
},
{
glyphname = "tah-ar";
layers = (
{
anchors = (
{
name = bottom;
position = "{459, -100}";
},
{
name = top;
position = "{303, 573}";
}
);
layerId = "B420756C-160B-4E3B-8A8F-018354DD19AA";
paths = (
{
closed = 1;
nodes = (
"715 0 LINE",
"659 243 LINE SMOOTH",
"633 355 OFFCURVE",
"558 500 OFFCURVE",
"369 500 CURVE SMOOTH",
"202 500 OFFCURVE",
"147 387 OFFCURVE",
"88 284 CURVE",
"117 265 LINE",
"181 376 OFFCURVE",
"231 466 OFFCURVE",
"370 466 CURVE SMOOTH",
"505 466 OFFCURVE",
"591 382 OFFCURVE",
"624 239 CURVE SMOOTH",
"677 10 LINE",
"696 34 LINE",
"70 34 LINE",
"78 0 LINE"
);
},
{
closed = 1;
nodes = (
"172 34 LINE",
"11 730 LINE",
"-24 730 LINE",
"137 34 LINE"
);
}
);
width = 737;
},
{
anchors = (
{
name = bottom;
position = "{505, -100}";
},
{
name = top;
position = "{349, 573}";
}
);
layerId = "7271F2A9-EB19-499E-973E-7497F9144823";
paths = (
{
closed = 1;
nodes = (
"788 0 LINE",
"731 247 LINE SMOOTH",
"705 359 OFFCURVE",
"635 500 OFFCURVE",
"449 500 CURVE SMOOTH",
"280 500 OFFCURVE",
"223 384 OFFCURVE",
"164 280 CURVE",
"209 153 LINE",
"235 199 OFFCURVE",
"313 380 OFFCURVE",
"457 380 CURVE SMOOTH",
"524 380 OFFCURVE",
"576 341 OFFCURVE",
"600 235 CURVE SMOOTH",
"652 0 LINE",
"758 120 LINE",
"50 120 LINE",
"78 0 LINE"
);
},
{
closed = 1;
nodes = (
"249 120 LINE",
"115 700 LINE",
"-19 700 LINE",
"115 120 LINE"
);
}
);
width = 800;
},
{
anchors = (
{
name = bottom;
position = "{471, -100}";
},
{
name = top;
position = "{521, 573}";
}
);
associatedMasterId = "B420756C-160B-4E3B-8A8F-018354DD19AA";
layerId = "2D07D9D6-DD7A-4EF1-82E8-8B18836F0AAC";
paths = (
{
closed = 1;
nodes = (
"820 0 LINE",
"820 208 LINE SMOOTH",
"820 394 OFFCURVE",
"712 505 OFFCURVE",
"552 505 CURVE SMOOTH",
"346 505 OFFCURVE",
"270 321 OFFCURVE",
"178 208 CURVE",
"216 71 LINE",
"249 111 OFFCURVE",
"377 317 OFFCURVE",
"516 317 CURVE SMOOTH",
"557 317 OFFCURVE",
"596 299 OFFCURVE",
"596 208 CURVE SMOOTH",
"596 38 LINE",
"775 188 LINE",
"20 188 LINE",
"20 0 LINE"
);
},
{
closed = 1;
nodes = (
"317 188 LINE",
"317 690 LINE",
"93 690 LINE",
"93 188 LINE"
);
}
);
width = 880;
}
);
unicode = 0637;
},
